<svg xmlns="http://www.w3.org/2000/svg" viewBox="0 0 389.7 246.7"><defs><style>.st0 { fill: none; } .st1 { fill: #2c2b28; } .st2 { fill: #8c7d98; } .st3 { fill: #3c3c39; } .st4 { fill: #ad8d53; } .st5 { fill: #4b4d4e; } .st6 { fill: #60618e; } .st7 { fill: #67627a; } .st8 { fill: #d6a443; } .st9 { fill: #44332c; } .st10 { fill: #a1604c; } .st11 { fill: #ce8b47; } .st12 { fill: #c5c1be; } .st13 { fill: none; } .st14 { fill: #cc803e; } .st15 { fill: #c26047; } .st16 { fill: #bb423d; }</style></defs><path class="st0" d="M.6 55.1c0-17.3.1-34.7-.1-52C.5.6 1.1 0 3.6 0c127.7.1 255.3.1 383-.1 4 0 3 2.1 3 4.1v241c-2.3.2-4.9-.7-7 1h-296c-8.6-2.2-17.3-.5-26-.9-6.7-.1-13.3-.1-20-.3-2 0-5.7.7-5.3-1.5.5-2.4 2.6-6 6.7-5.3 8.9 1.6 17-2.9 25.6-3.3.6-.3 1.2-.5 1.8-.8l.1-.1c11.6-7.4 13.3-7.9 7.3-16.4-6.7-2.4-10.4 3.3-15.3 5.7-3.6-1-7.3-2.1-10.9-3.1l-.3-.1c-2-2.8-9.1.8-7.8-6.1 5.6 1.9 11.1 4.2 17.1 1.9 2.8-7 8.5-10.8 15-13.9 7 5 16.1 4.8 23.1 10.1 4.6 3.6 12.7-.6 16 6.7v1.3c-.2.8-.9 1.8.6 2.1 0 .2 0 .4.1.6l-.9 1.2c-.8 1.6-2.6 3.4 1 3.9.7-.2 1.5-.3 2.2-.5.6-1.1 1.2-2.1 1.9-3.2l1-1c2.4-.4 3.3 1.9 4.9 2.9 7.2 4.6 8.4 4.3 9.2-1.9.4-2.8 9.2-1 4-7.1 1.8-.5 3.8-1.1 2.6-3.6-1-2.2-3.1-1.1-4.9-1.2-1.9-2.5.1-2.7 1.8-2.9 1.7 1.8 2.4-.2 3.4-1-1.1-1.2-1.1-3.6-3.6-3.3-3.9.4-7.8.7-11.6 1.1-5.3-2.3-9.5-6.1-12.6-10.7-2.6-3.7-5.7-5.1-9.9-4.8 0-1.7-1.6-1.1-2.4-1.7-.7-.3-1.5-.7-2.2-1-1.3-3.2 1.9-2.4 3-3.5 2.3-1.8 4.4-4.1 7-5.3 14.3-6.6 28.7-13 43.1-19.5 5.5.1-.5 3.1 1 4.2-3.1 5-6.2 10-9.4 15-.4.6-.8 1.2-1.1 1.9 1.1.5 1.8 0 2.5-.9 4.1-4.4 7.5-9.2 9.4-15 2.7-8.7 10.9-9.8 17.6-12.9 1.3-.4 2.7-.8 4-1.2 1-.2 2-.5 3-.7.3-.1.7-.2 1-.3 1.3.2 2.2.4 1 2-3.2 4.4-6.4 8.8-9.5 13.3-.6.8-2.2 1.4-.9 2.7.2.2 1.7-.6 2.3-1.3 5.4-5.4 9.6-11.7 13.2-18.5.7-.3 1.3-.7 2-1 2.3-.7 4.6-1.3 6.8-2l.1-.1c1-.3 1.9-.6 2.9-.9l9-2.1c.4 0 .7-.1 1.1-.1.4.1.7.1 1.1.2-1.1 4.3-5 6.8-7 10.5-.3.5-.5 1.1-.7 1.6.5-.1 1.1 0 1.4-.2 3.6-3.7 8.1-6.7 10.3-11.8l.1-.1c.3-.3.6-.6.9-1 4.5-1 9-2.2 13.5-3.1 2.8-.5 5.5-2.5 8.4-.7.7.4.5.6-4.6 6.2-.6.6-3.1 1.1-1.2 2.7 1.3 1.1 2.3-.7 2.8-1.5 7.6-11.4 20-10.4 31.3-12.5.9-.2 1.8.4 2.8.6-.3.7-.5 1.4-.9 2-.7 1.1-1.6 2.1-2.4 3.2 1.9.6 3.2-.4 4.5-1.4 2-1.5 4-2.9 6-4.4 9-.1 18-.1 27-.2h.3c6.6 1.6 13.2 3.2 19.7 4.9 5.3 1.7 6.9 8.6 13 9.3h1.8c4.5 3.6 8.8 5.7 14.9 2.5 4.7-2.5 2.7-5.2 1.7-8.2.9-2.6 1.8-5.3 2.8-7.9.2-.9.5-1.8.7-2.6.1-.2.2-.3.1-.6 5.1-10.8.8-30.1-8.5-37.6l-.2-.2c-.5-.8-.9-1.5-1.4-2.3l-.1-.1-1.8-2.1c0-1.4-.6-2.5-2-2.9-.3-.3-.6-.7-.9-1-1.2-4.8-4.9-7.1-9-8.9-1-.5-1.9-1-2.9-1.6l-.1-.1c-.4-1.5-1.4-2.3-3-2.3-.4-.2-.8-.5-1.2-.7-.2-.2-.4-.3-.6-.3-.4-.3-.8-.6-1.3-.9h-.1c-.6-.4-1.3-.8-1.9-1.2-20.7-14.4-44.2-20.3-68.9-23-1.7-.3-3.4-.6-5-.9h-.1c-2-.3-3.9-.6-5.9-.9h-.2c-2.3-.3-4.6-.6-6.8-.8-5.7-.4-11.4-.8-17-1.2-2.9-2.8-6.7-.9-9.9-1.7-.2-.3-.5-.4-.9-.4-3.8-6.2-8.9-9.8-16.6-10.1-7.8-.2-14.6 1.7-21 6-.2-.3-.5-.6-.7-1 6.9-5.9 6.8-11.3-.5-19.7-4.1-4.7-13.3-5.4-17.8-1.5-7.8 6.9-13.7 15-16.2 25.3-.5 2.2-1 4.4-3.1 5.6-2.1-.5-4.2-.9-6.2-1.3-1.9-3.4-1.4-7.1-1.4-10.7 0-2.2.5-5.2-1.9-6.2-2.8-1.2-5.5 0-7.7 2.1-3.7 3.5-7.3 7-11 10.6-1.9 1-3.9 2-5.8 3.1-.4.2-.9.5-1.3.7C89 43.4 85.2 48 82 53.2c-5.5 3.5-9.8 9.1-17 9.8-.3-.7-.6-1.3-.9-2 1-3-6.2 1.2-3.1-3.4 10.3-15 20.7-29.9 31-45 .9-1.3 4.5-2 1.6-4.5-2.4-2-3.6.8-4.7 2-10.7 11.4-21.4 23-32 34.5-2.2 2.3-2.3 2.3-4.9 1.6l1-1c5-8 10.2-15.8 14.9-24 2.3-3.9 6-7.2 6.3-12.2.1-.9-.1-1.8-.2-2.6-.7.3-1.7.5-2.1 1.1-7.3 8.5-14.4 17-21.5 25.5L31.5 54c-1.6-5.4 2.3-10.5 1-15.8-.6-1.4 2.2-2.5.5-3.8-.3-.3-1.8.9-2.7 1.4-4.3 2.6-3.6 8.6-7.7 11.3l-.3-.1c-1.4-1.5-.2-3.1-.1-4.6.1-3.7 2.3-7.6-.4-11.2-1.4 0-3-.2-3.4 1.7-2.3 5.4-4.5 10.8-6.8 16.2-.4.7-.7 1.4-1.1 2.1-2 4.5-2.7 12.4-9.9 3.9z"/><path class="st1" d="M.6 154.1v-3c4.2-.9 8.9 4.5 12.8-.9-.2-1.1-.5-2.1-.7-3.2 4.3-1.4 1.9-4.6 1.8-7-.1-2.1-2.4-2.7-3.7-2.5-2.3.3-3.6 2.1-3.2 4.7-7-1.5.4-4.8-.9-7.1 1.3-1.7 2.5-3.4 3.8-5.1 4.5-4.7 12.5-5.4 14.4-12.9 1 .5 2 .9 3 1.4 0 .3 0 .5-.2.7l-.9 1.5c-.3 6.4-8.8 8.5-8 15.5-.1 3.7-.1 7.3-.2 11l-.1.1c-.3.3-.6.7-.9 1-.3.3-.3.5-.1.8-.3.4-.6.7-1 1.1-.2.4-.5.9-.7 1.3-.2.9-.4 1.7-.6 2.6-.4.3-.9.7-1.3 1 .6.4 1.1.7 1.7 1.1 6.9 7 16.1 3 24.1 4.8.4 3.1-3.3 5-2.3 8.3-2 .6-2.3 1.6-.8 3 .7 4.7 5.3 4.9 8.2 7-.4.1-.9.2-1.3.3-.6-.1-1.4-.5-.8.7 0 .4.1.8.1 1.2.1 2.1-.8 4.4 1.1 6.2.1 1.1.1 2.2.2 3.3-2.2 0-5.4-3.6-6.3 1.7-3.1 1.1-5.5-.8-8.1-1.8-.6-.4-1.2-1.4-1.7-1.3-1.8.5-.8 1.8-.5 2.8 1.4 4.9 1.5 9.6-1.6 14-2.1 0-2.5-1.7-3.2-3.1 1.2-1.5 6-.7 3.1-4.9-.4-3.5-.8-7-1.1-10.5-1.1-11.3-9.2-21.9-18-23.5 2-2 6.6-3.9 0-5.9l3-2.4c-1.5-.6-3-1.4-4.5-1.7-1.6-.6-3.1-.3-4.6-.3zm27 21.2c1.5-2 5.8 1 6.2-3.7.3-3.7-2.1-3.8-4.2-4.7-2.1-1.3-4.2-1.6-5.1 1.2-.8 2.6-3.3 5.4-.9 8.2 1.4 1.7 3 .5 4-1z"/><path class="st2" d="M16.6 246.1h-4c-.1-5.3-4-2.1-6.2-2.6-1.1-.2-2.7 1.1-3.5-.3-.8-1.4-.9-3.2.8-4.3.6 1 1.1 1.9 1.7 2.9.6-.5 1.5-.9 1.8-1.5 2.6-7.5 9.4-9.5 15.6-12.4 4.7-2.2 10.4-2.4 14.2-6.5.9-.2 1.8-.5 2.6-.7 6.7 1.9 12.8 5.6 19.9 5.9-6.9 3.2-14.1 1-21.1 1.5-3 .2-6 .1-7.9 3-3 1.3-5.8 3.3-8.9 3.9-4.4.8-3 2.3-1.1 4.3 0 .3 0 .6.1.9.7 3.3-4.6 2.6-4 5.9zm-4-5.4c-.1-.1-.1-.3-.2-.3-.3 0-.5.1-.8.2.1.1.1.3.2.3.2-.1.5-.1.8-.2zm5.1 1c-.1-.1-.2-.3-.3-.3-.3 0-.6.1-.8.2.1.1.2.3.3.3.2-.1.5-.2.8-.2z"/><path class="st3" d="M.6 105.1v-8l6 .9.1.1c0 2.2 1.3 2.4 3 2 2.2.4 3.2-.5 3-2.8 5.2-1.3 3.6 2.6 3.9 5.1.1 1-.2 2-.1 3 .2 1.3.4 4.2 1.2 3.3 1.7-2 2.9-5.1 1.4-8.1-1.2-2.5-2.4-5.1-3.6-7.6 0-.7.1-1.4.1-2 2.1.3 2.5 2.6 3.9 3.5 3.5 2.1 0 7.1 4 8.7l.3.3c-.1-.1-.2-.2-.4-.2-.2-1.5.8-1.9 2.1-2.1.3.6 1 1.3.9 1.7-2.3 5.7-7.4 9.6-9.1 15.7-.2.7-1.4.6-1.8-.4-.4-.9.4-2.9-1.6-2.1-1.2.5-3.1 2.2-3 3 1.9 8.3-3 6.2-7.4 5.1-.2-2-1.7-1.7-3.1-1.8v-1l3-1.8c4.5-2.2 9.7-3.2 7.1-10.8-2-6.7-6.4-2.9-9.9-3.7zM16.6 246.1c-.6-3.3 4.7-2.6 4-5.9 4.2-2.8 10.2 2.5 13.8-3.1 4.1-6.5 10.8-5.8 16.6-4.7 6.6 1.3 12.2-2 18.4-1.8 0 1.1.1 2.3.1 3.4l-.1.1c-.6.3-1.2.5-1.8.8-8.6.4-16.7 4.9-25.6 3.3-4.1-.7-6.2 2.9-6.7 5.3-.5 2.1 3.3 1.4 5.3 1.5 6.7.2 13.3.2 20 .3v.9c-14.7-.1-29.3-.1-44-.1zM59.6 226.6c-7.1-.3-13.3-4-19.9-5.9 0-1.2-.2-2.4-1.8-2.6-.2-.8-.4-1.7-.6-2.5-.2-.5-.4-1-.6-1.4-.3-.7-.5-1.4-.8-2.1l-.3-.9c-.3-.3-.6-.6-.8-.9-.8-1.8-2.3-2.5-4.2-2.4-.8-.7-1.5-.5-2 .4-9.3 2.7-18.7 5.3-28 8v-3l21.9-10.2c.7 1.4 1.1 3.2 3.2 3.1 1-.3 1.9-.7 2.9-1h3.9c1.8 1.6 3.5 3.2 4.7 5.4 2.8 5.1 4.6 12 13.1 9.6l.3.1c2.8 4 6.6 4.6 10.9 3.1 4.9-2.5 8.6-8.1 15.3-5.7.7 1.8-4.2 3.9.4 5.8 1.9.8.2 1.5-.9 1.8-3.5.7-7.1-7.5-10.6 0-1.9.3-4 .8-6.1 1.3z"/><path class="st3" d="M37 221.4c-3.9 4.1-9.5 4.3-14.2 6.5-6.2 2.9-13.1 4.9-15.6 12.4-.2.6-1.2 1-1.8 1.5-.6-1-1.1-1.9-1.7-2.9-1.9-2.6-.3-6.5-3.2-8.8v-6c2.7-1.2 5.3.4 7.9.6 3.9 3.8 7.5 3.1 11.6-.1 3-2.3 6.4-4.1 8.6-7.4.5-.7 1.5-1 2.3-1.5.2.4.8.9.7 1.2-3.2 7.3 2.5 3.7 5 4.1.1.2.2.3.4.4z"/><path class="st2" d="M8.5 224.7c-2.6-.2-5.2-1.7-7.9-.6v-8c9.3-2.7 18.7-5.3 28-8 .7-.1 1.3-.3 2-.4 1.9-.1 3.4.6 4.2 2.4.3.3.6.6.8.9l.3.9c-3.8 3.3-8.5 1.6-12.7 2.5-3.5-.5-6.9-.2-10.2 1-2 .8-2.8 2.6-3 4.2-.2 1.6 1.7 1 2.7 1.4-.3 2.6-2.9 2.5-4.2 3.7z"/><path class="st3" d="M.6 190.1v-14c.9 1 1.8 2.1 2.8 3.1.9.1 1.9.2 2.8.3 2.6 3.2 2.7 8 6.5 10.4 2 .2 3.9.4 5.9.6.8.6 1.6 1.1 2.3 1.7.8.7 2.3 2.9.4 2.3-5.9-1.9-6.1 2.4-7.6 5.6-1.3 1.4-1.9 3.9-4.7 3.1-3.3-2.7-5.1.7-7.4 2h-1v-4h2.2c8.7-5 9.1-8.5 1.8-14-3.2-1.6-1.6 3.3-4 2.9z"/><path class="st4" d="M6.6 98l-6-.9v-16c2.1-1 1.8-2.9 1.9-4.7.1-2.6-1.3-5.8 1.1-7.5 5.7-4.2 6.7-11.1 10.2-16.5 1.9 2.3.4 5.1 1.1 7.6-5.3.9-4.7 6.9-8 9.8-.9.7 4.1 1 6 2.5v.6c-1.5 1.7-1.4 5.3-5.2 4.1-2.4-.1-3.5.6-3 3.5.7 5.8 1.2 11.7 1.9 17.5z"/><path class="st5" d="M13.7 52.4c-3.5 5.4-4.5 12.3-10.2 16.5-2.3 1.7-.9 5-1.1 7.5-.1 1.8.2 3.7-1.9 4.7v-26c7.2 8.5 7.9.6 9.9-3.9.3-.7.7-1.4 1.1-2.1 3.2-.4 2.1 1.8 2.2 3.3z"/><path class="st6" d="M.6 205.1h1c4.5 7 4.7-2.2 7.4-2 2.8.9 3.4-1.6 4.7-3.1.7 3.5 2.9 1.1 4.2.8 2.7-.6 5.2-1.8 7.8-2.8 2.9 4.1-1.9 3.4-3.1 4.9L.7 213.1c-.1-2.6-.1-5.3-.1-8z"/><path class="st2" d="M6.7 135.1c1.3 2.2-6.1 5.6.9 7.1l-.1-.1c-1.9 5.5 1 7.5 5.8 8.1-3.9 5.4-8.6 0-12.8.9v-17c.7 0 1.3-.1 2-.1 1.4.4 3.2-.7 4.2 1.1zM.6 105.1c3.5.7 7.9-3.1 10.1 3.4 2.6 7.5-2.6 8.6-7.1 10.8-1.9-.8.3-4.4-3-4.2v-2c.8-.2 1.7-.4 2.5-.5-.8-.8-1.7-1.6-2.5-2.5v-5z"/><path class="st5" d="M6.7 135.1c-1-1.8-2.8-.7-4.1-1.1-.2-1.5.7-3.6-2-3.9v-8c1.3.1 2.9-.2 3.1 1.8 1 3.5 3.2 5.6 6.8 6.1-1.3 1.7-2.5 3.4-3.8 5.1z"/><path class="st7" d="M.6 230.1c2.9 2.3 1.3 6.2 3.2 8.8-1.7 1.2-1.6 2.9-.8 4.3s2.4.1 3.5.3c2.2.4 6-2.7 6.2 2.6-10.2 2.2-14.2-1.8-12-12 .1-1.3-.1-2.6-.1-4z"/><path class="st2" d="M6.6 158.2c6.6 2 1.9 4 0 5.9h.1c-.9.4-1.7.8-1.1 2h.1c-.4 0-.8-.1-1.2-.1-1.3.7-2.6 1.5-3.8 2.2v-8c1.9-.7 3.9-1.4 5.9-2z"/><path class="st7" d="M6.6 158.2c-2 .6-4 1.3-6 1.9v-6c1.5 0 3-.3 4.4 0 1.5.3 3 1.1 4.5 1.7-1 .8-1.9 1.6-2.9 2.4z"/><path class="st5" d="M.6 168.1c1.3-.7 2.6-1.5 3.8-2.2.4 0 .8.1 1.2.1h-.1c.4.1.8.1 1.3.2-.6 1.3-1.2 2.5-1.8 3.8-2.9 2.6-2.1 5.9-1.6 9.2-.9-1-1.8-2.1-2.8-3.1v-8z"/><path class="st7" d="M2.8 201.1H.6v-11c2.4.3.8-4.6 4-3-3.1 4.3-2.1 9.2-1.8 14z"/><path class="st5" d="M60.6 246.1v-.9c8.7.3 17.4-1.3 26 .9h-26zM.6 115.1c3.3-.2 1.1 3.4 3 4.2l-3 1.8v-6z"/><path class="st1" d="M.6 130.1c2.6.3 1.8 2.4 2 3.9-.7 0-1.3.1-2 .1v-4z"/><path class="st4" d="M382.6 246.1c2.1-1.7 4.7-.8 7-1-2.1 2.3-4.7.4-7 1z"/><path class="st5" d="M.6 110.1c.8.8 1.7 1.6 2.5 2.5-.8.2-1.7.4-2.5.5v-3z"/><path class="st3" d="M355.7 129.4c0 .2 0 .4-.1.6-.5.7-1 1.4-1.4 2.2-1 .4-1.9.7-2.9 1.1-.6-4.7 2.4-9.4.2-14.1.6-7.7-2.4-14.4-6.1-20.9-5.1-9-11-17.3-20.4-22.3-1.3-1.9-3-3.2-5.3-3.6-6.5-3.9-12-9.7-19.9-11.2-1-.4-2-.8-2.9-1.3-.7-.2-1.5-.4-2.2-.6-5.2-3-11-4.2-16.8-5.3-.6 0-1.2-.1-1.7-.1-.5-.2-.9-.5-1.4-.7-.9-.1-1.7-.2-2.6-.4-1.3-2.1-3.5-1.5-5.4-1.7-1.3-.3-2.7-.6-4-1-5.8-2.4-12-2.7-18.1-3.7-6.3-1.3-12.6-1.6-18.9-1.3-4.6-4-10.5-.7-15.5-2.5-1.4-.5-3.8-1.2-4.1 1-.5 2.7 2.1 2.5 3.8 2.4 6-.5 11.6.1 15.6 5.2 2.7 2.3 2.4 9.2 6.3 7.8 6.8-2.2 13.2-1.1 19.8-.9 1 4.7 8.8 6.5 5.4 13 .6.1 1.3.4 1.6.2 4.8-2.7 10.4-2.1 15.5-4.2 6.1-2.5 13.6-5.5 19.3 1.9.7 1.3 1.4 2.5 2.1 3.8.2.7.3 1.4.5 2.2.9 3.2 0 8.2 4.5 8.3 9.7.4 13.9 4.2 14.3 14.1.2 3.5-1.6 7.3.8 10.6 2.5 3.7 2.3 7.9 2 12-2.2 3.4-4.5 6.6-9 7-1.4 0-2.9-.1-3 1.9-1.4-.3-2.8-.7-4.2-1l-3-1.8c-1.3-.4-2.5-.7-3.8-1.1-1.9-3.1-.4-8.7-6.4-8.7-6.1 0-12-.1-18.1 2.5-3.8 1.6-10.4 1.4-12.4-2.5-4.3-8.2-9.7-4.7-15.2-3.2-.6 0-1.3 0-1.9.1-6.9-1.6-14.6-1.3-19.9-7.2-5.7-2 4.7-16.5-9.3-12 .2-4 2.9-4.9 6.2-5.1.6.2 1.1.5 1.7.7 2.6 1.1 1.9 3.5 2 5.5-.8 2.1-1.6 4.2.7 5.9 2.9 9.1 20.7 11.4 28.6 7.3 4.6-2.4 6.1-.5 7.3 2.9 1.9 5.5 6.6 5.1 10.8 5.2 3.5.1 7.2-.2 8.5-5 .8-3 3.2-2.1 4.4-.2 2.3 3.5 5 3.2 8.2 1.8l.4.1.4-.1c1.1.4 2.3.8 3.4 1.2.9 5.1 2.4 9.9 8.6 10.7h4.2c.3 0 .7-.1 1-.1 6.5-2.4 8.9-8.7 4.8-12.8-1-1.2-2-2.3-3-3.5 3.8-4.9 2.4-10.1 1-15.3-.5-4.1-.4-8.9-7-6.8-7.3 1.1-9.2-3.5-10.1-9.4-.4-2.4-1.8-4.5-2.7-6.8-1.2-2.8-3.6-2.8-6.1-3.1-6.3-.6-9.9 4.1-14.3 7.1h-.7c.8-2.8-.4-2.5-2.8-2.5-4.3.1-7.8 3.7-12.2 2.2v-3.8c1.4-8.9-10.5-12.5-16.4-11-3.8 1-7.2 5.1-11.7 1.8-1.8-3-3.7-5.9-5.5-8.9 0-3.4-2.5-4.2-5.1-4.1-4.5.2-9 .8-13.5 1.2v-2.9c.4-2.3.7-4.6 1.1-6.9.7-.4 1.5-.8 2.2-1.2.3 0 .6.1.9.4 3.3.6 6.6 1.1 9.9 1.7 5.7.4 11.4.8 17 1.2 2.1 1.5 4.5.7 6.8.8h.2c1.8 1.6 3.9.8 5.9.9h.1c1.5 1.5 3.3.9 5 .9 24.6 2.6 48.2 8.6 68.9 23 .6.4 1.3.8 1.9 1.2h.1c.4.3.8.6 1.3.9.2 0 .4.1.6.3.4.2.8.5 1.2.7.1 1.9 1.6 2.1 3 2.3l.1.1c.4 1.5 1.5 1.8 2.9 1.6 1.9 4.1 5.1 6.9 9 8.9.3.3.6.7.9 1-.2 1.6.3 2.7 2 2.9 0 1.2.5 2 1.8 2.1l.1.1c-.1 1.1-.4 2.3 1.4 2.3l.2.2c5.7 12.1 10.9 24.1 8.6 37.8z"/><path class="st1" d="M301.5 128c1.4.3 2.8.7 4.2 1 1.5-.1 2.9-.2 4.4-.3.5 0 1 .1 1.5.1.5 1 1.2 1.3 2.1.4.6.1 1.2.1 1.8.2 1.2 1.9 2.9 2.5 5.1 1.9 1 .3 1.9.6 2.9.9.4 1.8 1.3 2.9 3.3 2.7h-.1c.6.4 1.2.8 1.9 1.2.4.3.7.6 1.1 1-.1 3.6 4.7 5.2 4 9.1-6-.7-7.6-7.6-13-9.3-6-3.9-12.6-5.7-19.7-4.9h-.3c-9-1.3-18-1.7-27 .2-2 1.5-4 2.9-6 4.4-1.3 1-2.6 2.1-4.5 1.4.8-1.1 1.7-2.1 2.4-3.2.4-.6.6-1.3.9-2-.9-.2-1.9-.7-2.8-.6-11.3 2-23.7 1-31.3 12.5-.5.8-1.5 2.6-2.8 1.5-1.9-1.5.6-2 1.2-2.7 5.1-5.6 5.3-5.8 4.6-6.2-2.9-1.8-5.6.2-8.4.7-4.5.9-9 2-13.5 3.1-.3.3-.6.6-.9 1l-.1.1c-1.3 0-2.6 0-3.9-.1-.4-.1-.7-.1-1.1-.2-.4 0-.7.1-1.1.1l-9 2.1c-1 .3-1.9.6-2.9.9l-.1.1c-2.5 0-4.9.3-6.8 2-.7.3-1.3.7-2 1-2 .6-4 1.2-6.1 1.8-.3.1-.7.2-1 .3-1 .2-2 .5-3 .7-1.3.4-2.7.8-4 1.2 0-.8.1-1.5.1-2.3l1.8-.6c.3-.2.7-.4 1-.5.7-.2 1.4-.3 2.1-.5 1.4-.1 3 .4 3.9-1.2h-.1c.4-.2.8-.5 1.1-.7 2.8-.7 3.5-3.3 5-5.3h2c.1.3.2.6.2.9-.2.5-.8 1.3-.6 1.5.9 1 1.7.5 2.4-.3 3.6-1 7.3-1.8 10.8-3.1 5-1.8 11.5-.5 14.2-7 1.3.7.8 3.3 3.1 3 5.4-1 10.7-2.3 16.1-3 5.1-.7 8.9-2.6 10.3-7.8 1.8-1.7 3.6-3.5 5.4-5.2.4 3.1-2.1 5.1-3.1 7.7-.4.9-2.1 2.9.8 2.5 8.8-1.1 17.8-.8 26.3-4.2 1.2.7 1.9 3.1 4 1.3 4 0 8.1-.1 12.1-.1 1 1.1 1.9 1.1 2.9 0 1 0 2 .1 3 .1 1.9.3 3.5.5 5.2.7z"/><path class="st5" d="M51.7 46.2c2.6.7 2.7.8 4.9-1.6 10.7-11.5 21.3-23.1 32-34.5 1.1-1.2 2.3-4 4.7-2 3 2.4-.7 3.2-1.6 4.5-10.3 15-20.7 29.9-31 45-3.1 4.6 4.1.5 3.1 3.4-1.8-.5-3.6-1.1-5.4-1.6-.8-7.9 5.3-12.4 8.9-18.1.7-1.1 1.8-2.2.7-3.5-.1-.2-1.6.3-2.1.9-4.5 4.7-9.9 8.6-13.4 14.3-.6.1-1.3.2-1.9.3-5.8-3.1 1.2-4.8.8-7.3l.3.2zM205.8 38c-.7.4-1.5.8-2.2 1.2-1.9-2.6-2.9-6.1-7-6.1-3.5-4.2-16.9-3.6-22.9.9-2.1 1.3-4.1 2.7-6.2 4-3.5-.7-9.6 1.7-7-6 3.9-2.5 8.5-4.8 9.3-9.5.6-3.2-3.2-5.1-6.2-6.5-2.8-4.8-7-6.6-11.6-3.6-4.2 2.8-7.4 7-10.9 10.9-.4.4-4 3 .4 3.6-.1 1.6.6 3.5-1.7 4.2-2.9-2.1-2.9.3-3.2 2.1-.2 1-.3 1.9-.5 2.9-.3.4-.6.7-.9 1.1-.8 0-1.6-.1-2.4-.1 2.5-10.3 8.4-18.4 16.2-25.3 4.5-4 13.6-3.3 17.8 1.5 7.3 8.4 7.5 13.7.5 19.7-1.1.5-2.2.9-3.3 1.5 0 0 .1.6.3.6 1.5.4 2.8.4 3.7-1.1 6.3-4.3 13.2-6.2 21-6 7.8.2 12.9 3.8 16.8 10z"/><path class="st3" d="M37.7 192.3c.8-5.3 4-1.7 6.3-1.7l.6.3c.4 2-3.6 5.2 1.7 5.8 3.3.4 4.9 1.9 4.4 5.5-.3 2.3-.6 5 1.9 6.7 1.5 3.1 10.8-1.6 7 6.9-6 2.2-11.5-.1-17.1-1.9-.3-1.3-.7-2.6-1-3.9-1.3-5.6-5.6-10.7-1.1-17 1.1-1.4-1.7-.3-2.7-.7z"/><path class="st5" d="M50.4 33c7.1-8.5 14.1-17 21.2-25.5.5-.6 1.4-.7 2.1-1.1.2.9.3 1.8.3 2.7-.3 4.9-4.1 8.2-6.3 12.2-4.7 8.1-9.9 16-14.9 24l-.4-.3c-.1-2.6 3-4.2 2.1-7l.1.2c.4-.6.8-1.2 1.2-1.9.1-.1.2-.2.4-.3l-.2-.2c-.1.1-.2.2-.3.4-.3.1-.7.1-1 .2l-.9-2.4c-.2-.7-.4-1.4-.5-2.1-.7.5-1.5 1-2.2 1.5l-.7-.4z"/><path class="st1" d="M151.5 159.8c-14.4 6.5-28.8 12.8-43.1 19.5-2.6 1.2-4.7 3.5-7 5.3-1.3-.7-3.2-.9-1.9-3.2.6-.4 1.2-.9 1.9-1.3 14.7-9.4 30.7-16.1 47-22 1 .5 2.1 1.1 3.1 1.7z"/><path class="st3" d="M114.4 222.3c-1.6-.3-.9-1.3-.6-2.1h2.7c2.3-.1 4.4.1 6.2 1.8 1 .4 1.9.8 2.9 1.2.3.3.7.6 1 1 .4.2.7.5 1.1.7l.3-.3c-.4-.2-.8-.4-1.2-.5-.3-.3-.6-.7-1-1 .3-.8.5-1.6.8-2.4h2.3c.5-.2 1-.3 1.5-.5-.4-.4-.9-.8-1.3-1.2-.4-.9-.8-1.7-1.2-2.6.8-.4 1.5-.8 2.3-1.2 1.8-.9 3.7-1.9 5.5-2.8 1.7.1 3.8-1.1 4.9 1.2 1.2 2.5-.8 3.1-2.6 3.6 5.2 6.1-3.7 4.3-4 7.1-.8 6.2-2 6.4-9.2 1.9-1.6-1-2.5-3.3-4.9-2.9l-1 1c-2.2.5-1.9-4-4.5-2zM64.7 63c7.2-.7 11.5-6.3 17-9.8l.3.2c.2 2 .4 4.1.7 6.1-.5 1.4-4.4-1.1-3 2.6-4 5.3-10.6 7.9-14.1 13.8-1.2 1.9-2.9-.6-2.6-.9 5-4.9-2.8-5.8-2.7-9 0-.6.3-1.3.5-1.9 1.2-.3 2.6-.7 3.9-1.1zM132.9 37.2c.8 0 1.6.1 2.4.1-.3 1-.5 2-.8 3-2.4 7 .8 12.5 4.7 17.8.5.4 1 .8 1.5 1.1.5.4 1.1.8 1.6 1.2.5.3.9.5 1.4.8.3.2.6.5.9.7.7.4 1.5.9 2.2 1.3.9.3 1.7.6 2.6.9 5 1.8 10.1.4 15.2.3.3.2.6.4 1 .5l.4.3c0 1.7-.1 3.3-.1 5-.8-.3-1.5-.7-2.3-1-.3-.1-.5-.2-.8-.4.1-.3 0-.6-.2-.9-2.1-.2-4.2-.7-6.2-.7-9.9.3-17.8-2.9-22.6-12.1-1.8-3.2-1.6-7.6-5.8-9.2-.6-1.8 1.1-2.2 1.9-3.1 2.1-1.3 2.5-3.5 3-5.6zM113.7 218.8c-3.3-7.2-11.4-3.1-16-6.7-6.9-5.3-16.1-5.2-23.1-10.1v-1.9c5 2.2 9.8 5.2 15.7 4.1.8-.2 2.2.8 2.8 1.6 3.7 4.6 16 7.2 21.5 4.4-.5 3.9 3.4 3.3 5 5-1.1.6-2.1 1.3-3.2 1.9-.9.5-1.8 1.1-2.7 1.7zM13.7 52.4c0-1.5 1.1-3.7-2.1-3.3 2.3-5.4 4.5-10.8 6.8-16.2 1.1.2 2.2.4 3.3.5 0 .4-.1.9-.1 1.3-4.2 4.5-3.4 10.3-4 15.6-.1.7-1 2.1.6 2.1.5 0 1-1.4 1.5-2.2l2.7-3.3.3.1c1.7.3 0 4.2 3.1 3 1 .4 2 .7 2.9 1.1-.2.4-.5.7-.7 1.1-.8 0-1.6 0-2.4-.1-4.7.4-5.4 5.2-8.1 7.6h-.2c-.2 0-.4 0-.6.2h-1.9c-.8-2.4.7-5.2-1.1-7.5z"/><path class="st5" d="M101.6 37.1c3.7-3.5 7.3-7 11-10.6 2.2-2.1 4.9-3.3 7.7-2.1 2.4 1.1 1.9 4 1.9 6.2 0 3.7-.4 7.3 1.4 10.7 0 3 .2 6.1-2 8.6-.6-6.7-2.1-13.4-1-20.3.2-1.3-.1-2.4-1.9-1.7-5.4.1-8.5 2.7-9.1 8.2-1.9 1.5-2.8 4.5-6 3.8 0-1.2 0-2.6-2-2.8z"/><path class="st7" d="M119.6 215.1c-1.6-1.7-5.6-1.1-5-5 .5-.2.9-.3 1.4-.5-.4-.1-.8-.3-1.2-.4 0-1.1 0-2.2-.1-3.2 1.9.6 3.9 1.2 5.8 1.8.1-2.4-2.1-3.2-3.4-4.5-4.4-4.6-8.5-9.5-14.3-12.3l.2-.2c4.2-.2 7.3 1.1 9.9 4.8 3.2 4.6 7.3 8.4 12.6 10.7 0 .6-.1 1.2-.1 1.9-3.8-.3-3 2.9-3.8 5-.7.5-.3 2.2-2 1.9z"/><path class="st3" d="M151.5 159.8c-1-.6-2.1-1.2-3.1-1.7 6.7-1.8 10.2-6.3 11.2-13 .2-.1.4-.1.6-.1.5.8.9 1.5 1.4 2.3-1.9 4.4.1 5 3.8 4.1 2.1-.5 4.1-1 6.2-1.5 0 .8-.1 1.5-.1 2.3-6.7 3.1-14.9 4.3-17.6 12.9-.5-.3-1-.7-1.4-1-1.5-1.2 4.5-4.2-1-4.3z"/><path class="st5" d="M74.6 200.1v1.9c-6.5 3-12.2 6.9-15 13.9 3.7-8.5-5.5-3.8-7-6.9 5 .2 7.3-2.9 9-6.9 2.2-4.3 7.8.1 10-4 1 .7 2 1.3 3 2zM31.5 53.9l18.9-21 .4.3c.4.5.8.9 1.2 1.4-3.8 4.8-7.6 9.7-11.4 14.5-2.3.8-3.3 2.8-4 4.9v.1c-.3.3-.6.7-.9 1-.3.3-.6.7-.9 1l-.1.1c-.3.3-.6.6-1 .9l-1.1 1.1c-.4-.2-.8-.3-1.1-.5 0-.9 0-1.8.1-2.7-.1-.4-.1-.7-.1-1.1z"/><path class="st7" d="M355.7 129.4c2.3-13.7-2.9-25.7-8.5-37.6 9.2 7.5 13.6 26.8 8.5 37.6z"/><path class="st8" d="M352 140.5c1.1 3 3 5.7-1.7 8.2-6 3.2-10.4 1.1-14.9-2.5.2-.3.5-.4.8-.5 2.2.9 3.9.1 5.3-1.5 3.4 2.3 6.7 4.2 7.9-2.1 1-.6 1.8-1.1 2.6-1.6z"/><path class="st5" d="M25.8 50.1c-3.1 1.2-1.4-2.7-3.1-3 4.2-2.7 3.5-8.7 7.7-11.3.9-.6 2.4-1.7 2.7-1.4 1.7 1.3-1.2 2.3-.5 3.8-1.1 3.7-2.3 7.4-3.4 11-1.2.3-2.3.6-3.4.9zM179.6 149.9c2-.6 4-1.2 6.1-1.8-3.5 6.8-7.7 13.1-13.2 18.5-.6.6-2.1 1.5-2.3 1.3-1.3-1.3.4-1.9.9-2.7 3.1-4.5 6.2-8.9 9.5-13.3 1.1-1.6.3-1.8-1-2zM76.4 225.2c1.1-.3 2.8-1 .9-1.8-4.6-1.9.3-4-.4-5.8 6 8.5 4.3 9-7.3 16.4 0-1.1-.1-2.3-.1-3.4.7-.9 1.5-1.8 2.2-2.7 1.6-.9 4-.4 4.7-2.7z"/><path class="st9" d="M64.7 63c-1.4.4-2.7.7-4.1 1.1-6.6-3-1.5 4.6-4.5 4.9-1.5-.9-5.2 2.2-4.4-2.6.3-.7.7-1.5 1-2.2.2-.4.5-.8.7-1.1.7-1.1 1.4-2.2 2-3.3 1-.1 1.9-.2 2.9-.4 1.8.5 3.6 1.1 5.4 1.6.5.7.7 1.4 1 2z"/><path class="st4" d="M99.5 181.4c-1.3 2.2.6 2.5 1.9 3.2-1.1 1.1-4.3.3-3 3.5l-.2.3c-4.2-3.5-8.3-6.9-12.5-10.4l1.8-1.8c3.8 1.4 6.3 5.6 11 5.1.4 0 .7 0 1 .1z"/><path class="st5" d="M41.6 210c.3 1.3.7 2.6 1 3.9-1.3 7 5.8 3.3 7.8 6.1-8.5 2.5-10.3-4.4-13.1-9.6-1.2-2.3-2.9-3.8-4.7-5.4 4.6-1.3 5.3 4.6 9 5z"/><path class="st10" d="M121.6 50c2.2-2.5 2-5.6 2-8.6 2.1.5 4.2.9 6.2 1.3-.8.9-2.6 1.3-2 3.1-2.5 3.2-3.8 8-9.3 7.2 1-1 2.1-2 3.1-3z"/><path class="st5" d="M152.5 164c.5.3 1 .7 1.4 1-2 5.7-5.4 10.5-9.4 15-.7.8-1.4 1.4-2.5.9.4-.6.7-1.2 1.1-1.9 3.2-5 6.3-10 9.4-15z"/><path class="st3" d="M125.5 208.1c0-.6.1-1.2.1-1.9 3.9-.4 7.8-.7 11.6-1.1 2.4-.2 2.5 2.2 3.6 3.3-1 .8-1.7 2.7-3.4 1-2.6-.1-4.8-3-7.7-1.3h-4.2z"/><path class="st7" d="M29.1 49.2c1.1-3.7 2.3-7.4 3.4-11 1.2 5.4-2.7 10.4-1 15.8v1c-.3.7-.6 1.5-.9 2.2h.1c-4 0-3-2.6-2.7-4.9.2-.4.5-.7.7-1.1.1-.7.3-1.4.4-2z"/><path class="st5" d="M208.7 142.1c1.3 0 2.6 0 3.9.1-2.1 5-6.6 8-10.3 11.8-.3.3-.9.2-1.4.2.2-.5.5-1.1.7-1.6 2.1-3.7 5.9-6.2 7.1-10.5z"/><path class="st3" d="M81.7 53.2c3.2-5.2 7-9.8 12.8-12.3.1.6.1 1.1.2 1.7-3.5 2.7-7 5.5-9.2 9.5-1.2.4-2.3.9-3.5 1.3l-.3-.2z"/><path class="st5" d="M129.7 208.1c2.9-1.7 5.1 1.2 7.7 1.3-1.8.2-3.7.4-1.8 2.9-1.8.9-3.7 1.9-5.5 2.8-2.2-2.2 1.4-4.7-.4-7z"/><path class="st11" d="M352 140.5c-.8.5-1.6 1-2.4 1.6 1.4-2.8-2.6-6.6 1.7-8.8 1-.4 1.9-.7 2.9-1.1.2.2.4.4.7.5-1.1 2.5-2 5.2-2.9 7.8z"/><path class="st12" d="M21.5 34.8c0-.4.1-.9.1-1.3 0-.8.1-1.5.1-2.3 2.7 3.6.5 7.5.4 11.2 0 1.6-1.2 3.1.1 4.6l-2.7 3.3c.8-5.2 1.4-10.4 2-15.5z"/><path class="st5" d="M300.9 132c7.2-.8 13.7 1 19.7 4.9-6.5-1.7-13.1-3.3-19.7-4.9zM273.7 132.1c9-1.9 18-1.4 27-.2-9.1.1-18.1.1-27 .2z"/><path class="st3" d="M101.6 37.1c1.9.1 2 1.5 2 3-1.6 2-3.1 4.1-6 2-.3-.1-.7-.2-1-.3-.3-.5-.5-1.1-.8-1.6 1.9-1 3.9-2 5.8-3.1z"/><path class="st7" d="M340.6 83.1c-3.9-2-7.1-4.8-9-8.9 4.1 1.8 7.8 4.1 9 8.9z"/><path class="st5" d="M336.3 145.7c-.3 0-.6.2-.8.5h-1.8c.7-3.9-4.1-5.4-4-9.1 3.4 1.9 5.8 4.6 6.6 8.6zM114.4 222.3c2.6-1.9 2.3 2.5 4.3 2-.6 1.1-1.2 2.1-1.9 3.2-.7-.4-1.5-.7-2.2-1.1v1.6c-3.5-.5-1.7-2.3-1-3.9l.9-1.2c-.1-.2-.1-.4-.1-.6zM61.6 223.3c-4.4 1.5-8.1 1-10.9-3.1 3.6 1.1 7.2 2.1 10.9 3.1zM216.6 40.1c-3.3-.6-6.6-1.1-9.9-1.7 3.2.8 6.9-1.1 9.9 1.7z"/><path class="st3" d="M187.6 147.1c2-1.8 4.3-2.1 6.8-2-2.2.7-4.5 1.3-6.8 2z"/><path class="st5" d="M113.7 218.8c.9-.6 1.8-1.2 2.8-1.8v3.1h-2.7c-.1-.4-.1-.8-.1-1.3zM240.4 42.2c-2.3-.1-4.7.7-6.8-.8 2.3.2 4.6.5 6.8.8zM246.5 43.1c-2-.1-4.1.7-5.9-.9 2 .3 3.9.6 5.9.9z"/><path class="st7" d="M21.8 31.2c0 .8-.1 1.5-.1 2.3-1.1-.2-2.2-.3-3.3-.5.4-2 2-1.8 3.4-1.8zM343.6 87.1c-1.8-.2-2.2-1.3-2-2.9 1.4.4 2 1.5 2 2.9zM328.6 72.4c-1.4-.3-2.8-.5-3-2.3 1.6 0 2.6.8 3 2.3z"/><path class="st5" d="M251.7 44.1c-1.7 0-3.6.6-5-.9 1.6.3 3.3.6 5 .9z"/><path class="st3" d="M114.6 227.9v-1.6c.7.4 1.5.7 2.2 1.1-.7.2-1.5.4-2.2.5z"/><path class="st1" d="M95.8 40.2c.3.5.5 1.1.8 1.6-.6.3-1.3.5-1.9.8-.1-.6-.1-1.1-.2-1.7.4-.2.9-.5 1.3-.7z"/><path class="st7" d="M346.9 91.6c-1.8 0-1.5-1.2-1.4-2.3.5.7.9 1.5 1.4 2.3zM345.5 89.2c-1.4 0-1.8-.8-1.8-2.1.5.7 1.1 1.4 1.8 2.1zM100.7 189c.8.5 2.4 0 2.4 1.7l-.2.2c-.8-.5-1.7-1-2.5-1.5 0-.1.1-.2.3-.4z"/><path class="st3" d="M175.6 150.8c1-.2 2-.5 3-.7-1 .3-2 .5-3 .7z"/><path class="st7" d="M331.5 74.1c-1.4.3-2.5 0-2.9-1.6 1 .6 2 1.1 2.9 1.6z"/><path class="st3" d="M194.6 145c1-.3 1.9-.6 2.9-.9-.9.3-1.9.6-2.9.9z"/><path class="st7" d="M98.4 188c.7.3 1.5.7 2.2 1-.1.1-.2.3-.3.4-.7-.4-1.4-.8-2.1-1.1l.2-.3zM322.4 68.2c-.6-.4-1.3-.8-1.9-1.2.7.4 1.3.8 1.9 1.2zM354.8 132.6c-.3-.1-.5-.3-.7-.5.5-.7 1-1.4 1.4-2.2-.2 1-.5 1.8-.7 2.7z"/><path class="st5" d="M67.7 234.9c.6-.3 1.2-.5 1.8-.8-.6.3-1.2.5-1.8.8zM212.6 142.1c.3-.3.6-.6.9-1-.3.3-.6.7-.9 1zM52.7 45.2l-1 1-.2-.2c.3-.4.6-.7.9-1.1-.1 0 .3.3.3.3zM206.6 142c.4 0 .7-.1 1.1-.1-.4 0-.8.1-1.1.1z"/><path class="st3" d="M114.5 222.9l-.9 1.2.9-1.2z"/><path class="st5" d="M118.7 224.2l1-1c-.4.3-.7.7-1 1z"/><path class="st7" d="M323.8 69.1c-.4-.3-.8-.6-1.3-.9.4.4.9.6 1.3.9zM325.6 70.1c-.4-.2-.8-.5-1.2-.7.4.2.8.5 1.2.7zM341.5 84.1c-.3-.3-.6-.7-.9-1 .3.4.6.7.9 1z"/><path class="st6" d="M18.8 136.1c-.9-7 7.7-9.1 8-15.5l.9-1.5c.2-.2.2-.4.2-.7 2.2-3.8 4.3-7.6 6.5-11.4.1-.9.2-1.9.4-2.8 3.2 1.1 1.5 3.2.8 4.8-2.5 5.2-5.2 10.2-7.7 15.4-.3.6-.4 1.4-.6 2.1.7-.2 1.5-.3 2.1-.7 3-2.5 5.5-2.6 7.3 1.4-3.2 1.8-1.2 3 .7 3.3 2.9.4 5.9.3 8.9.3-1.4 4.2-6.1 4.6-8.6 7.5-.3.3-.6.5-.9.8-1.6.3-2.7 3.1-4.6.8-.6-.7.1-2.9-1.8-1.9-.5.2-.3 2.1-.3 3.2-1.4.1-2.8.1-4.2.2-1 0-2 .1-3 .1-3.2-.6-2.7-3.7-4.1-5.4z"/><path class="st2" d="M4.9 170c.6-1.3 1.2-2.5 1.8-3.8-.1-.7-.1-1.5-.2-2.2h-.1c8.8 1.5 16.9 12.2 18 23.5.3 3.5.7 7 1.1 10.5-2.6 1-5.2 2.2-7.8 2.8-1.3.3-3.5 2.7-4.2-.8 1.5-3.2 1.7-7.5 7.6-5.6 1.9.6.4-1.6-.4-2.3-.7-.6-1.5-1.1-2.3-1.7-.7-1.5-1.3-3.1-2-4.6 0-.8.1-1.5.1-2.3.1-.4.3-.9.4-1.3 2.1-1 1.5-1.7-.3-2.3-1.7-2.7-3.3-5.5-5-8.2-2.1-.5-4.4-1.1-6.7-1.7z"/><path class="st6" d="M10.5 130c-3.6-.5-5.8-2.6-6.8-6.1 4.3 1 9.3 3.1 7.4-5.1-.2-.8 1.7-2.5 3-3 2-.8 1.2 1.3 1.6 2.1.4 1.1 1.6 1.2 1.8.4 1.7-6 6.9-10 9.1-15.7.2-.4-.6-1.1-.9-1.7-.7-1.6-2.2-3.4 1-3.9 3.5 2 3.1 6.1 5.1 9-.7 4.6-3.5 8-6.8 11-2 7.7-10.1 8.3-14.5 13zM15.3 154c.2-.9.4-1.7.6-2.6.2-.4.5-.9.7-1.3.3-.4.6-.7 1-1.1l6.9.9c-2.2 3.3-.3 5.5 2.5 5.9 3.4.5 7.1-.2 10.7-.4.4.2.8.3 1.2.5-.1-.4-.2-.8-.3-1.1-.3-.5-.6-1.1-.9-1.6 5.3-.9 1.9 5.1 4.8 6.1-.9.5-1.8 1.1-2.7 1.6-8-1.8-17.1 2.2-24.1-4.8-.1-.7-.2-1.4-.4-2.1z"/><path class="st2" d="M24.4 149.9l-6.9-.9c-.2-.3-.1-.5.2-.8.3-.3.6-.7.9-1l.1-.1 3.9-3.9c2 .3 4 .7 6 1l1.8.6c3 1.5 5.9 3 8.9 4.5.4.4.9.7 1.3 1.1 2.6 3.5 4.6 7.7 8.7 9.9 2.2 3.9-2.9 3.7-3.5 6-2.3-1.7-2.9-4.3-3.4-7-2.9-1 .5-7-4.8-6.1h-1.8c-.4-.3-.8-.6-1.3-.9v.1c-.1-1.9-.6-2.4-2-.7-2.9-.1-4.5-5.4-8.1-1.8z"/><path class="st13" d="M41.6 210c-3.7-.4-4.3-6.3-9-4.9h-3.9c4.3-4.6 1.1-9.6.9-14.5 2.6.9 5 2.8 8.1 1.8 1 .3 3.9-.8 2.8.7-4.6 6.2-.3 11.4 1.1 16.9z"/><path class="st7" d="M42.4 159.2c.5 2.6 1.1 5.2 3.4 7 .7 3 1.3 5.9 2 8.9l-.6 3.9h-2.5c-2.9-2.1-7.4-2.3-8.2-7 2.2-1.3 2.6.7 3.7 1.9 1 1.1 2.8 2.2 3.3-.3.6-2.7.5-6.6-1.7-7.8-2.9-1.6-1.6 2.5-2.8 3.6-.2.2-1.1-.3-1.6-.5-1-3.2 2.7-5.2 2.3-8.3.9-.3 1.8-.8 2.7-1.4z"/><path class="st13" d="M29.6 166.9c2.1.9 4.5 1 4.2 4.7-.4 4.7-4.6 1.7-6.2 3.7-1.6.1-3.4-.5-2.6-2.3 1.1-2.2.2-6.2 4.6-6.1z"/><path class="st6" d="M44.8 179.1h2.5c.2.4.5.8.7 1.2.2.9.4 1.9.6 2.8.4 1 .7 2 1.1 3.1 0 .3.1.7.1 1 .2 3.1-1.7 4.9-4 6.4.5-1.3 1.8-3.3 1.3-3.9-2.7-3.4-1.8.6-2.5 1.4l-.6-.3c-.1-1.1-.1-2.2-.2-3.3.8-2.2 1-4.4-1.1-6.2 0-.4-.1-.8-.1-1.2.3-.2.6-.5.8-.7.5-.1.9-.2 1.4-.3z"/><path class="st7" d="M7.6 142.2c-.4-2.6.9-4.4 3.2-4.7 1.3-.2 3.5.4 3.7 2.5.1 2.5 2.5 5.6-1.8 7-2.2-1.1-1.6-5.2-5.1-4.8z"/><path class="st3" d="M37.4 169.1c.6.2 1.4.7 1.6.5 1.2-1.1 0-5.2 2.8-3.6 2.2 1.2 2.3 5 1.7 7.8-.5 2.4-2.2 1.3-3.3.3-1.1-1.1-1.5-3.2-3.7-1.9-1.4-1.5-1.1-2.6.9-3.1z"/><path class="st5" d="M29.6 190.6c.2 4.9 3.4 9.9-.9 14.5-1 .3-1.9.7-2.9 1 3.2-4.4 3-9.1 1.6-14-.3-1-1.3-2.3.5-2.8.4-.1 1.1.8 1.7 1.3z"/><path class="st3" d="M7.5 142.1c3.5-.3 2.9 3.8 5.1 4.9.2 1.1.5 2.1.7 3.2-4.7-.6-7.7-2.6-5.8-8.1zM24.9 117.1c3.3-3 6.1-6.4 6.8-11 .9.3 1.8.6 2.7 1-2.2 3.8-4.3 7.6-6.5 11.4-1-.5-2-.9-3-1.4z"/><path class="st5" d="M29.6 166.9c-4.5-.2-3.5 3.9-4.5 6.2-.8 1.8.9 2.3 2.6 2.3-1.1 1.5-2.6 2.6-4 1-2.4-2.8.1-5.6.9-8.2.8-2.9 2.9-2.5 5-1.3zM22.6 143.2l-3.9 3.9c.1-3.7.1-7.3.2-11 1.4 1.8.9 4.8 3.9 5.5-.2.5-.2 1-.2 1.6z"/><path class="st7" d="M42.7 181.3c2.1 1.8 1.8 3.9 1.1 6.2-1.9-1.9-1-4.1-1.1-6.2z"/><path class="st5" d="M15.3 154l.3 2.1c-.6-.4-1.1-.7-1.7-1.1.5-.3 1-.7 1.4-1z"/><path class="st7" d="M43.4 179.4c-.3.2-.6.5-.8.7-.5-1.3.3-.8.8-.7z"/><path class="st5" d="M16.6 150.1c-.2.4-.5.9-.7 1.3.2-.4.4-.9.7-1.3zM18.6 147.2c-.3.3-.6.7-.9 1 .3-.3.6-.7.9-1z"/><path class="st3" d="M27.7 119.1l-.9 1.5.9-1.5z"/><path class="st6" d="M71.7 227.9c-.7.9-1.5 1.8-2.2 2.7-6.2-.2-11.9 3.1-18.4 1.8-5.8-1.1-12.5-1.8-16.6 4.7-1.9-.6-3.8-1.3-5.7-1.9.9-1.2 5.4-.9 1.8-4.1 1.9-3 4.9-2.8 7.9-3 7-.5 14.3 1.7 21.1-1.5 2.1-.5 4.2-1 6.2-1.4 2.2.4 5.5-1.5 5.9 2.7z"/><path class="st3" d="M30.5 231.1c3.6 3.2-.9 2.9-1.8 4.1-2.7 1.4-5.5 2.7-8.2 4.1-1.9-2-3.3-3.5 1.1-4.3 3.1-.6 5.9-2.6 8.9-3.9z"/><path class="st7" d="M20.5 239.3c2.7-1.4 5.5-2.7 8.2-4.1 1.9.6 3.8 1.3 5.7 1.9-3.6 5.6-9.6.3-13.8 3.1-.1-.3-.1-.6-.1-.9z"/><path class="st5" d="M37.9 218.1c1.6.2 1.7 1.4 1.8 2.6-.9.2-1.8.5-2.6.7-.2-.1-.3-.2-.4-.3.3-1 .8-2 1.2-3z"/><path class="st7" d="M12.6 240.7c-.3.1-.5.1-.8.1 0 0-.1-.2-.2-.3.3-.1.5-.1.8-.2.1.1.1.3.2.4zM17.7 241.7c-.3.1-.6.2-.8.2-.1 0-.2-.2-.3-.3.3-.1.6-.2.8-.2.1 0 .2.2.3.3z"/><path class="st1" d="M34.4 107c-.9-.3-1.8-.6-2.7-1-2-2.8-1.6-7-5.1-9-1.8-3-6.5-4.6-5.9-8.3 1.1-7.4-2.3-6.5-6.9-4.6-.2.3-.4.6-.5.8v4l-.3.3c.1.2.3.5.4.7.7.3 1.5.5 2.2.8 0 .7-.1 1.4-.1 2-1 .1-2.1.1-3.1.2-.6-.1-1.3-.3-1.9-.4l-1.8-.6c5.5-5.5-1.6-10-1.2-15 3.8 1.2 3.7-2.4 5.2-4.1 1.3.3 1.8 3.2 3.9 1.3.7.1 1.3.2 2 .3 2.8 3.8 4.9 7.9 5 12.7 0 2 .5 3.6 2.7 4.2.5 2.3 1.5 4.1 3.8 4.9.9 1.2 1.7 2.4 2.6 3.6-.5 1.1-.9 2.2 1 2.2.4.7.8 1.4 1.1 2.1-.1 1.1-.3 2-.4 2.9z"/><path class="st11" d="M10.5 92.7c.6.1 1.3.3 1.9.4l.3 4.2c.2 2.3-.8 3.2-3 2.8-.2-1.8-1.5-2.1-3-2l-.1-.1c-.7-5.8-1.2-11.6-2.2-17.4-.5-2.9.6-3.5 3-3.5-.3 5.1 6.7 9.5 1.2 15 .4 1.2 1.2 1 1.9.6z"/><path class="st7" d="M13.9 84.3c4.5-1.9 8-2.9 6.9 4.6-.5 3.7 4.1 5.3 5.9 8.3-3.3.5-1.8 2.3-1 3.9-1.2.2-2.2.6-2.1 2.1-4.1-1.6-.5-6.6-4-8.7-1.4-.8-1.8-3.2-3.9-3.5-.7-.3-1.5-.5-2.2-.8-.1-.3-.1-.7-.2-1v-4c.3-.4.4-.6.6-.9z"/><path class="st4" d="M12.7 97.3l-.3-4.2c1-.1 2.1-.1 3.1-.2 1.2 2.5 2.3 5.1 3.6 7.6 1.5 3.1.3 6.1-1.4 8.1-.8.9-1-2.1-1.2-3.3-.1-1 .2-2 .1-3-.3-2.3 1.3-6.3-3.9-5zM6.7 98.1c1.5-.1 2.8.2 3 2-1.7.4-3.1.2-3-2z"/><path class="st7" d="M23.6 103.1c.1.1.2.2.4.2-.2 0-.3-.1-.4-.2z"/><path class="st6" d="M37.9 218.1c-.4 1-.9 2-1.3 3-2.5-.4-8.2 3.1-5-4.1.1-.3-.4-.8-.7-1.2-.8.5-1.8.8-2.3 1.5-2.2 3.3-5.6 5-8.6 7.4-4.1 3.2-7.7 3.9-11.6.1 1.3-1.2 3.9-1 4.1-3.6 4.7-.3 7.7-3.4 10.6-6.7 4.2-.9 9 .8 12.7-2.5.3.7.5 1.4.8 2.1.2.5.4 1 .6 1.4.3.9.5 1.7.7 2.6z"/><path class="st2" d="M71.7 227.9c-.4-4.2-3.7-2.4-5.8-2.8 3.6-7.5 7.1.7 10.6 0-.8 2.4-3.2 1.9-4.8 2.8z"/><path class="st5" d="M30.5 207.7c-.7.1-1.3.3-2 .4.6-.9 1.2-1.1 2-.4zM37.3 215.5c-.2-.5-.4-1-.6-1.4.2.5.4.9.6 1.4zM35.6 211c-.3-.3-.6-.6-.8-.9.3.3.5.6.8.9z"/><path class="st3" d="M23.1 214.4c-2.8 3.3-5.8 6.4-10.6 6.7-1-.4-2.9.2-2.7-1.4.3-1.7 1-3.4 3-4.2 3.5-1.3 6.9-1.5 10.3-1.1z"/><path class="st13" d="M2.8 201.1c-.3-4.8-1.3-9.7 1.8-14 7.3 5.4 6.8 9-1.8 14z"/><path class="st6" d="M4.9 170c2.3.6 4.5 1.2 6.8 1.7-1.8 2.2-4.9 3.7-4 7.3-.5.1-1 .3-1.5.4-.9-.1-1.9-.2-2.8-.3-.6-3.1-1.3-6.4 1.5-9.1z"/><path class="st7" d="M6.2 179.5c.5-.1 1-.3 1.5-.4.9 5.6 6.9 1.1 8.9 4.5 0 .8-.1 1.5-.1 2.3-3.2-.5-7.4-2.1-3.9 4-3.8-2.4-3.9-7.2-6.4-10.4z"/><path class="st6" d="M12.7 189.9c-3.5-6.1.7-4.5 3.9-4 .7 1.5 1.3 3.1 2 4.6-2-.2-4-.4-5.9-.6z"/><path class="st2" d="M9 203.2c-2.7-.2-2.9 8.9-7.4 2 2.3-1.3 4-4.7 7.4-2z"/><path class="st11" d="M55.5 59.8c-.7 1.1-1.4 2.2-2 3.3-.2.4-.5.8-.7 1.1-.4.7-.7 1.5-1 2.2-.8 4.7 3 1.7 4.4 2.6-1.4 2.6-.8 6-3.6 8.1.7-4.1.8-7.7-5.2-7.1-1.4.2-2.6-.8-2.7-2.4-.1-1.8 2.1-4.8.2-5.1-2.4-.4-2.6 3.3-3.7 5.2-2 3.4-5.1 5.4-8.8 5.8-1.1.1-3.3-2.2-3.6-3.6-1.4-9.3-4.1-4.1-6.8-.8-.7.8-1.7 1.3-2.6 2-2.3.4-4.8-1-6.8 1.1v.1c-1.8-1.5-6.8-1.8-6-2.5 3.3-2.8 2.7-8.9 8-9.8h1.9c.2-.1.4-.1.6-.2h.2c1.9.8 4.5-1.6 6 1.2 2 2.6 3.9.6 5.9 0l1.2-.9c1.3.1 2-.6 2-1.9l1.1-1.1c.3-.3.6-.6 1-.9l.1-.1c.3-.3.6-.7.9-1 .3-.3.6-.7.9-1V54c2.7-.5 3.5-2.6 4-4.9 3.2 1.2 3.9-4.6 7.4-2.7l-1.5 2.7c-.3.7-.6 1.3-.9 2-.3.5-.6 1-.8 1.4-.3 1.8-.7 3.6-1 5.4-1.9-1.6-3.8-2.9-5.9-.4-1.9 2.2-3.2 4.8-1.4 7.7.5.9 2.6 1.4 2.5 1.2-2.7-5.4 5.2-4.6 4.8-8.5 1.6 1.3 2.5-.6 3.8-.9 3.1.5 6.1.8 5-4 1.9 1.9 3.1 4.1 3.1 6.8zm-5.4 6.9v.7c.1-.1.2-.2.2-.3 0-.1-.1-.2-.2-.4z"/><path class="st5" d="M16.6 74.2c-2.1 2-2.6-.9-3.9-1.3v-.6-.1c1.5.2 3.6-.6 3.9 2z"/><path class="st1" d="M6.6 164.1c.1.7.1 1.4.2 2.2-.4-.1-.8-.1-1.3-.2-.6-1.2.2-1.6 1.1-2z"/><path class="st1" d="M5.6 166c-.4 0-.8-.1-1.2-.1.4.1.8.1 1.2.1z"/><path class="st9" d="M163.6 16.1c3 1.4 6.8 3.3 6.2 6.5-.8 4.7-5.4 7.1-9.3 9.5-4.7-.9-5.2 2.8-5.6 5.7-.4 2.7 2 4.3 4.3 4.3 3.2 0 7.7 1.9 8.2-4 2.1-1.3 4.1-2.7 6.2-4 6.5 1.5 12.5-3.9 19.1-1.2 1.2.8 2.5 1.5 3.7 2.3l.1.1c.4.6.8 1.1 1.2 1.7.2.3.4.6.6.8.4 3.8.9 7.6 1.3 11.4-1.1 2.3-3.7 4.3-.3 7.1 3.2 2.6 4.3.1 6.2-1.6 2.2-2.1 4.8-3.5 7.9-3.5 7.2.8 8 8.6 12.9 12l.2.1c0 1.4.4 2.5 2 2.7l.1.2c.3 2.5 1.5 2.2 3.1 1 5.1-1.9 9.3-6 15.7-4.2 4.2 1.2 2.9 6.7 7.1 7v3.8c-2.4-1.9-4.9-.7-5.3 1.3-.7 3.2 3.4 1 4.5 2.7h-9.1c-3.5-1.2-2.1-2.9-.1-3.7 3.1-1.3 4.6-3 2.5-5.9-4-5.4-8.3-1.4-12.4.1-2.4.9-4.3 2.7-2.2 5.3 2.6 3.3 2.1 6.8 1.2 10.4-2.8-.4-4.8 1.5-7.1 2.6-3.8 1.8-6.6 1.5-6-3.8 3.7 3.3 6.6 1 9.1-1.5 2.8-2.8-.3-4.9-1.6-6.9-3.8-5.8-7.8-11.4-11.9-17-1.9-2.6-4.6-3.6-7.4-1.7-2.7 1.8-4.1 4.1-2.1 7.6 2.2 3.9 1.8 8.4-1.9 10.7-4.7 2.9-4 7.3-4.9 11.2-.5 2.5 1.6 3.9 4.1 3.9 2.2 0 3.7-.8 3.8-3.5.1-2.1.4-4.4 1.1-6.3 1-2.7 3.1-4.1 6.2-3.9 3.2.2 3.6 2.4 3.7 4.8-2-.3-3.3-3-5.7-1.4-2.3 1.6-1.6 3.9-1.3 5.9.6 3.3-1.4 5.3-3.7 6.3-3 1.3-6.4 2-9.5-.3-2.4-1.8-3.3-4.5-2-7.1 3.3-6.8.4-10.8-5.5-13.8-1.1-.6-2.2-1.1-3.3-1.6.1 1.1.2 2.3.3 3.4.5 5.8-1.8 9.1-7.9 9.7-4.6.5-8.8.9-9.8-5.1-.8-4.4-1.5-8.7-2.3-13.1-.4-2-.8-3.1-3.5-2.2-3.2 1-6.7 1.6-10.1.3l1.8-2.4c1.5.1 3.1.7 4.4.3 4.1-1.2 7.9-3.2 7.8-8.2 0-4.6-3.2-5.7-7.2-5.4-4.4.3-9.8.8-10.5-4.8-.7-5.6 2.2-10.2 8.5-11.6 1.6-.4 4.7-.9 3.8-2.9-1-2.3 1.7-5.7-1.9-7-2.6-.9-5.4-2.1-7.9.2-1.4 1.3-2.3 3.3-3.9 4.5-10.2 7.9-11.8 21.8-3.6 32.1-1.3.1-2.6.2-3.8.3-1-1.8-2-3.5-2.9-5.3-.1-.6-.3-1.1-.4-1.7-3.2-4.4.1-8.9-.1-13.4 0-.6 0-1.1-.1-1.7.4-1 .9-2 1.3-3.1 2.3-.7 1.6-2.6 1.7-4.2 6.5-5.7 11.1-14.7 22.2-10.8zm21.6 19.8c-2.5.5-6.2 1-9.7 1.8-4.9 1.1-7.6 3.2-4.2 8.6 1.7 2.7.7 5.6 0 8.6-1.8 7.8 1.5 15.1 3.6 22.4.2.6 2 1 3 1 7.4-.1 7.4-4.7 5.6-9.9-.8-2.2-1.7-3.7.7-5.5 2.2-1.6 3.7-.6 5.3.6 2.7 2 5.2 4.1 7.9 6.1 1.8 1.3 3.9 3.4 6 .8 2-2.5 1.8-5.3-1-7.4-1.6-1.2-3.2-2.4-4.9-3.4-3.6-2.2-5.6-4.2-2.7-9.1 4-6.6-1-14.6-9.6-14.6z"/><path class="st8" d="M211.4 94.1c14-4.5 3.6 10 9.3 12-1 .4-2.1.7-3.1 1.1-6.4-3.5-11.8 1.7-17.8 2.1-4.6.3-9.6-.5-14 1.2-4.4 1.8-8.6 3.4-13.3 3.7-.1-.3-.1-.6-.2-.9-2.7-4.5-.5-11.2-6.2-14.4-1.2-2.2-1.7-5.5-5.5-4l-13.8 1.2c-1-.5-2.1-1-3.1-1.5-.3-1.5-.7-2.9-1-4.4l23.4-8.4c2.2 3.9 4.6 7.4 9.7 7.1 3.2.2 6.4.5 9-2l-.1.1c5.2-1.7 4.6 2.7 4.8 5.2.3 3.5 1.4 5.7 5.2 6l1.8.3c2.1.4 4.4 1.4 6.3.9 3.4-.8 8.8 1 8.9-5.5l-.3.2z"/><path class="st12" d="M170.4 75.9c1 6 5.2 5.6 9.8 5.1 6.1-.6 8.4-3.9 7.9-9.7-.1-1.1-.2-2.3-.3-3.4 1.1.5 2.2 1.1 3.3 1.6 5.9 3 8.8 7 5.5 13.8-1.3 2.6-.4 5.3 2 7.1 3 2.3 6.5 1.6 9.5.3 2.3-1 4.3-3 3.7-6.3-.3-2-1-4.4 1.3-5.9 2.4-1.6 3.8 1.1 5.7 1.4.6.9 1.2 1.9 1.8 2.8-.6 5.3 2.3 5.6 6 3.8 2.3-1.1 4.3-3 7.1-2.6 1.6 1 3.1 2 4.7 3 1.1.7 2.3 1.5 3.4 2.2-3.1 2.8-5.4-2.2-8.3-.9-1.3.6-2.6 1.3-3.9 1.9-5.1 3.1-5.7 10-1.1 13.7 4.9 4 20.3 1.9 26.1-3.7 6-3.2 5.6 2.2 5.7 4.9.3 5.9 2.9 8.2 8.5 6.7 5-1.4 9.2-3.6 5.4-10-1-1.7-.1-2.8 1.3-3.6 4.2-.8 4.1 2.7 4.6 5 1.7 8 6.2 7.2 11.7 4.2.9-.4 1.8-.7 2.7-1.1l1 1c.1 3.4 2.5 1.4 4 1.6.3.1.6.2 1 .3-1.1 2-2.1 4-3.2 6-1.1-.3-2.3-.7-3.4-1-1.1-.4-2.3-.8-3.4-1.2-.3 0-.6 0-.9.1-3.2 1.5-5.9 1.7-8.2-1.8-1.3-1.9-3.7-2.8-4.4.2-1.2 4.8-4.9 5.2-8.5 5-4.1-.1-8.8.3-10.8-5.2-1.2-3.4-2.7-5.4-7.3-2.9-7.9 4.1-25.7 1.9-28.6-7.3-.2-2-.5-4-.7-5.9 0-2.1.7-4.4-2-5.5-.6-.2-1.1-.5-1.7-.7-3.3.2-6 1.1-6.2 5.1h.1c-2 1-4 2.1-5.9 3.1-1.3 0-2.7-.1-4-.1-3-1.3-6.9.2-9.3-3 .2-1.7 1-3.5-.8-4.9-2-2.4 2.5-7.4-2.7-8.1-3.1-.4-4 3.2-4.4 6l.1-.1c-3 0-6 0-9-.1-2.3-1.3-5.4-1.6-5.9-5 1.4-1.5.2-2.1-.9-2.7l-.2-.3c1.3-.6-1.3-3.6 2.1-2.9z"/><path class="st14" d="M217.6 107.1c1-.4 2.1-.7 3.1-1.1 5.4 5.9 13 5.6 19.9 7.2.7.7 1.6 2.2 2 2.1 1.5-.5.1-1.4 0-2.1 5.5-1.5 10.9-5 15.2 3.2 2 3.9 8.6 4.1 12.4 2.5 6-2.5 11.9-2.5 18.1-2.5 6 0 4.5 5.6 6.4 8.7-2.5.8-5 .9-7.6 0-3.1-1-6.3-1.7-9.5-2.5-.7.5-1.3.9-2 1.4-4.3-.3-8.5-.6-12.8-1-3.4-.4-7.7 2-8.9-4.4-.6-3.2-2.3.3-3.3 1.5-1.8 1.7-3.6 3.5-5.4 5.2-5.7.7-11.5 1.1-17.2 2.3-4.1.8-4.8-.1-3.7-4 .8-3 3.6-8.4 2-8.7-5.4-.8-2.3 5.5-4.6 7.9-3.1 1-2.5 4.4-4.3 6.3l-17.7 3.9c.1-1.5 0-3.5 1.9-3.5 6.4 0 8.9-5.9 13.7-8.5 5.4-2.9 5.5-8.5 2.3-13.9zm22 12.7c1.5-.3 4.2 1.1 3.5-1.1-.5-1.5-3.8-2.1-5.9-2.9-.6-.2-2.7-.7-1.9.8.8 1.4 1.3 4.6 4.3 3.2z"/><path class="st15" d="M294.6 59.2c.7.2 1.5.4 2.2.6.5 1.5 1.8 1.2 2.9 1.3 7.9 1.5 13.3 7.3 19.9 11.2-.7 2.4-1.5 3.7-4.8 3.1-4.5-.8-7.7-3.8-11.3-5.7-8.3-4.5-16.7-7.8-26.2-9.2-8.6-1.3-16.6-6.7-25.7-2.3-6.6-.2-13-1.3-19.8.9-4 1.3-3.6-5.5-6.3-7.8 1.9-2-4.1-4.2.1-6.1 6.4-.3 12.7 0 18.9 1.3 5.8 2.6 11.7 4.2 18.1 3.7 1.1 1.5 2.6 1 4 1 1.4 1.8 3.2 2.3 5.4 1.7.9.1 1.7.2 2.6.4.5.2.9.5 1.4.7.6 0 1.2.1 1.7.1.4 3.6 10.9 6.9 16.9 5.1zm-11.7 0h.4l-.1-.4-.3.4z"/><path class="st1" d="M300.5 109.2c-.3-.1-.6-.2-1-.3-1.3-.5-2.7-1.1-4-1.6l-1-1c-.9.4-1.8.7-2.7 1.1-.4-.7-.8-1.4-1.2-2 1.1-.6 2.3-1.5 1.6-2.7-3.9-6.5-1-14.1-3.8-20.7-1.5-3.4-.4-9.3-7.3-7.4-6.7 1.8-3 6.6-2 9.6.9 2.8.2 3.2-1.9 4.2-7.6 3.6-7.6-1.4-7.7-6.5-.1-2.2 0-4.8-3.2-4.4-2.8.4-6.9 2-6.4 4.4 1.7 8 0 16.4 3.2 24.2 1.4 3.4 3.9 3.8 6.9 2.9 3-.9 2.4-3 1.4-5.1-2.1-4.4-.5-6.5 4.1-6.9v1.3c-1.4.9-2.3 2-1.3 3.6 3.8 6.4-.4 8.6-5.4 10-5.6 1.6-8.2-.7-8.5-6.7-.2-2.7.3-8.1-5.7-4.9-.7-.3-1.3-.6-2-1 9.3-7.3 8.3-13.7-3-19.2-1.3-.6-2.7-1.2-4-1.8-.3 0-.6-.1-.9-.3h9.1c2.4 2 4.6 1.2 6.7-.5 2.7-2.1 5.7-3.2 9.1-3.3.2.1.5.1.7 0 3.5 4.2 4.1 4.3 4.3 3 .9-5.2 5.4-4.9 8.9-6.2 1.3 0 2.6-.1 4-.1l.4.2c1 2.4 2.7 4.7 3 7.2 1 7.9 4.3 12 12.8 8.7 2.2.5 4.1 1.6 4.4 4 .5 4.1.8 8.3 1.1 12.5-1.2 1.2-2.4 2.5-3.7 3.7-1.7.6-3.4 1.3-5 2zm4.6-12.4c-1-1.6 2.7-7.3-3.7-6.5-3.1.4-8.6.2-8.1 5 .4 4.2.7 10.4 7 10.6 5.1.2 5.8-3.9 4.8-9.1z"/><path class="st14" d="M251.6 58.1c9.1-4.4 17.1 1 25.7 2.3 9.5 1.5 17.9 4.7 26.2 9.2 3.6 2 6.8 4.9 11.3 5.7 3.3.6 4-.8 4.8-3.1 2.3.5 4 1.7 5.3 3.6-7.7 1.4-2.7 5.8-2.1 9.1-7.7.3-12.4-4.7-17.2-9.5-3.3-3.4-5.9-8.1-12-6.4-5.7-7.4-13.1-4.4-19.3-1.9-5.1 2.1-10.7 1.5-15.5 4.2-.4.2-1.1-.1-1.6-.2 3.2-6.5-4.6-8.3-5.6-13z"/><path class="st11" d="M293.5 69.1c6.1-1.7 8.7 3.1 12 6.4 4.8 4.9 9.6 9.8 17.2 9.5 6.1 1.9 8.8 7.1 12 12-4-1.5-8.1-2.9-12.1-4.5-1.5-.6-.8-4.2-3.7-2.9-2.3 1.1-2.4 3.3-2.4 5.5-.2 4.3 2.6 8.8-.7 12.8l-.1.1c-2.4-3.4-.6-7.1-.8-10.6-.4-9.8-4.6-13.7-14.3-14.1-4.5-.2-3.6-5.2-4.5-8.3 1.8-.5 1.9-1.9 1-3-.8-1-1.3 0-1.5.9-.7-1.3-1.4-2.6-2.1-3.8z"/><path class="st14" d="M336.3 145.7c-.8-4-3.2-6.7-6.7-8.6-.4-.3-.7-.6-1.1-1-.6-.4-1.2-.8-1.9-1.2h.1c-.3-1.9-1.3-2.9-3.3-2.7-1-.3-1.9-.6-2.9-.9-1.3-1.6-3.1-2.1-5.1-1.9-.6-.1-1.2-.1-1.8-.2-.5-1-1.2-1.3-2.1-.4-.5 0-1-.1-1.5-.1-.5-.6-.9-1.1-1.4-1.7 4.5-.4 6.8-3.7 9-7 1.7 1 2.7 4 5.6 1.4 1-.9 2.1-.3 1.9 1.5-.7 5.4 2.1 6.3 6.5 5 3.4 4.3 5.9 9.3 11 12 0 .3.1.6 0 .9-.3 1-.7 2.1-1 3.1-1.4 1.9-3.1 2.7-5.3 1.8z"/><path class="st15" d="M334.7 97c-3.2-4.8-5.9-10.1-12-12-.6-3.4-5.6-7.7 2.1-9.1 9.4 5.1 15.3 13.4 20.4 22.3-3.2 2.1-6.4.1-9.6-.2-.2-.3-.5-.7-.9-1z"/><path class="st12" d="M198.2 37.9c-.2-.3-.4-.6-.6-.8-.4-.6-.8-1.1-1.2-1.7l-.1-.1c.1-.7.2-1.4.2-2.1v.1c4.1 0 5.1 3.5 7 6.1-.4 2.3-.7 4.6-1.1 6.9-1.1.9-1.3 1.9 0 2.9 4.5-.4 9-1 13.5-1.2 2.6-.1 5 .7 5.1 4.1-2.5-.3-5.1-.5-7.6-.8-3.2 0-5.8 1.5-7.9 3.5-1.8 1.8-3 4.2-6.2 1.6-3.5-2.8-.9-4.8.3-7.1 2-4.1 1.6-7.9-1.4-11.4z"/><path class="st9" d="M300.5 109.2c1.7-.7 3.3-1.4 5-2.1 1.4.4 2.8.9 4.1 1.3 1 1.2 2 2.3 3 3.5-1.2 7.8-4.6 12.1-13.2 8.3-.7-1.7-1.4-3.4-2.2-5.1 1.2-1.9 2.2-3.9 3.3-5.9zm7.7 6.1c-.3-1.9-1.3-3.3-3.5-3.3-2 0-3.7 1.1-3.8 3.1-.1 2.2 1.9 2.8 3.8 3.1 2.1.3 3.1-.9 3.5-2.9z"/><path class="st12" d="M254.6 70.1c-4.2-.3-3-5.8-7.1-7-6.5-1.9-10.7 2.2-15.7 4.2-1-.3-2-.7-3.1-1l-.1-.2c.1-1.5-.5-2.5-2-2.7l-.2-.1c.1-.8.2-1.5.3-2.3 4.5 3.4 7.9-.7 11.7-1.8 5.7-1.6 17.6 2 16.2 10.9z"/><path class="st11" d="M331.6 128.1c-4.4 1.3-7.3.4-6.5-5 .2-1.8-.9-2.4-1.9-1.5-2.8 2.6-3.9-.4-5.6-1.4.3-4.2.5-8.3-2-12l.1-.1c4.8 2 3.9 9.4 10 10.4 5.6.8 6.3 4.9 5.9 9.6z"/><path class="st14" d="M335.7 98c3.2.3 6.3 2.3 9.6.2 3.8 6.5 6.7 13.2 6.1 20.9-4.2 2.5 1 9.1-4.8 11 .7-4.1 1.3-8.1 2.2-12.1 2.1-9.8-2.1-15.6-12.2-16.8-.3-1.1-.6-2.1-.9-3.2z"/><path class="st15" d="M346.6 130.1c5.8-1.9.6-8.5 4.8-11 2.2 4.7-.8 9.4-.2 14.1-4.3 2.2-.3 6-1.7 8.8-2.3-.3-4.6-.7-6.9-1v-.9c1-3.3 2-6.6 3.1-9.9.3 0 .6 0 .9-.1z"/><path class="st12" d="M269.6 74.1c-3.4.1-6.4 1.2-9.1 3.3-2.1 1.7-4.3 2.5-6.7.5-1.1-1.7-5.1.5-4.5-2.7.4-2 2.9-3.2 5.3-1.3 4.4 1.4 8-2.1 12.2-2.2 2.4-.1 3.5-.4 2.8 2.4z"/><path class="st10" d="M225.6 45c-4.3 1.9 1.7 4.1-.1 6.1-4.1-5.1-9.7-5.7-15.6-5.2-1.7.1-4.3.3-3.8-2.4.4-2.3 2.7-1.5 4.1-1 5 1.9 10.8-1.4 15.4 2.5z"/><path class="st12" d="M283.5 71c-3.5 1.3-8 .9-8.9 6.2-.2 1.3-.8 1.2-4.3-3 4.4-3 8-7.8 14.3-7.1 2.6.3 5 .3 6.1 3.1-1 .3-1.9.7-2.9 1l-.4-.2c-1.3-1.5-2.6-1-3.9 0z"/><path class="st2" d="M287.9 71.1c1-.3 1.9-.7 2.9-1 .9 2.3 2.4 4.4 2.7 6.8 1 6 2.8 10.5 10.1 9.4v.6c-8.5 3.3-11.7-.7-12.8-8.7-.2-2.4-1.9-4.7-2.9-7.1z"/><path class="st12" d="M299.5 120.2c8.5 3.8 12-.5 13.2-8.3 4 4.1 1.6 10.4-4.8 12.8-.3 0-.7.1-1 .1h-4.2c-1.2-1.5-2.2-3-3.2-4.6z"/><path class="st10" d="M277.6 122.7c3.2.8 6.4 1.5 9.5 2.5 2.6.9 5.1.8 7.6 0 1.3.4 2.5.7 3.8 1.1-.6.4-1.3.8-1.9 1.2-1 0-2-.1-3-.1h-2.9c-4 0-8.1.1-12.1.1-2-1.4-.1-3.4-1-4.8zM294.6 59.2c-6 1.8-16.5-1.5-16.8-5.3 5.7 1.1 11.5 2.3 16.8 5.3z"/><path class="st7" d="M303.6 86.9v-.6c6.6-2 6.4 2.7 7 6.8-3.5 3 1.8 7.2-1.5 10.3-.4-4.2-.6-8.3-1.1-12.5-.3-2.3-2.1-3.5-4.4-4z"/><path class="st12" d="M309.1 103.4c3.3-3-2.1-7.3 1.5-10.3 1.4 5.2 2.8 10.4-1 15.3-1.4-.4-2.8-.9-4.1-1.3 1.2-1.2 2.4-2.5 3.6-3.7z"/><path class="st2" d="M226.5 60.9c-.1.8-.2 1.5-.3 2.3-4.8-3.4-5.6-11.2-12.9-12 2.5.3 5.1.5 7.6.8 1.9 3 3.8 5.9 5.6 8.9zM299.5 120.2c1 1.5 2.1 3.1 3.1 4.6-6.3-.8-7.7-5.6-8.6-10.7 1.1.3 2.3.7 3.4 1 .6 1.8 1.3 3.5 2.1 5.1z"/><path class="st10" d="M262.6 50.1c-6.4.5-12.3-1.1-18.1-3.7 6.1 1 12.4 1.2 18.1 3.7zM272 52.7c-2.2.6-3.9 0-5.4-1.7 2 .2 4.1-.4 5.4 1.7z"/><path class="st14" d="M295.6 72.9c.2-.8.7-1.9 1.5-.9.9 1.1.8 2.5-1 3-.2-.7-.3-1.4-.5-2.1z"/><path class="st5" d="M308.6 127.1c.5.6.9 1.1 1.4 1.7-1.4.1-2.9.2-4.4.3.1-2.1 1.6-2 3-2z"/><path class="st11" d="M242.6 113.2c.1.8 1.5 1.7 0 2.1-.4.1-1.3-1.3-2-2.1h2z"/><path class="st5" d="M221.2 95.2c.2 2 .5 4 .7 5.9-2.3-1.7-1.5-3.8-.7-5.9zM296.5 127.4c.6-.4 1.3-.8 1.9-1.2l3 1.8c-1.6-.2-3.2-.4-4.9-.6z"/><path class="st10" d="M266.7 51c-1.4 0-3 .5-4-1 1.3.4 2.6.7 4 1zM299.7 61c-1.2 0-2.4.2-2.9-1.3.9.5 1.9.9 2.9 1.3z"/><path class="st2" d="M202.4 49.1c-1.3-1-1-2 0-2.9v2.9z"/><path class="st5" d="M217.6 89c.6.2 1.1.5 1.7.7-.6-.3-1.1-.5-1.7-.7z"/><path class="st2" d="M289.6 113c.3 0 .6 0 .9-.1l-.4.1h-.5zM306.7 124.8c.3 0 .7-.1 1-.1-.3.1-.6.1-1 .1z"/><path class="st10" d="M276 53.8c-.5-.2-.9-.5-1.4-.7.5.2.9.4 1.4.7z"/><path class="st15" d="M199.6 133l17.7-3.9c-.6 1.3-1.2 2.6-1.7 4-2.7 6.4-9.3 5.1-14.2 7-3.5 1.3-7.2 2.1-10.8 3.1l-1.8-1.2c0-.3-.1-.6-.2-.9l1.2-2.7c3.8-6.3 6.6-12.8 6.8-20.3.7-.4 1.3-.7 2-1.1.4.7.7 1.3 1.1 2-.1.4-.1.7-.2 1.1-.3.3-.5.6-.8 1 0 .7-.1 1.3-.1 2-.3 1-.7 2-1 3-.3.7-.6 1.3-.9 2 0 1-.1 2-.1 3-.5.3-.9.7-1.4 1l1.5.9h2.9zM171.7 149.8c-2.1.5-4.1 1-6.2 1.5-3.8 1-5.8.3-3.8-4.1 3.1-2.8 1.3-7.7 4.7-10.3-.5 5.1 2.5 4.9 6 4.1 5.1-1.2 9.8-4 15.3-3.9-.4 1.3-.7 2.7-1.1 4-1.4 2-2.2 4.5-5 5.3-.4.2-.8.5-1.1.7h.1l-3.9 1.2c-.7.2-1.4.3-2.1.5-.3.2-.7.4-1 .5-.7.1-1.3.3-1.9.5zM221.6 122.9c2.3-2.4-.8-8.7 4.6-7.9 1.7.2-1.1 5.7-2 8.7-1.1 3.9-.3 4.8 3.7 4 5.6-1.1 11.4-1.5 17.2-2.3-1.5 5.2-5.3 7.1-10.3 7.8-5.4.7-10.8 2-16.1 3 1-4.5 1.9-8.9 2.9-13.3zM250.6 120.1c1-1.1 2.7-4.6 3.3-1.5 1.3 6.5 5.5 4.1 8.9 4.4 4.2.4 8.5.7 12.8 1-.3.7-.7 1.3-1 2-8.4 3.3-17.5 3-26.3 4.2-2.9.4-1.1-1.6-.8-2.5 1-2.5 3.5-4.5 3.1-7.6z"/><path class="st9" d="M221.6 122.9l-3 13.2c-2.3.3-1.8-2.3-3.1-3 .6-1.3 1.2-2.6 1.7-4 1.9-1.8 1.3-5.3 4.4-6.2zM274.5 126.1c.3-.7.7-1.3 1-2 .7-.5 1.3-.9 2-1.4.9 1.4-1 3.4.9 4.7-1.9 1.8-2.6-.6-3.9-1.3z"/><path class="st5" d="M315.4 129.5c2-.2 3.8.3 5.1 1.9-2.1.7-3.8 0-5.1-1.9z"/><path class="st3" d="M186.6 141.1c.4-1.3.7-2.7 1.1-4 .2-.1.4-.1.6-.1l1.5 1.5-1.2 2.7c-.7-.1-1.4-.1-2-.1z"/><path class="st5" d="M323.5 132.3c2-.2 3 .8 3.3 2.7-2 .2-2.9-.9-3.3-2.7z"/><path class="st3" d="M188.8 142l1.8 1.2c-.7.8-1.6 1.3-2.4.3-.2-.2.4-1 .6-1.5z"/><path class="st5" d="M311.5 128.9c.9-.8 1.6-.6 2.1.4-.9.9-1.5.6-2.1-.4z"/><path class="st3" d="M176.6 148.1l3.9-1.2c-.9 1.7-2.5 1.1-3.9 1.2z"/><path class="st9" d="M290.6 127.2h2.9c-.9 1.1-1.9 1.1-2.9 0z"/><path class="st5" d="M326.7 134.9c.6.4 1.2.8 1.9 1.2-.7-.4-1.3-.8-1.9-1.2z"/><path class="st3" d="M173.5 149.2c.3-.2.7-.4 1-.5-.3.1-.6.3-1 .5zM180.5 147c.4-.2.8-.5 1.1-.7-.4.3-.7.5-1.1.7z"/><path class="st5" d="M328.6 136.1c.4.3.7.6 1.1 1-.4-.3-.8-.6-1.1-1z"/><path class="st4" d="M55.5 59.8c0-2.7-1.2-4.9-3-6.8 3.5-5.7 8.9-9.6 13.4-14.4.5-.5 2-1 2.1-.9 1.1 1.3-.1 2.5-.7 3.5-3.6 5.7-9.7 10.2-8.9 18.1-.9.3-1.9.4-2.9.5z"/><path class="st3" d="M47.5 57c-1.3.3-2.1 2.2-3.8.9.3-1.8.7-3.6 1-5.4.3-.5.6-1 .8-1.4.3-.7.6-1.3.9-2l1.5-2.7c2.1-2.8 4.3-5.6 6.4-8.5.9 2.8-2.1 4.4-2.1 7-.3.4-.6.7-.9 1.1.3 2.5-6.6 4.2-.8 7.3-.9 1.2-1.9 2.5-3 3.7z"/><path class="st4" d="M47.5 57c1-1.3 2.1-2.5 3.1-3.8.6-.1 1.3-.2 1.9-.3 1.1 4.9-1.9 4.6-5 4.1z"/><path class="st12" d="M139.2 51c1 1.8 2 3.5 2.9 5.3 3.2 4.2 7.8 4.4 12.5 4.7 3.4 1.2 6.9.7 10.1-.3 2.7-.9 3.1.2 3.5 2.2l-2.3 2.3-.4-.3c-.3-.2-.6-.4-1-.5-5.1.1-10.1 1.5-15.2-.3-.9-.3-1.7-.6-2.6-.9-.7-.4-1.5-.9-2.2-1.3-.3-.2-.6-.5-.9-.7-.5-.3-.9-.5-1.4-.8-.5-.4-1.1-.8-1.6-1.2-.5-.4-1-.8-1.5-1.1-1.6-5.9-3.1-11.9-4.7-17.8.3-1 .5-2 .8-3 .3-.4.6-.7.9-1.1.8-.1 1.6-.2 2.5-.2.2 4.5-3.1 8.9.1 13.4.2.5.3 1 .5 1.6zM163.6 16.1c-11.1-3.9-15.7 5.1-22 10.9-4.5-.6-.8-3.2-.4-3.6 3.4-3.8 6.7-8 10.9-10.9 4.4-3 8.7-1.2 11.5 3.6zM167.5 38.2c-.5 5.9-5 4-8.2 4-2.4 0-4.7-1.6-4.3-4.3.4-3 .9-6.6 5.6-5.7-2.7 7.7 3.4 5.3 6.9 6zM192.7 32.9c-6.5-2.7-12.6 2.7-19.1 1.2 6-4.5 19.4-5.1 22.9-.9v-.1c-1.2 0-2.5-.1-3.8-.2zM139.9 31.2c-.4 1-.9 2-1.3 3.1-.6-.3-1.3-.6-1.9-1 .3-1.8.2-4.2 3.2-2.1z"/><path class="st2" d="M136.7 33.3c.6.3 1.3.6 1.9 1 0 .6 0 1.1.1 1.7-.8.1-1.6.2-2.5.2.2-1 .3-1.9.5-2.9z"/><path class="st13" d="M168.2 33.9c-.9 1.5-2.3 1.5-3.7 1.1-.1 0-.3-.6-.3-.6l3.3-1.5c.2.4.5.7.7 1z"/><path class="st1" d="M48 180.2c-.2-.4-.5-.8-.7-1.2l.6-3.9c4.7-.4 4.5-5.2 6.8-7.8 5.6-.5 10.9.3 16 2.7.4.5.8 1.1 1.2 1.6-.5 4.4-2.4 9.2 2.7 12.4v1.8c-1.8.6-3.6 1.4-5.4 1.8-1.4.3-3.2-2.2-4.2.1-.9 2 2.1 2.1 2.8 3.5.1.3.2.5.5.7.5 1.3.9 2.6 1.4 3.9-3 .9-8.6-5.8-8.8 3.1.2.4.4.8.5 1.2.1.6.2 1.2.4 1.9-1.7 4-4.1 7.2-9 6.9-2.5-1.7-2.3-4.3-1.9-6.7.5-3.7-1.1-5.1-4.4-5.5.1-.3.2-.6.1-.9 4.2-2.9 8.7-5 14-3.9.8-.2 1.6-.3 2.4-.5-.5-1.5-1.4-.6-2.2-.4l-.3-.9c4.2-3.1 2.7-5.3-1.2-6.8-2.7-1-6.8-3-8.1-1.9-2.7 2.2 3.9 2.4 2.5 5.4-1-.1-2.1-.2-3.1-.2-.3-.2-.6-.4-.8-.7-.4-1-.7-2-1.1-3.1-.3-.7-.5-1.6-.7-2.6z"/><path class="st7" d="M46.4 195.9c0 .3 0 .6-.1.9-5.3-.6-1.3-3.8-1.7-5.8.7-.8-.2-4.8 2.5-1.4.5.6-.8 2.6-1.3 3.9l.6 2.4z"/><path class="st4" d="M54.4 37.9c-2.1 2.8-4.3 5.6-6.4 8.5-3.5-1.9-4.1 3.9-7.4 2.7 3.8-4.8 7.6-9.7 11.4-14.5.5-.3 1-.5 1.6-.8l.9 2.4v1.9l-.1-.2z"/><path class="st3" d="M53.6 33.8c-.5.3-1 .5-1.6.8-.4-.5-.8-.9-1.2-1.4.7-.5 1.5-1 2.2-1.5.2.8.4 1.4.6 2.1zM54.5 38.1v-1.9c.3-.1.7-.1 1-.2l.2.2c-.4.6-.8 1.3-1.2 1.9z"/><path class="st3" d="M55.5 36c.1-.1.2-.2.3-.4l.2.2c-.1.1-.2.2-.4.3l-.1-.1z"/><path class="st15" d="M159.6 145.1c-1 6.7-4.6 11.2-11.2 13-16.3 5.9-32.3 12.7-47 22 1.1-5.7 7.1-8.1 9.1-13.2-.7-3.4 1.6-5.1 4.1-6 3-1.2 6.4-1.4 9.5-2.5 11.9-4.3 23.7-8.9 35.5-13.3z"/><path class="st16" d="M110.5 166.9c-2 5.1-8 7.5-9.1 13.2-.6.4-1.2.9-1.9 1.3-.3-.1-.7-.1-1-.2-.2-2.4-.9-4.1 1-6.9 2.5-3.7 7.2-3.7 9.1-7.4h1.9z"/><path class="st6" d="M116.4 220.2v-3.1c1.1-.6 2.1-1.3 3.2-1.9 1.7.3 1.3-1.4 2-2.1 2 1.1 4.1 2.2 6.1 3.3.4.9.8 1.7 1.2 2.6-.1.5-.1 1.1-.2 1.6h-2.3c-1.3.4-2.6.9-3.9 1.3-1.7-1.6-3.8-1.9-6.1-1.7z"/><path class="st2" d="M127.8 216.4c-2-1.1-4.1-2.2-6.1-3.3.8-2.1 0-5.3 3.8-5h4.2c1.8 2.3-1.8 4.8.4 7.1-.8.4-1.6.8-2.3 1.2z"/><path class="st5" d="M122.6 222c1.3-.4 2.6-.9 3.9-1.3-.3.8-.5 1.6-.8 2.4l-.2.2c-1-.5-1.9-.9-2.9-1.3zM128.8 220.7c.1-.5.1-1.1.2-1.6.4.4.9.8 1.3 1.2-.5 0-1 .2-1.5.4zM126.7 224c.4.2.8.4 1.2.5-.1.1-.3.4-.3.3-.4-.2-.7-.5-1.1-.7 0 .1.2-.1.2-.1z"/><path class="st5" d="M125.7 223c.3.3.6.7 1 1l-.2.2c-.3-.3-.7-.6-1-1l.2-.2z"/><path class="st1" d="M52.6 77.1c2.7-2 2.2-5.4 3.6-8.1 3-.3-2.1-7.9 4.5-4.9-.2.6-.4 1.3-.5 1.9-.1 3.2 7.6 4.2 2.7 9-.3.3 1.5 2.8 2.6.9C69 70 75.6 67.4 79.6 62.1c8.7-1.1 6.4 3.4 4 7.9-3.3 2.6-4.8 6.3-6 10.1-2.9 1.1-6.8 1.3-4.9 6.1-5.1 2.6-10.5 3.9-16.1 4.6 0-1.2.1-2.4.1-3.6l.3-.3-.2-.2-.3.3c-2.3 0-4.6.1-7 .1l-.3-1.5c.3-.8 3.2-1.3.4-2.6.7-1 1.3-1.9 2-2.9.3-.9.6-1.9 1-3zm2.7 2.6c-1 3.4 1 5 3.1 5.2 3.2.3 2.9-3.3 2.8-4.7-.2-2.2-2-4.3-3.1-6.5-1.8 1.8-4.9 3-2.8 6zM97.6 42.1c2.9 2.1 4.5 0 6-2 3.2.7 4.2-2.4 6-3.8 3.3-.2 4.3-5.1 8.2-4.1.3-.3.6-.7.9-1v-3c1.8-.7 2.1.4 1.9 1.7-1.1 6.8.4 13.5 1 20.3-1 1-2 2-3.1 3l.1.1c-1.3-.4-2.7-.7-4-1.1 0-.3-.1-.6-.2-.9-.9-1.8-1.7-3.6-2.6-5.4-2.5-2.8-2.8-.6-3.2 1.4-.7 0-1.4 0-2.1-.1l-.3-4.5c-.4.3-1 .5-1.1.8-.6 1.6-1.2 3.3 1.5 3.7 0 1.1.1 2.2.1 3.3 0 .2-.1.4-.2.6-5.3-3-8-.1-10 4.3-3.2 1.5-6.5 2.9-9.7 4.4-.4-.2-.8-.3-1.2-.5h-1c-.7.1-1.3.3-2 .4-.2-2-.4-4.1-.7-6.1 1.2-.4 2.3-.9 3.5-1.3l1.1 1.1c0 .8.1 1.7.1 2.5l.9-2.4c2.4-4.7 6.7-7.7 10.1-11.4z"/><path class="st7" d="M85.6 59.2c.4.2.8.3 1.2.5 1.7 1 .8 5.4 4.7 3.5.3 1.6-.1 2.7-1.8 3.1-3.2-.7-2.7 4.5-5.9 3.8 2.4-4.5 4.6-9-4-7.9-1.4-3.7 2.5-1.2 3-2.6.7-.1 1.3-.2 2-.4l.5.1.3-.1z"/><path class="st9" d="M169.7 81.9c.5 3.4 3.7 3.7 5.9 5v2c-5.2.2-7.6-3.3-9.7-7.1-.7-2-2.1-1.2-3.3-.8-12.6 4-25.3 8.1-37.9 12.1-1.3.2-2.7.2-3.9.6-2.8.9-5.6 2-8.4 3 .4.4.7.9 1.2 1.2 3.5 1.9 7 3.1 10.6.2.4-.3.9-.4 1.4-.6 5.7 1.7.3 5 1.1 7.4l-.1.1h-.7c-5.4-3.9-12-1-17.8-3.1-4.5-1.6-9.1-1-13.5.8-.8.3-1.4 1.1-2.1 1.6.7.3 1.4.7 2.1 1-.3 6.8-4.8 7.8-9.9 6.3-2.8-.8-3.1 2.2-5.2 2-.4 0 .4 1.9 1.4 2.5.3 4.7 4 4 7.1 4.4 7.5 1 16.7-.7 19.6-3.7 1.2-3.6 6.2.2 7.2-3.7 2.4 2.2 15 0 16-2.8l-1.2-.6c1.2-2.8 4.4-1 6.1-2.7.6 3.3 2.4.8 3.7.8-.3-.4-.6-.7-.9-1.1 1.3-.3 2.7-.6 4-.9 3.1 2.2 6.6.5 9.8 1.1l.2.2.7.7.3.3c.3.2.6.5.9.7.9.6 2.1 2 2.7 1.8 1.8-.7.1-2.3.4-3.4.4-1.5-1.4-4 1.8-4.2 1.5-.1 3.4.6 2.6-1.9-.6-1.7-1.6-4.1-4.2-3.2-2.8 1.1-5.5.8-8.3.5.6-3.4-2.3-.8-3.1-1.8.1-.3.1-.6.2-.8l13.8-1.2c2.9 7.1 5.8 14.1 8.7 21.2 0 .7.1 1.4.1 2.1-.6 2.2-1.2 4.4-1.8 6.7l-1.8 2.1h-4.1c-2.2-13.5-12.9-20.5-23.9-16-8.3 3.4-16.7 6.3-25.1 9.4-5.8-1.1-11 1.9-16.4 3.1-.6.1 5 .9 4.4 4.4-.6.2-1.3.3-1.9.5-4.3-.4-8.5-.9-12.8-1.2-1.4-.1-3.7-.4-4.2.4-1.1 1.6.9 2.8 1.7 4.2.7.4 1.5.7 2.2 1.1 0 1.5.8 2 2.2 2.1 5.6 2.7 11.1 5.4 16.7 8 .1.7.2 1.3.3 2-.2.2-.3.4-.4.7-4.2-.7-5 2.4-5.8 5.3-.4.1-.8.1-1.1.2-1.4-1.5-4.5.6-5.1-2.5-3.6.9-6.2-4.5-10.2-1.6.5-2.6-.2-3.8-3.2-4.2-4.6-.6-9-1.8-13.6-2.7-3.1-2-6-4.5-9.4-5.9-1.8-.8-4.1-4.4-6.5-.5-1 .8-1.9 1.7-2.9 2.5-.4.2-.7.4-1.1.7h-.1c-2.6 1.7-5.1 3.4-7.7 5.1-.9.5-1.9 1-2.8 1.5.6.4 1.1.9 1.7 1.3.8.3 1.6.6 2.3.9.9.4 1.7.9 2.6 1.3.4.3.7.5 1.1.8.3.3.7.5 1 .8.3 3.7 2.3 6.1 5.8 7.2l.2.1c1.3 2 .8 6 5.1 4.7 1.2-.2 2.5-.4 3.7-.7 3.1 5.4 2-3.5 4.2-1.2h-.1c.8.7 1.6 1.3 2.4 2 2.2.4 3.3 2 4.1 3.9-.6.4-1.3.8-1.9 1.2-4-.2-7.5-3.6-11.9-2-2.5-.3-3.4 1.4-4.4 3.3-.5.9.2 3.2-2 2.4-.4-.1-.5-2.7 0-3.7 1.1-2 3-3.8.3-6-4.2-2.2-6.1-6.3-8.7-9.9-.4-.4-.9-.7-1.3-1.1-3-1.5-5.9-3-8.9-4.5-.2-1.2-.3-2.3-.5-3.5.1-1.1-.2-3 .3-3.2 1.9-.9 1.2 1.2 1.8 1.9 2 2.3 3.1-.6 4.6-.8.3-.3.6-.5.9-.8 2.5-2.9 7.2-3.4 8.6-7.5-.2-1.2-.3-2.4-.5-3.5 2.2.3 1.7-5.5 5.2-2.2l.9.9 1 1c.7.3 1.4.7 2.1 1 5 .6 5 9.7 11.9 6.9.6.1 1.2.1 1.8.2 5.8 5.1 13.1 4.8 20.1 6 1.5 1.4 2.9.8 4.4.1-1.2-.7-2.5-1.3-3.7-2-2.3-1.1-4.5-2.2-6.8-3.3-.1-.2-.2-.4-.5-.5-.2-.2-.4-.4-.5-.6-1.5-3.1-3.9-3.8-6.9-2.6-1.1-.5-2.1-.9-3.2-1.4-.6.1-1.2.1-1.8.2-.7-.3-1.3-.6-2-.8.3-.6.6-1.2.9-1.9 2.3-.1 4.6-.1 6.8-.2-.1-.2-.2-.5-.3-.7-.1-.1-.3-.1-.5-.1 0-.6 0-1.3.1-1.9 1.3-2.5 7.4-1.4 5.8-2.7-5.6-4.7-7.1-6.8-.6-12.8 2.4-2.2 4.3-5.8 8-7.2 10.5-3.9 21.1-7.6 31.7-11.4l42-12.3c.9-.3 1.6-1 2.4-1.5-.7-.2-1.4-.8-2-.6-16.1 4.1-32.3 8.2-48.4 12.3l-.2.1c-1.3.3-2.5.6-3.8 1-8.7 1.7-17.4 3.3-26.1 5-5.6.7-11.3 1.3-16.9 2-.7-.6-1.3-1.1-2-1.7 8.1-4.5 15.9-9.5 24.7-12.6.1.4.1.9.2 1.3-1.4 3.4-5 3.5-7.6 5.1-1.1.7-2 1.6-2.9 2.4 1.4.4 3 1.6 4.2 1.2 13-3.8 26.7-4.7 39.4-9.6l1.8-1.2h.1c1.7.2 3.5.6 4.9-.9h.1c.6-.1 1.3-.1 1.9-.2 9.3-2.1 18.6-4.4 28-6.2 3.5-.7 4.7-2.2 3.9-5.6.8.3 1.5.7 2.3 1 1.5 2.8-.7 6.7 2.8 8.8l.2.3c1 1.3 1.3 2.2 1.6 3.1zm-6 37.3c-.5.6-1.7 1.4-1.6 1.8.3 1.2.9 2.9 1.8 3.2 1.7.5 1.9-1.5 2.3-2.6.4-1.5-1.2-1.6-2.5-2.4z"/><path class="st16" d="M122.7 83.3c-12.7 5-26.4 5.8-39.4 9.6-1.2.3-2.8-.8-4.2-1.2 1-.8 1.9-1.7 2.9-2.4 2.6-1.7 6.2-1.7 7.6-5.1 1-.4 2-.8 3-1.3 5-2.6 10-5.1 14.9-7.8.7-.4 1.1-1.5 1.6-2.3-.9-.1-1.9-.5-2.7-.2-4.9 1.5-9.8 3-14.7 4.6l-1.1-1.1c.3-.7.7-1.3 1-2 1.9-.8 3.6-1.5 5.9-1.3 2.1.1 4.4-1.7 6.6-2.6-.9-1.5-1.6-3.2-2.8-4.5-.8-.8-2.4-1-3.6-1.4 1.6-.7 3.2-1.5 4.9-2.2 1.1 1.3.5 3.8 3 4-.9 4.6 5 1.1 5.4 4.5.1.8.2 3.3 1.8 2.6.9-.4.5-2.7-.2-4.3-1.5-3.5-4.3-2.9-7-2.9.9-2.7-.5-3.8-3-4 .7-3.1 6.4.3 5.7-3.9-1-5.4 3-5.6 6.1-7 .1.3.2.6.2.9-.1.7-.4 2-.2 2.1 1.6.8 2.9 0 4.2-1l-.1-.1c5.6.8 6.9-4 9.3-7.2 4.2 1.6 4.1 6 5.8 9.2-3.8 2-7.4 4.6-11.5 5.7-4.8 1.3-4.8 5.4-3.2 7.1 3 3.1.9 5.5.5 8.2-6.5.6-11 5.6-17 7.3-.4.1-.8 1.2-.6 1.6.5 1.5 1.9 1.2 2.9 1 4-.9 7.9-2 11.8-3.1 1 0 2-.1 2.9-.1 1.3.3 2.3.4 3.3.6z"/><path class="st15" d="M119.6 76.1c.4-2.7 2.5-5-.5-8.2-1.6-1.7-1.6-5.8 3.2-7.1 4-1.1 7.7-3.8 11.5-5.7 4.8 9.2 12.7 12.4 22.6 12.1 2.1-.1 4.2.4 6.2.7-7.3 2.1-14.6 4.1-22 6.2-1.3.1-2.6.1-3.9.2l-17.1 1.8z"/><path class="st8" d="M136.7 74.3c1.3-.1 2.6-.1 3.9-.2.1 1.4 1 2.3 2.3 1.9 6.8-1.8 14.6-1 19.8-7.2.3.1.5.2.8.4.8 3.4-.4 4.9-3.9 5.6-9.4 1.9-18.7 4.1-28 6.2-.7-.9-1.4-.8-1.9.2h-.1c-1.7 0-3.5-.8-4.9.9h-.1c-1.6.2-3.3.5-4.9.7-1 0-2 .1-2.9.1.2-1.8 1.7-1.5 3-1.9 5.6-1.9 11.9-2.7 16.9-6.7z"/><path class="st11" d="M162.8 68.8c-5.2 6.3-13 5.5-19.8 7.2-1.3.3-2.2-.5-2.3-1.9 7.3-2.1 14.6-4.1 22-6.2.1.3.1.5.1.9z"/><path class="st2" d="M168.6 78.9c-3.5-2.1-1.3-6.1-2.8-8.8 0-1.7.1-3.3.1-5l2.3-2.3c.8 4.4 1.5 8.7 2.3 13.1-3.5-.7-.9 2.3-1.9 3zM134.5 40.3c1.6 5.9 3.1 11.9 4.7 17.8-3.9-5.3-7.1-10.8-4.7-17.8zM146.8 63.2c.9.3 1.8.6 2.6.9-.9-.3-1.8-.6-2.6-.9zM140.7 59.2c.5.4 1.1.8 1.6 1.2-.6-.4-1.1-.8-1.6-1.2zM164.5 64.3c.3.2.6.4 1 .5-.3-.1-.6-.3-1-.5zM143.6 61.2c.3.2.6.5.9.7-.3-.2-.6-.5-.9-.7z"/><path class="st6" d="M69.5 195.9c-.5-1.3-.9-2.6-1.4-3.9-.2-.2-.3-.5-.5-.7-.6-1.4-3.6-1.5-2.8-3.5 1-2.3 2.8.2 4.2-.1 1.9-.4 3.6-1.2 5.4-1.8 1.4.4 2.7.7 4.1 1.1 5.6 3.4 11 7.4 17.8 8.1.1.8.3 1.6.4 2.3.6 2.6 2.3 4.4 4.5 5.6 1.7.8 4.2 2 5.3 1.4 1.9-1.2-1.5-2.4-1.1-4.1 1.3.3 2.6.6 4 1 .3 3.1 3.9 2.7 5.2 4.7 0 1.1 0 2.2.1 3.2-.1.3-.2.6-.2.9-5.4 2.8-17.8.2-21.5-4.4-.6-.8-2-1.7-2.8-1.6-5.9 1.2-10.7-1.9-15.7-4.1-1-.7-2-1.3-3-2-.6-.6-1.3-1.3-2-2.1z"/><path class="st9" d="M29.3 61c-2 .6-3.9 2.5-5.9 0 .7-3 1.4-5.9 2.1-8.9.8 0 1.6 0 2.4.1-.3 2.3-1.3 5 2.7 4.9 0 1-.1 1.9-.1 2.9-.4.4-.8.7-1.2 1z"/><path class="st7" d="M21.5 34.8c-.6 5.2-1.3 10.4-1.9 15.6-.5.8-1 2.2-1.5 2.2-1.7 0-.7-1.4-.6-2.1.6-5.5-.2-11.3 4-15.7z"/><path class="st4" d="M25.5 52.2c-.7 3-1.4 5.9-2.1 8.9-1.5-2.8-4.1-.4-6-1.2 2.8-2.6 3.4-7.3 8.1-7.7z"/><path class="st9" d="M29.1 49.2c-.1.7-.3 1.3-.4 2-1-.4-2-.7-2.9-1.1l3.3-.9z"/><path class="st4" d="M17.3 59.8c-.2.1-.4.1-.6.2.1-.2.3-.3.6-.2z"/><path class="st2" d="M117.8 32.2c-3.9-1.1-4.9 3.9-8.2 4.1.6-5.5 3.8-8 9.1-8.2v3c-.3.4-.6.8-.9 1.1z"/><path class="st3" d="M96.4 195.2c-6.9-.7-12.2-4.7-17.8-8.1 1.7-1.8 3.5-.9 5.4-.2 1.4.5 3.1 1.1 3.9-.6.3-.6-1.1-2-1.8-2.9-4.3-5.5-7.8-.9-11.6.9-5-3.2-3.1-8-2.7-12.4 2.6 1.4 5.2 2.9 7.7 4.3 2.1.6 4.1 1.3 6.2 1.9 4.2 3.5 8.3 6.9 12.5 10.4.7.4 1.4.8 2.1 1.1.8.5 1.7 1 2.5 1.5 5.9 2.8 9.9 7.8 14.3 12.3 1.3 1.3 3.5 2.2 3.4 4.5-1.9-.6-3.9-1.2-5.8-1.8-1.4-2-4.9-1.5-5.2-4.7-2.3-6.6-6.5-8.8-13.1-6.2zM114.6 210.1c0-.3.1-.6.2-.9.4.1.8.3 1.2.4-.5.2-1 .4-1.4.5z"/><path class="st14" d="M161.6 127.1h4.1c.9.3 1.7.5 2.6.8-.2 1.8-.5 3.5-.7 5.3-.7 0-1.4.1-2.1.1-4.3 2.8-3.3 7.9-5.3 11.7-.2 0-.4 0-.6.1-11.8 4.5-23.6 9-35.5 13.3-3.1 1.1-6.5 1.3-9.5 2.5-2.5.9-4.8 2.6-4.1 6-.6 0-1.2 0-1.8.1.1-3.1-1.8-2.8-3.6-1.8-3.3 2-6.9 2.1-10.6 1.9 4.4-.5 6.1-3.4 6.3-7.5 8.8 1.3 5.5-5.1 5.7-9.1.1-1.8 1.3-2.9 2.6-3.4 3.1-1.1 4-6.5 8.6-4.4 0-2.7-.5-5.5 1.8-7.6.8-.8 1.4-1.8.3-2.4-.4-.3-1.6.8-2.4 1.1-1 .4-.1 2.7-1.8 1.8-.4-.2-.4-2.3.1-3.2 1.2-1.8 2-3.6 5.4-2.7 4.3 1.3 8.3 5.1 13.6 2 2.4-1.4 1.4 2.6 2.8 3.7.3.2-1.3 1.5-2.6 1-3.4-1.3-2.8 2.2-4 3.4-.7.7.1 1.9 1.3 2.1 1.6.2 3.7 1.8 4.1-1.7.1-.9 1.9-1.7 2.9-2.5 3.3 5.4 5.8-.8 8.8-.8 4.8 0 3.8-5.3 3.2-6.8-1.8-4.2-1.1 1.2-2.1.9-2-.6-2.6-2.4-3.1-4.1-1.1-3.6 2.2-3.5 4-4.5 1-.5 2.8-1.3 3.4.3 2 5.5 1.9 5.6 8.2 4.4z"/><path class="st9" d="M160.3 145c1.9-3.8 1-8.9 5.3-11.7.2.7.4 1.3.6 2 .1.6.2 1.1.3 1.7l-.1-.1c-3.4 2.6-1.7 7.6-4.7 10.3-.5-.7-1-1.5-1.4-2.2z"/><path class="st7" d="M69.5 195.9c.7.7 1.4 1.4 2.1 2.2-2.2 4.1-7.8-.3-10 4-.1-.6-.2-1.2-.4-1.9-.2-.4-.4-.8-.5-1.2.2-8.8 5.8-2.2 8.8-3.1z"/><path class="st4" d="M40.6 49.1c-.5 2.3-1.3 4.4-4 4.9.7-2.1 1.6-4.1 4-4.9zM30.6 60.1c0-1 .1-1.9.1-2.9h-.1c.3.2.6.4.9.5.4.2.8.3 1.1.5-.1 1.3-.7 1.9-2 1.9z"/><path class="st9" d="M31.5 57.7c-.3-.2-.6-.4-.9-.5.3-.7.6-1.5.9-2.2v2.7z"/><path class="st4" d="M36.5 54.1c-.3.3-.6.7-.9 1 .3-.3.6-.7.9-1zM35.6 55.1c-.3.3-.6.7-.9 1 .3-.3.6-.6.9-1zM34.6 56.2c-.3.3-.6.6-1 .9.4-.3.7-.6 1-.9z"/><path class="st11" d="M342.7 141c2.3.3 4.6.7 6.9 1-1.2 6.2-4.5 4.3-7.9 2.1.3-1 .6-2 1-3.1z"/><path class="st4" d="M51.7 66.4c.3-.7.7-1.5 1-2.2-.3.8-.6 1.5-1 2.2zM52.7 64.3c.2-.4.5-.8.7-1.1-.2.3-.4.7-.7 1.1z"/><path class="st15" d="M94.6 167.1c3.7.2 7.2.1 10.6-1.9 1.7-1 3.6-1.4 3.6 1.8-1.9 3.7-6.6 3.7-9.1 7.4-1.9 2.8-1.2 4.6-1 6.9-4.7.6-7.2-3.6-11-5.1.1-4.5-6.8 1.4-6.1-4.1 4.3-1.7 8.6-3.4 13-5z"/><path class="st10" d="M81.5 172.1c-.7 5.4 6.1-.4 6.1 4.1l-1.8 1.8c-2.1-.6-4.1-1.3-6.2-1.9 0-1.2.1-2.5.1-3.7.5-.2 1.2-.3 1.8-.3z"/><path class="st2" d="M86.6 53.3l-1.1-1.1c2.2-4 5.7-6.8 9.2-9.5.6-.3 1.3-.5 1.9-.8.3.1.7.2 1 .3-3.4 3.7-7.6 6.6-10 11.3-.3-.2-.7-.2-1-.2zM67.7 130c.7.3 1.3.6 2 .8.6-.1 1.2-.1 1.8-.2 1.1.5 2.1.9 3.2 1.4.1.3.2.7.2 1-2.1.7-4.3 1.4-6.4 2-.6-.1-1.2-.1-1.8-.2-1.4-4.1-5.2-5.9-8.1-8.5.9-.6 2.6-1.5 1.5-2.5-2.1-2-5-1.8-7.8-1.4-5.1.3-10.9-1.9-14 4.5l-.5.1c-.4 0-.8.1-1.2.1-1.7-4-4.2-3.9-7.3-1.4-.5.4-1.4.5-2.1.7.2-.7.2-1.5.6-2.1 2.6-5.1 5.2-10.2 7.7-15.4.8-1.6 2.4-3.6-.8-4.8-.4-.7-.8-1.4-1.1-2.1 2.9 0 5.8-.2 8.7-.1 3.4.1 5.5 8 10.7-.3 2.9-4.6 6.6 2 6.4 6.9.1 2-12.9-3.5-2.5 4.4.3.2.5.9.5 1.3-.4 5.9 3.6 8 8.1 9.9v-.1c.1.6.1 1.3.2 1.9.7 1.4 1.3 2.8 2 4.1z"/><path class="st3" d="M37.8 127.1l.5-.1c2.4.1 4.9.2 7.3.3.2 1.2.3 2.4.5 3.5-3-.1-6 .1-8.9-.3-2-.3-3.9-1.5-.7-3.3.5 1 .9.4 1.3-.1z"/><path class="st9" d="M22.6 143.2c0-.6.1-1.1.1-1.6 1 0 2-.1 3-.1.9.9 3.1.7 2.9 2.8-2-.4-4-.8-6-1.1z"/><path class="st3" d="M28.6 144.2c.2-2.1-1.9-1.8-2.9-2.8 1.4-.1 2.8-.1 4.2-.2.2 1.2.3 2.3.5 3.5-.6-.1-1.2-.3-1.8-.5zM37.6 138.4c-.3.3-.6.5-.9.8.3-.3.6-.6.9-.8z"/><path class="st1" d="M16.7 183.6c-2-3.4-8 1-8.9-4.5-.9-3.7 2.2-5.1 4-7.3 1.7 2.7 3.4 5.5 5 8.2.1.8.2 1.5.3 2.3-.2.4-.3.9-.4 1.3z"/><path class="st7" d="M17 182.3c-.1-.8-.2-1.5-.3-2.3 1.8.6 2.4 1.3.3 2.3z"/><path class="st3" d="M24.4 149.9c3.5-3.5 5.2 1.8 8 1.7.7.2 1.3.5 2 .7v-.1c.4.3.8.6 1.3.9h1.8c.3.5.6 1.1.9 1.6l-.9.6c-3.6.2-7.2 1-10.7.4-2.7-.3-4.6-2.6-2.4-5.8z"/><path class="st2" d="M37.6 155.4l.9-.6c.1.4.2.8.3 1.1-.4-.2-.8-.3-1.2-.5z"/><path class="st3" d="M49.3 160.2c2.7 2.2.8 3.9-.3 6-.5 1-.4 3.5 0 3.7 2.1.7 1.5-1.5 2-2.4 1-1.9 1.9-3.6 4.4-3.3.2 1.2-2.9 1.7-.7 3.3-2.3 2.6-2.1 7.3-6.8 7.8-.7-3-1.3-5.9-2-8.9.5-2.5 5.6-2.3 3.4-6.2z"/><path class="st6" d="M34.4 152.3c-.7-.2-1.3-.5-2-.7 1.4-1.7 2-1.2 2 .7z"/><path class="st3" d="M39.3 149.2c.4.4.9.7 1.3 1.1-.5-.4-.9-.7-1.3-1.1z"/><path class="st6" d="M35.7 153.1c-.4-.3-.8-.6-1.3-.9.5.3.9.6 1.3.9z"/><path class="st2" d="M46.4 195.9c-.2-.8-.4-1.6-.6-2.3 2.3-1.5 4.2-3.3 4-6.4.3 0 .5-.1.7-.3 1 .1 2.1.2 3.1.2 2.3 1.1 4.5 2.1 6.8 3.2 0 .3.1.6.3.9l-.3.9c-5.3-1.2-9.8.8-14 3.8z"/><path class="st3" d="M48 180.2c.2.9.4 1.9.6 2.8-.2-.9-.4-1.8-.6-2.8zM50.5 186.8c-.2.2-.5.3-.7.3 0-.3-.1-.7-.1-1 .3.2.6.5.8.7zM59.5 108.6c.1-4.9-3.5-11.4-6.4-6.9-5.2 8.3-7.4.3-10.7.3-2.9 0-5.8.1-8.7.1-1.9-.1-1.4-1.1-1-2.2 1.7-.5 3.4-1 5.2-1.5 4.5-1.5 9.4 1.5 13.7-1.4l3-.3c.9.1 1.9.1 2.8.2 1.9-.1 1.9-1.6 2.2-2.8.6.1 1.3.2 1.9.2 0 2-.1 4 .1 5.9.1.9-.9 4.2 1.4 2.6 7.1-5 2 2.4 3.4 3.1l-.1.1c-1.9.4-1.9 1.9-1.7 3.3-.5.5-1 1.1-1.5 1.6-1.1.1-2.3.2-3.4.2 0-.7-.1-1.6-.2-2.5z"/><path class="st5" d="M26.2 91.4c-2.2-.6-2.7-2.1-2.7-4.2-.1-4.8-2.2-8.9-5-12.7 1.6.6 3.3 1.1 4.9 1.7.2.6.4 1.2.6 1.7.9 4.4 1.7 8.7 2.6 13.1l-.4.4z"/><path class="st2" d="M37.8 98.4c-1.7.5-3.4 1-5.2 1.5-.9-1.2-1.7-2.4-2.6-3.6.2-.5.4-.9.6-1.4 3.7-1.3 6.4-.8 7.2 3.5z"/><path class="st4" d="M23.5 76.3c-1.6-.6-3.3-1.1-4.9-1.7-.7-.1-1.3-.2-2-.3-.3-2.6-2.4-1.8-3.9-2 2-2.1 4.6-.7 6.8-1.1 1.2 1.7 4.8 1.7 4 5.1z"/><path class="st5" d="M30.7 94.9c-.2.5-.4.9-.6 1.4-2.4-.8-3.4-2.6-3.8-4.9l.4-.3c.3 0 .7-.1 1-.1l3 3.9z"/><path class="st3" d="M10.5 92.7c-.8.4-1.5.6-1.8-.6l1.8.6zM13.3 89.1c.1.3.1.7.2 1-.1-.2-.3-.4-.4-.7 0 0 .2-.2.2-.3zM13.9 84.3c-.1.3-.3.6-.5.8.1-.3.3-.6.5-.8z"/><path class="st8" d="M30.7 94.9c-1-1.3-2.1-2.6-3.1-3.8-.6-4.5 0-9.3-3.6-13-.2-.6-.4-1.2-.6-1.7.8-3.4-2.8-3.3-4-5.1.9-.7 1.9-1.2 2.6-2 2.7-3.4 5.4-8.6 6.8.8.2 1.4 2.5 3.7 3.6 3.6 3.7-.4 6.8-2.4 8.8-5.8 1.1-1.9 1.3-5.6 3.7-5.2 1.9.3-.3 3.3-.2 5.1.1 1.6 1.2 2.5 2.7 2.4 6-.7 5.9 2.9 5.2 7.1v.1c-1.1-.3-2.3-.4-3.2-1-1.2-.7-1.4-3.6-3.6-2.2-1.9 1.2-1.2 3.1-.1 4.8.3.5.4 1.2.3 1.8-2.1 12.5-1.6 13.2 11.6 14.3-.1.6-.1 1.2-.2 1.9-.9-.1-1.9-.1-2.8-.2-1.1-.9-2.1-.9-3 .3-4.3 2.9-9.3-.1-13.7 1.4-.9-4.4-3.6-4.9-7.2-3.6z"/><path class="st8" d="M43.7 57.9c.4 3.9-7.5 3.1-4.8 8.5.1.2-2-.4-2.5-1.2-1.7-2.9-.5-5.4 1.4-7.7 2.1-2.4 4.1-1.1 5.9.4 0 .1 0 0 0 0zM50.1 66.7c.1.2.2.3.2.4 0 .1-.2.2-.2.3v-.7z"/><path class="st4" d="M46.4 49.1c-.3.7-.6 1.3-.9 2 .3-.7.6-1.3.9-2zM29.3 61l1.2-.9-1.2.9zM45.6 51.1c-.3.5-.6 1-.8 1.4.2-.4.5-.9.8-1.4z"/><path class="st16" d="M185.2 35.9c8.7 0 13.7 8 9.6 14.7-2.9 4.8-1 6.8 2.7 9.1 1.7 1 3.3 2.2 4.9 3.4 2.7 2.1 3 4.9 1 7.4-2.1 2.6-4.1.5-6-.8-2.7-2-5.2-4.1-7.9-6.1-1.6-1.2-3.1-2.2-5.3-.6-2.4 1.8-1.5 3.3-.7 5.5 1.8 5.2 1.8 9.8-5.6 9.9-1 0-2.8-.4-3-1-2.1-7.3-5.4-14.6-3.6-22.4.7-3 1.7-5.9 0-8.6-3.5-5.4-.7-7.6 4.2-8.6 3.5-.9 7.1-1.4 9.7-1.9zm-3 17.2c2.4-.3 4.2-1.5 4.3-4.3 0-2.5-1.4-4.2-3.9-4.2s-4 1.4-4.1 4c0 2.5.6 4.4 3.7 4.5zM146 56c-8.2-10.3-6.6-24.3 3.6-32.1 1.5-1.2 2.4-3.1 3.9-4.5 2.5-2.3 5.3-1.1 7.9-.2 3.7 1.2.9 4.6 1.9 7 .8 2-2.2 2.5-3.8 2.9-6.3 1.4-9.3 5.9-8.5 11.6.7 5.6 6.1 5 10.5 4.8 4-.3 7.2.8 7.2 5.4 0 5-3.8 6.9-7.8 8.2-1.3.4-2.9-.2-4.4-.3-3.7-.8-7.4-.8-10.5-2.8zM249.6 80c11.3 5.5 12.3 11.9 3 19.2-4.3 2.2-9 3.1-13.8 3.2-8.4.2-10.5-2.5-8.2-10.4 2.3-.4 4 1.3 5.9 1.9 2.9.9 5.8.9 8.1-1.9 1.2-1.5 1.1-2.6.2-3.9-1.7-2.6-3.9-2.6-6.3-1.2-1.6-1-3.1-2-4.7-3 .9-3.6 1.4-7-1.2-10.4-2.1-2.6-.2-4.4 2.2-5.3 4.1-1.5 8.4-5.5 12.4-.1 2.2 2.9.6 4.7-2.5 5.9-2.1.8-3.5 2.5.1 3.7.3.2.6.3.9.3.4 2.5 2.3 1.9 3.9 2z"/><path class="st16" d="M220.6 82.7c-.6-.9-1.2-1.9-1.8-2.8-.2-2.4-.5-4.6-3.7-4.8-3.1-.2-5.2 1.2-6.2 3.9-.7 2-1.1 4.2-1.1 6.3-.1 2.7-1.6 3.5-3.8 3.5-2.5 0-4.7-1.4-4.1-3.9.9-3.9.2-8.4 4.9-11.2 3.7-2.3 4.1-6.8 1.9-10.7-2-3.5-.6-5.9 2.1-7.6 2.8-1.8 5.5-.8 7.4 1.7 4.1 5.6 8.1 11.2 11.9 17 1.3 2 4.4 4.1 1.6 6.9-2.5 2.7-5.4 5.1-9.1 1.7zM212 60.4c-2 .4-3.4 1.7-3.4 4.2 0 1.8.4 3.5 2.6 3.5 2.3 0 4.3-1.1 4.3-3.6 0-1.9-.5-4-3.5-4.1z"/><path class="st3" d="M146 56c3.2 2 6.9 2 10.4 2.6l-1.8 2.4c-4.6-.3-9.3-.5-12.5-4.7l3.9-.3z"/><path class="st2" d="M198.2 37.9c2.9 3.5 3.4 7.3 1.3 11.4-.4-3.8-.8-7.6-1.3-11.4zM192.7 32.9c1.3.1 2.6.1 3.9.2-.1.7-.2 1.4-.2 2.1-1.3-.7-2.5-1.5-3.7-2.3zM226.5 63.3c1.6.2 2.1 1.2 2 2.7-1.6-.2-2-1.3-2-2.7zM228.6 66.2c1 .3 2 .7 3.1 1-1.5 1.2-2.8 1.5-3.1-1zM196.5 35.3c.4.6.8 1.1 1.2 1.7-.4-.5-.8-1.1-1.2-1.7zM139.2 51c-.1-.6-.3-1.1-.4-1.7.1.6.2 1.1.4 1.7z"/><path class="st11" d="M167.7 133.1c.2-1.8.5-3.5.7-5.3l.2.1c3.4.2 7.3-.6 8.3-3.5.8-2.3-3-.7-4.5-1.5.1-2.9.1-5.8.2-8.8 4.7-.3 9-2 13.3-3.7 4.3-1.8 9.3-.9 14-1.2 6-.4 11.5-5.6 17.8-2.1 3.2 5.4 3.1 10.9-2.4 13.9-4.7 2.6-7.3 8.5-13.7 8.5-1.9 0-1.8 2-1.9 3.5h-3v-2c0-1 .1-2 .1-3 .3-.7.6-1.3.9-2 1.4-1 1.5 2.8 2.7 1 1-1.5 0-3.1-1.6-4 0-.7.1-1.3.1-2 .3-.3.5-.6.8-1 .1-.4.1-.7.2-1.1.8-.1 1.8-.3 1.3-1.4-.4-.8-1.3-1.5-2.4-.6-.7.4-1.3.7-2 1.1-2.8 6.3-5.5 12.6-8.3 18.9-.2 0-.4 0-.6.1-5.5-.2-10.2 2.6-15.3 3.9-3.5.8-6.5 1-6-4.1l.1.1c.9.3 1.4 2.5 2.6 1.3 1.2-1.3.6-2.7-1.4-3.1-.2-.6-.2-1.3-.2-2zm4.3-2.5c-.5 1.8-.8 3-1 4.3 0 .2.8.5 1.3.7.3-.8.7-1.7.7-2.5 0-.7-.5-1.4-1-2.5z"/><path class="st15" d="M124.7 93.1c12.6-4 25.3-8.1 37.9-12.1 1.2-.4 2.6-1.2 3.3.8l-23.4 8.4c-3.6 1.1-7.2 2.3-10.8 3.4-1.6.5-3.2 1-4.8 1.6-.7-.6-1.5-1.3-2.2-2.1z"/><path class="st3" d="M205.6 97.2c2-1 4-2.1 5.9-3.1 0 6.5-5.5 4.7-8.9 5.5-1.9.4-4.2-.6-6.3-.9l-1.8-.3c-3.7-.3-4.8-2.5-5.2-6-.2-2.5.4-6.9-4.8-5.2.4-2.8 1.3-6.4 4.4-6 5.1.6.7 5.7 2.7 8.1.3 1.6.5 3.2.8 4.9 2.4 3.2 6.3 1.7 9.3 3 1.2 1.4 2.5 1.2 3.9 0zM169.2 116.1c-2.9-7.1-5.8-14.1-8.7-21.2 3.9-1.5 4.3 1.8 5.5 4 .4 4.9 1.5 9.7 3.7 14.1-.2 1.1-.4 2.1-.5 3.1z"/><path class="st7" d="M127 95.3c1.6-.5 3.2-1 4.8-1.6 3.9.3 7.8.6 11.7 1 1 .5 2.1 1 3.1 1.5-.1.3-.2.5-.2.8-5-.3-9.9-.7-14.9-1-.3-.1-.6 0-1 .1-1.2 0-2.4.1-3.6.1 0-.3 0-.6.1-.9z"/><path class="st10" d="M169.2 116.1c.2-1 .3-2.1.5-3.1.9.1 1.7.2 2.6.3.1.3.1.6.2.9-.1 2.9-.1 5.8-.2 8.8-1.2 1.7-2.5 3.3-3.7 5l-.2-.1c-.9-.3-1.7-.5-2.6-.8l1.8-2.1c2.7-1.7 2.2-4.2 1.8-6.7-.1-.8-.2-1.5-.2-2.2z"/><path class="st4" d="M172.2 113.4c-.9-.1-1.7-.2-2.6-.3-2.2-4.5-3.3-9.2-3.7-14.1 5.9 3.2 3.6 9.8 6.3 14.4z"/><path class="st12" d="M143.5 94.7c-3.9-.3-7.8-.7-11.7-1 3.6-1.1 7.2-2.3 10.8-3.4.2 1.5.5 2.9.9 4.4z"/><path class="st3" d="M175.6 89v-2c3 0 6 0 9 .1-2.6 2.4-5.8 2.1-9 1.9z"/><path class="st5" d="M194.5 98.3l1.8.3-1.8-.3z"/><path class="st3" d="M230.5 91.9c-2.2 7.9-.1 10.6 8.2 10.4 4.8-.1 9.4-1.1 13.8-3.2.7.3 1.3.6 2 1-5.8 5.5-21.1 7.7-26.1 3.7-4.6-3.7-4-10.6 1.1-13.7.4.6.7 1.2 1 1.8zM290.6 105.2c.4.7.8 1.4 1.2 2-5.5 3-10 3.8-11.7-4.2-.5-2.2-.4-5.8-4.6-5v-1.3c3.1-1.8 4.9-.7 5.9 2.5 1.5 4.4 4.6 6.4 9.2 6z"/><path class="st1" d="M230.5 91.9c-.3-.6-.6-1.2-1-1.9 1.3-.6 2.6-1.3 3.9-1.9 2.7.7 4.9 6.1 8.3.9-1.1-.7-2.3-1.5-3.4-2.2 2.4-1.5 4.6-1.4 6.3 1.2.9 1.4 1.1 2.4-.2 3.9-2.3 2.8-5.2 2.7-8.1 1.9-1.8-.6-3.4-2.3-5.8-1.9z"/><path class="st2" d="M241.8 89.1c-3.4 5.1-5.6-.3-8.3-.9 3-1.3 5.2 3.8 8.3.9z"/><path class="st5" d="M192.4 94.1c-.3-1.6-.5-3.2-.8-4.9 1.7 1.4 1 3.2.8 4.9z"/><path class="st2" d="M169.7 81.9l-.9-2.7c1 .7 2.3 1.3.9 2.7z"/><path class="st9" d="M295.5 107.2c1.3.5 2.7 1.1 4 1.6-1.4-.2-3.8 1.8-4-1.6z"/><path class="st5" d="M205.6 97.2c-1.4 1.2-2.7 1.4-4-.1 1.3 0 2.7.1 4 .1z"/><path class="st9" d="M294.5 106.2l1 1-1-1z"/><path class="st11" d="M239.6 119.8c-2.9 1.4-3.5-1.8-4.2-3.2-.8-1.6 1.3-1 1.9-.8 2.1.8 5.4 1.5 5.9 2.9.6 2.1-2.1.7-3.6 1.1z"/><path class="st10" d="M282.9 59.2l.2-.4.2.5"/><path class="st16" d="M290.6 105.2c-4.6.4-7.7-1.6-9.1-6-1-3.2-2.9-4.3-5.9-2.5-4.6.4-6.2 2.5-4.1 6.9 1 2.1 1.6 4.2-1.4 5.1-3 .9-5.5.5-6.9-2.9-3.1-7.8-1.5-16.2-3.2-24.2-.5-2.4 3.6-4 6.4-4.4 3.3-.4 3.2 2.2 3.2 4.4.1 5.1.2 10.1 7.7 6.5 2.1-1 2.8-1.4 1.9-4.2-1-3-4.8-7.8 2-9.6 6.9-1.9 5.8 4 7.3 7.4 2.8 6.6-.1 14.2 3.8 20.7.6 1.3-.6 2.2-1.7 2.8zM305.1 96.8c1 5.2.3 9.3-4.8 9.1-6.3-.2-6.7-6.4-7-10.6-.4-4.8 5-4.7 8.1-5 6.4-.8 2.7 4.8 3.7 6.5z"/><path class="st9" d="M249.6 80c-1.6 0-3.5.5-4-1.8 1.3.5 2.6 1.1 4 1.8z"/><path class="st2" d="M283.5 71c1.3-.9 2.6-1.5 4-.1-1.4 0-2.7 0-4 .1z"/><path class="st8" d="M345.7 130.2c-1 3.3-2 6.6-3.1 9.9-5.1-2.7-7.6-7.8-11-12 .4-4.7-.3-8.8-5.9-9.7-6-1-5.1-8.4-10-10.4 3.3-4.1.6-8.6.7-12.8.1-2.3.1-4.5 2.4-5.5 2.9-1.3 2.2 2.3 3.7 2.9 4 1.6 8 3 12.1 4.5.3.3.6.7 1 1 .3 1 .6 2.1.9 3.1 5.4 8.9 11.9 17.5 9.2 29z"/><path class="st16" d="M308.2 115.3c-.5 1.9-1.4 3.1-3.5 2.8-1.9-.3-3.9-.9-3.8-3.1.1-2 1.7-3.1 3.8-3.1 2.2.2 3.2 1.6 3.5 3.4z"/><path class="st11" d="M345.7 130.2c2.8-11.5-3.7-20.1-9.1-29.1 10.2 1.2 14.4 7 12.2 16.8-.9 4-1.5 8.1-2.2 12.1-.3.2-.6.2-.9.2z"/><path class="st9" d="M188.3 137c2.8-6.3 5.5-12.6 8.3-18.9-.2 7.5-3.1 14-6.8 20.3-.5-.4-1-.9-1.5-1.4z"/><path class="st14" d="M198.6 123.1c1.6.9 2.7 2.5 1.6 4-1.2 1.8-1.2-2-2.7-1 .4-1 .8-2 1.1-3zM198.6 117.1c1.1-.9 2-.1 2.4.6.6 1.1-.5 1.2-1.3 1.4-.4-.7-.7-1.3-1.1-2zM196.5 131.1v2l-1.5-.9c.6-.4 1-.8 1.5-1.1z"/><path class="st14" d="M197.6 126.1c-.3.7-.6 1.3-.9 2 .3-.7.6-1.3.9-2zM199.5 120.2c-.3.3-.5.6-.8 1 .3-.4.6-.7.8-1z"/><path class="st3" d="M60.4 190.2c-2.3-1.1-4.5-2.1-6.8-3.2 1.4-3-5.2-3.3-2.5-5.4 1.3-1.1 5.4.9 8.1 1.9 3.9 1.4 5.5 3.6 1.2 6.7z"/><path class="st2" d="M74.5 184.1c3.7-1.8 7.3-6.4 11.6-.9.7.9 2.1 2.3 1.8 2.9-.7 1.7-2.5 1.2-3.9.6-1.9-.7-3.7-1.5-5.4.2-1.4-.4-2.7-.7-4.1-1.1v-1.7z"/><path class="st4" d="M79.6 172.3c0 1.2-.1 2.5-.1 3.7-2.6-1.4-5.2-2.9-7.7-4.3-.4-.5-.8-1.1-1.2-1.6-1.1-1.3-2.3-2.7-3.4-4 .6-.4 1.3-.8 1.9-1.2.5.1 1.1.2 1.6.2 3 2.4 6 4.8 8.9 7.2z"/><path class="st2" d="M67.2 166.1c1.1 1.3 2.3 2.7 3.4 4-5.1-2.4-10.4-3.2-16-2.7-2.3-1.6.8-2.1.7-3.3 4.4-1.7 7.9 1.8 11.9 2z"/><path class="st3" d="M60.4 192l.3-.9c.8-.2 1.7-1.1 2.2.4-.8.2-1.6.3-2.5.5zM67.6 191.3c.2.2.3.5.5.7-.3-.1-.4-.4-.5-.7z"/><path class="st5" d="M60.7 199c.2.4.4.8.5 1.2-.1-.4-.3-.8-.5-1.2z"/><path class="st11" d="M57.6 95.1C44.4 94 43.9 93.3 46 80.5c.1-.6 0-1.3-.3-1.8-1.1-1.7-1.8-3.6.1-4.8 2.2-1.4 2.4 1.5 3.6 2.2.9.6 2.1.7 3.2 1-.3 1-.7 2-1 3.1-1.8.1-2.9 1-3.2 2.9-1.1 1.3-1.5 2.3.8 2.5v.1l.3 1.5c2.4.7 5.2 1.1 6 4.1 1 1.5 4 .2 4 3-.5.2-1.2.5-1.9.8z"/><path class="st4" d="M59.6 94.2c0-2.8-3-1.5-4-3 .3-.1.6-.3 1-.4 5.6-.7 11-2 16.1-4.6 1.7-.6 3.3-1.2 5-1.8 1-.4 2-.8 3-1.1 3 1.1 5.6-4.5 8.8-.5-8.8 3.1-16.6 8.1-24.7 12.6-1.1-.3-2.1-.7-3.2-1-.7-.1-1.3-.2-2-.2z"/><path class="st3" d="M89.4 82.8c-3.1-4-5.8 1.5-8.8.5.1-2.2-.7-3.4-3.1-3.2 1.3-3.8 2.7-7.5 6-10.1 3.2.7 2.7-4.5 5.9-3.8 1 .6 1.9 1.1 2.9 1.7v.8c-.6.4-1.2.8-1.9 1.3-4.1 1.2-4.1 5.1-5.6 8.1 2.2 0 4.4-.1 6.5-.1.4 1.6.8 3.3 1.1 4.9-1 .4-2 .8-3 1.3.2-.5.1-.9 0-1.4zM55.3 79.7c-2.1-2.9 1-4.2 2.8-6 1.1 2.1 2.9 4.2 3.1 6.5.1 1.4.4 5.1-2.8 4.7-2.1-.3-4.1-1.8-3.1-5.2z"/><path class="st3" d="M77.7 84.4c-1.7.6-3.3 1.2-5 1.8-1.9-4.9 2-5.1 4.9-6.1 0 1.5 0 2.9.1 4.3z"/><path class="st9" d="M56.6 90.8c-.3.1-.6.3-1 .4-.9-3-3.6-3.4-6-4.1 2.3 0 4.6-.1 7-.1l.2.2c-.2 1.2-.2 2.4-.2 3.6zM48.4 83.1c.3-1.9 1.4-2.7 3.2-2.9-.7 1-1.3 1.9-2 2.9h-1.2zM49.6 83.1c2.9 1.3 0 1.7-.4 2.6v-.1c.1-.8.3-1.7.4-2.5z"/><path class="st9" d="M56.5 87l.3-.3.2.2-.3.3-.2-.2z"/><path class="st15" d="M92.4 68.8c0-.3.1-.5 0-.8.9-1.3 1.7-2.6 2.6-3.9.2-.3.4-.6.5-.8 3.5-4.2 9.3-6.4 10.9-12.3.1-.2.2-.4.2-.6 1.7-.5 2.1-1.6 2-3.2 1.1-.5 2.1-1 3.2-1.4.9 1.8 1.7 3.6 2.6 5.4-3.1 1.4-7.1 1.6-6.1 7 .8 4.2-5 .8-5.7 3.9l-.1.1c-1.6.7-3.2 1.5-4.9 2.2 1.2.4 2.8.6 3.6 1.4 1.2 1.2 1.9 2.9 2.8 4.5-2.2.9-4.5 2.8-6.6 2.6-2.3-.1-4 .5-5.9 1.3-3.5-.5-.5-2.8-1-4 .7-.5 1.3-1 1.9-1.4z"/><path class="st5" d="M95 64.1c-.9 1.3-1.7 2.6-2.6 3.9-1-.6-1.9-1.1-2.9-1.7 1.7-.4 2.1-1.5 1.8-3.1.9-3.1 5.5-3.9 5.1-7.9 2-4.4 4.7-7.3 10-4.3-1.6 5.9-7.4 8.1-10.9 12.3-.1.3-.3.6-.5.8z"/><path class="st2" d="M96.5 55.3c.5 4-4.1 4.8-5.1 7.9-3.8 1.8-2.9-2.6-4.7-3.5 3.3-1.5 6.5-2.9 9.8-4.4z"/><path class="st5" d="M106.6 47.1c-2.6-.4-2.1-2.1-1.5-3.7.1-.4.7-.6 1.1-.8.2 1.5.3 3 .4 4.5zM111.9 45.8c-1.1.5-2.1 1-3.2 1.4.3-2 .6-4.2 3.2-1.4z"/><path class="st15" d="M118.6 53.2c-1.2 1-2.6 1.8-4.2 1-.2-.1.1-1.4.2-2.1 1.3.3 2.7.7 4 1.1z"/><path class="st5" d="M108.7 47.2c.2 1.6-.3 2.8-2 3.2 0-1.1-.1-2.2-.1-3.3.7.1 1.4.1 2.1.1z"/><path class="st3" d="M86.6 53.3c.3 0 .7.1 1 .1l-.9 2.4c0-.9-.1-1.7-.1-2.5z"/><path class="st5" d="M117.8 32.2c.3-.3.6-.7.9-1-.3.3-.6.7-.9 1z"/><path class="st3" d="M85.6 59.2h-.5l-.5-.1c.3.1.7.1 1 .1z"/><path class="st11" d="M79.6 172.3c-3-2.4-5.9-4.8-8.9-7.1 4.4 1.5 4.6-5.9 9-4.2 2.4 1 4.9 2.2 5.9-1.7 2-1.8-.9-2.1-1-3.3 4.3-1.5 8.6-3 12.9-4.6.4-.1.8-.1 1.1-.2 3.1-.5 6.7-.5 5.8-5.3 0-.3.2-.5.4-.7.4-.3.9-.6 1.3-1-.6-.3-1.1-.7-1.7-1-.3-.7-.6-1.5-1-2.2.4-.5 1-1.4 1.1-1.3 1.7 1 3.6 2.5 4.6-.5.7-2.1 1-4.8-1.8-6-4.6-2-1.3-4.5.1-5.7 1.7-1.6 2.5-3.3 3-5.3.7-.6 1.3-1.1 2-1.7 8.4-3.1 16.8-6 25.1-9.4 11-4.5 21.7 2.5 23.9 16-6.3 1.2-6.2 1.2-8.2-4.2-.6-1.6-2.4-.8-3.4-.3-1.8 1-5.1.9-4 4.5.5 1.8 1.1 3.5 3.1 4.1 1 .3.3-5.1 2.1-.9.6 1.5 1.6 6.8-3.2 6.8-3 0-5.5 6.1-8.8.8-1 .8-2.8 1.6-2.9 2.5-.3 3.5-2.4 1.9-4.1 1.7-1.2-.2-2-1.4-1.3-2.1 1.3-1.2.7-4.8 4-3.4 1.3.5 2.9-.8 2.6-1-1.4-1.1-.4-5.1-2.8-3.7-5.3 3.1-9.3-.7-13.6-2-3.4-1-4.2.8-5.4 2.7-.5.8-.6 2.9-.1 3.2 1.7.9.8-1.4 1.8-1.8.9-.3 2-1.4 2.4-1.1 1.1.7.5 1.7-.3 2.4-2.3 2.1-1.8 4.9-1.8 7.6-4.7-2.1-5.5 3.3-8.6 4.4-1.3.5-2.5 1.5-2.6 3.4-.2 4 3.2 10.4-5.7 9.1-.2 4.1-1.9 6.9-6.3 7.5-4.4 1.7-8.7 3.3-13.1 5-.3-.2-1-.1-1.6 0z"/><path class="st1" d="M131.5 96c5 .3 9.9.7 14.9 1 .8.9 3.7-1.6 3.1 1.8-2.9.1-5.8.3-8.8.4-.9 0-1.8.1-2.7.1.9.2 1.8.5 2.7.7 1.3.5 2.6 1 3.9 1.6 1.6.8 3.2 1.5 4.8 2.3-1.6.4-3.2.9-4.8 1.3l-2.1.9c-1.3.3-2.7.6-4 .9-.9.1-1.9.1-2.8.2-1.7 1.7-4.9-.1-6.1 2.7-4.9 1.1-9.9 2.3-14.8 3.4-1 3.9-6 .1-7.2 3.7-8.9.9-17.9 2.8-26.7-.7-1-.7-1.8-2.6-1.4-2.5 2.1.1 2.4-2.9 5.2-2 5.1 1.5 9.6.5 9.9-6.3 7.6-2.5 14.9-1.1 22 2.1 3.8 1.7 7 1.5 9.2-2.4h.7c.1.4.3.8.4 1.2.1-.1.3-.2.3-.2-.2-.4-.4-.7-.7-1-.8-2.4 4.6-5.7-1-7.4.5-.5.9-.9 1.3-1.4 1.2 0 2.4-.1 3.6-.1.8 1.5-2.2 3.7.4 4.7 1 .4 3.6-.5 3.9-1.4 1-2.8-2.5-1.9-3.2-3.6zm-1.9 8.1l.4-.2-.2-.2-.2.4-.4.2.2.2.2-.4z"/><path class="st11" d="M83.6 95.1c8.7-1.7 17.4-3.3 26.1-5 1.5.6 3.2 2.2 3.8-1l.2-.1c2 .7 3.9 1.4 5.9 2.1-10.6 3.8-21.2 7.5-31.7 11.4-3.7 1.4-5.6 5-8 7.2-6.5 6-5 8 .6 12.8 1.6 1.4-4.5.2-5.8 2.7-2.3-1.9-5.4-2.8-6.3-6.5-2.3-9.7 2.4-17.9 12.3-20.7 1-.4 4.8.9 2.9-2.9z"/><path class="st8" d="M110.7 122.2c-.6 2-1.3 3.7-3 5.3-1.4 1.2-4.7 3.7-.1 5.7 2.8 1.2 2.4 3.8 1.8 6-1 3-2.9 1.5-4.6.5-.1 0-.7.9-1.1 1.3-5.7-2.6-9.7-8.1-15.9-9.9 3.3-2.6 8 .9 11.1-2.6.6-.2 1.3-.3 1.9-.5 3-2.3 5.7-5.3 9.9-5.8z"/><path class="st10" d="M84.7 155.9c.1 1.2 2.9 1.5 1 3.3-5.9-.9-10.3-6.5-16.9-5.3-.7-5.1-5.8-6.9-8.1-10.8 1.7-.8 4.1-.3 4.8-2.8 4.5.9 9 2.2 13.6 2.7 3 .4 3.7 1.6 3.2 4.2-1.9.1-5.4 1.1-4.8 1.9 2 2.5 3.3 6.2 7.2 6.8zm-16.3-12.6c-1.3.9-4.1 0-3.3.7 2.4 2.2 5.8 3.3 8.9 4.8.3.1.9-.5 1.4-.8-1.9-2.3-3.8-4.7-7-4.7z"/><path class="st4" d="M119.6 91.1c-2-.7-3.9-1.4-5.9-2.1 16.1-4.1 32.2-8.3 48.4-12.3.6-.1 1.3.4 2 .6-.8.5-1.5 1.2-2.4 1.5-14.1 4.2-28.1 8.2-42.1 12.3zM83.6 95.1c1.9 3.8-1.9 2.6-2.9 2.8-9.9 2.8-14.6 11.1-12.3 20.7.9 3.7 4 4.6 6.3 6.5 0 .6 0 1.3-.1 1.9-1.8.2-3.6.6-5.1-.9-1.5-5.3-7.3-8.9-6.3-15.2.5-.5 1-1.1 1.5-1.6 1.6-.6 1.8-1.9 1.7-3.3l.1-.1c3.4-2.9 1.9-5.8.2-8.8 5.6-.7 11.3-1.3 16.9-2z"/><path class="st5" d="M60.7 143.1c2.3 3.9 7.4 5.7 8.1 10.8-.8.4-1.5.9-2.3 1.3-3.2-.7-4.4.7-3.8 3.8-2.2-2.3-1.1 6.6-4.2 1.2l-.9-6.3c1.6-.2 3.1-.4 4.7-.6-.8-1.5-1.5-3.1-2.4-4.6-2.4-3.6-7.1-5.3-8.5-9.8 3 1.5 6.2 2.8 9.3 4.2z"/><path class="st8" d="M84.7 155.9c-3.8-.7-5.1-4.3-7.2-6.8-.6-.8 2.8-1.8 4.8-1.9 3.9-2.9 6.5 2.5 10.2 1.6.5 3.2 3.7 1 5.1 2.5-4.4 1.6-8.6 3.1-12.9 4.6z"/><path class="st7" d="M144.7 105.2c1.6-.4 3.2-.9 4.8-1.3 1.1-.2 3.1 1 3.3-.8.2-2-1.7-2-3.2-1.9-1.6.1-3.3.3-4.9.4-1.3-.5-2.6-1-3.9-1.6-.1-.3-.1-.6 0-.9 2.9-.1 5.8-.3 8.8-.4 2.8.3 5.5.6 8.3-.5 2.6-1 3.6 1.5 4.2 3.2.8 2.4-1.1 1.8-2.6 1.9-3.1.1-1.4 2.7-1.8 4.2-.3 1.2 1.4 2.8-.4 3.4-.6.2-1.8-1.1-2.7-1.8-.3-.2-.6-.5-.9-.7l-.3-.3-.7-.7-.2-.2c-2.7-.7-5.3-1.3-7.8-2z"/><path class="st2" d="M125.9 105.1c-2.3 3.9-5.4 4.1-9.2 2.4-7.1-3.2-14.4-4.7-22-2.1-.7-.3-1.4-.7-2.1-1 .7-.6 1.3-1.3 2.1-1.6 4.4-1.8 9-2.4 13.5-.8 5.6 2.1 12.2-.7 17.7 3.1z"/><path class="st15" d="M60.7 143.1c-3.1-1.4-6.3-2.7-9.4-4.1-.3-.6-.5-1.3-.8-1.9-.3-1.1-.6-2.2-1-3.2 2.4-3.9 4.7-.3 6.5.5 3.4 1.4 6.3 3.9 9.4 5.9-.6 2.5-3 2.1-4.7 2.8z"/><path class="st16" d="M62.7 159c-.5-3.1.6-4.5 3.8-3.8 3.3 4.6 10 1.1 13.2 5.7-4.5-1.7-4.6 5.8-9 4.2-.5-.1-1.1-.2-1.6-.2-.9-1.8-1.9-3.5-4.1-3.9-.8-.6-1.6-1.3-2.3-2z"/><path class="st6" d="M68.5 135c2.1-.7 4.3-1.4 6.4-2 2.2.5 4.5 1.1 6.7 1.6.1.3.3.5.5.6v.4l.4.1c2.3 1.1 4.5 2.2 6.8 3.3-.2.6-.5 1.3-.7 1.9-6.9-1.1-14.3-.8-20.1-5.9z"/><path class="st7" d="M80.9 116.3c8.8 3.5 17.7 1.6 26.7.7-2.9 2.9-12 4.6-19.6 3.7-3.1-.4-6.8.3-7.1-4.4z"/><path class="st16" d="M126.9 96.2c-.4.5-.9.9-1.3 1.4-.5.2-1 .3-1.4.6-3.6 2.9-7.1 1.7-10.6-.2-.5-.3-.8-.8-1.2-1.2 2.8-1 5.5-2.1 8.4-3 1.2-.4 2.6-.4 3.9-.6.8.7 1.5 1.4 2.3 2.1-.1.3-.1.6-.1.9z"/><path class="st4" d="M87.6 131.1c6.3 1.8 10.2 7.3 15.9 9.9.3.7.6 1.5 1 2.2-5.6-2.7-11.1-5.4-16.7-8-.2-1.2-.8-2.1-2.2-2.1v-1.2c.7-.3 1.4-.5 2-.8zM37.8 142.2c2.6-1.7 5.1-3.4 7.7-5.1.1.7.2 1.4.2 2.1-.1.6-.1 1.2-.2 1.8-3.1 1.8-3.2 3.5 0 5.2 0 .9.1 1.8.1 2.7-.7 0-1.3 0-2-.1-.3-.3-.7-.5-1-.8-.4-.3-.7-.5-1.1-.8-.9-.4-1.7-.9-2.6-1.3-.8-.3-1.6-.6-2.3-.9.5-.9.8-1.9 1.2-2.8z"/><path class="st6" d="M58.6 126.3c2.9 2.6 6.7 4.4 8.1 8.5-6.9 2.7-6.9-6.4-11.9-6.9-.7-.3-1.4-.7-2.1-1l-1-1c0-.3 0-.6-.1-.9 2.3.5 4.7.9 7 1.3z"/><path class="st10" d="M110.7 122.2c-4.2.5-6.9 3.6-10.1 5.8.6-3.6-5-4.3-4.4-4.4 5.4-1.2 10.6-4.3 16.4-3.1-.6.5-1.3 1.1-1.9 1.7z"/><path class="st5" d="M63.2 111c-1 6.3 4.7 9.9 6.3 15.2-.3.6-.6 1.3-.9 1.9-.3.6-.6 1.2-.9 1.9-.7-1.3-1.3-2.6-2-3.9.4-.2.8-.3 1.1-.5-.5-.5-.9-1-1.4-1.4v.1c-1.7-4.4-5.4-8-5.8-13 1.3-.2 2.4-.2 3.6-.3z"/><path class="st10" d="M87.6 131.1c-.6.2-1.3.5-1.9.7-.7 0-1.5 0-2.2.1-.7-1.4-2.8-2.6-1.7-4.2.5-.7 2.7-.5 4.2-.4 4.3.3 8.5.8 12.8 1.2-3.1 3.6-7.9.1-11.2 2.6z"/><path class="st4" d="M57.6 154l.9 6.3c-1.2.2-2.5.4-3.7.7-.9-2.4-2.3-4.3-5.1-4.7l-.2-.1c-1.1-2.3-2.2-4.6-3.2-6.8 4 .7 5 9 11.3 4.6z"/><path class="st5" d="M66.7 97.1c1.7 3 3.2 5.9-.2 8.8-1.4-.7 3.7-8.1-3.4-3.1-2.3 1.6-1.3-1.6-1.4-2.6-.3-1.9-.1-3.9-.1-5.9 1 .3 2.1.7 3.2 1 .6.7 1.2 1.2 1.9 1.8z"/><path class="st6" d="M45.6 127.3c-2.4-.1-4.9-.2-7.3-.3 3.1-6.4 8.9-4.2 14-4.5-.2.9-.5 1.8-.7 2.7-.3 0-.5-.1-.8 0-3.5-3.4-3 2.4-5.2 2.1z"/><path class="st10" d="M114.8 113.3c4.9-1.1 9.9-2.3 14.8-3.4.4.2 1.3.5 1.2.6-1 2.8-13.7 5-16 2.8z"/><path class="st4" d="M104.5 145.8c.9 4.9-2.7 4.8-5.8 5.3.8-2.9 1.6-5.9 5.8-5.3z"/><path class="st8" d="M45.8 139.2c-.1-.7-.2-1.4-.2-2.1h.1c.4-.2.7-.4 1.1-.7 1-.8 1.9-1.7 2.9-2.5.3 1.1.6 2.2 1 3.2-2.1 0-1.6 5.4-4.9 2.1z"/><path class="st3" d="M163.7 119.2c1.3.7 2.9.9 2.5 2.4-.3 1.1-.6 3.1-2.3 2.6-.9-.3-1.5-2-1.8-3.2-.2-.4 1-1.2 1.6-1.8zM46.3 149.2c1.1 2.3 2.2 4.6 3.2 6.8-3.5-1.1-5.5-3.5-5.8-7.2.7 0 1.3 0 2 .1.1.2.3.3.6.3zM81.6 134.6c-2.2-.5-4.5-1.1-6.7-1.6-.1-.3-.2-.7-.2-1 3-1.2 5.4-.5 6.9 2.6zM49.6 156.2c2.8.4 4.2 2.3 5.1 4.7-4.2 1.3-3.7-2.7-5.1-4.7z"/><path class="st5" d="M144.7 105.2c2.6.7 5.1 1.4 7.7 2-3.2-.7-6.8 1-9.8-1.1.6-.3 1.3-.6 2.1-.9z"/><path class="st7" d="M88.6 141c.2-.6.5-1.3.7-1.9 1.2.7 2.4 1.3 3.7 2-1.5.8-3 1.4-4.4-.1z"/><path class="st3" d="M169.3 118.3c.4 2.5.9 5-1.8 6.7.6-2.3 1.2-4.5 1.8-6.7zM68.6 128.1c.3-.6.6-1.3.9-1.9 1.5 1.5 3.3 1.1 5.1.9.2 0 .4 0 .5.1.2.2.2.4.3.7-2.3.1-4.6.1-6.8.2z"/><path class="st4" d="M113.5 89.2c-.5 3.2-2.3 1.5-3.8 1 1.3-.4 2.5-.7 3.8-1z"/><path class="st5" d="M135.7 107.2c.9-.1 1.9-.1 2.8-.2.3.4.6.7.9 1.1-1.3-.2-3.2 2.4-3.7-.9z"/><path class="st3" d="M37.8 142.2c-.4.9-.8 1.9-1.2 2.8-.6-.4-1.1-.9-1.7-1.3 1-.5 2-1 2.9-1.5z"/><path class="st14" d="M119.6 82.8c1.6-.2 3.3-.5 4.9-.7l-1.8 1.2c-1-.2-2-.3-3.1-.5zM124.6 82.1c1.4-1.7 3.2-.9 4.9-.9-1.4 1.4-3.1 1.1-4.9.9z"/><path class="st3" d="M85.7 133.1c1.4 0 1.9.9 2.2 2.1-1.4-.1-2.2-.7-2.2-2.1z"/><path class="st4" d="M104.5 143.2c.6.3 1.1.7 1.7 1-.4.3-.9.6-1.3 1-.2-.7-.3-1.4-.4-2z"/><path class="st14" d="M129.7 81.2c.5-1 1.2-1.1 1.9-.2-.6 0-1.3.1-1.9.2z"/><path class="st5" d="M62.6 159c.8.7 1.6 1.3 2.4 2-.8-.6-1.6-1.3-2.4-2z"/><path class="st3" d="M83.5 131.9c.7 0 1.5 0 2.2-.1v1.2c-.8-.3-1.5-.7-2.2-1.1zM71.5 130.6c-.6.1-1.2.1-1.8.2.6-.1 1.2-.1 1.8-.2z"/><path class="st5" d="M52.7 126.9c.7.3 1.4.7 2.1 1-.7-.3-1.4-.6-2.1-1z"/><path class="st3" d="M36.6 145.1c.8.3 1.6.6 2.3.9-.7-.3-1.5-.6-2.3-.9zM82.6 135.8l-.4-.1v-.4c.1.1.3.2.4.5z"/><path class="st4" d="M46.7 136.4c-.4.2-.7.4-1.1.7.4-.2.7-.5 1.1-.7z"/><path class="st3" d="M41.6 147.3c.4.3.7.5 1.1.8-.4-.3-.7-.5-1.1-.8z"/><path class="st5" d="M153.6 108.4c.3.2.6.5.9.7-.3-.2-.6-.5-.9-.7zM152.6 107.4l.7.7c-.2-.2-.5-.4-.7-.7zM50.8 125.1h.8c.1.3.1.6.1.9l-.9-.9z"/><path class="st14" d="M136.7 74.3c-5 4-11.3 4.8-17.1 6.7-1.2.4-2.7.1-3 1.9-3.9 1-7.9 2.1-11.8 3.1-1 .2-2.4.5-2.9-1-.1-.4.3-1.5.6-1.6 6-1.7 10.5-6.7 17-7.3 5.8-.6 11.5-1.2 17.2-1.8z"/><path class="st1" d="M92.6 82.9c-.4-1.6-.8-3.3-1.1-4.9.1-.3.1-.6.2-.8 4.9-1.5 9.8-3.1 14.7-4.6.8-.2 1.8.1 2.7.2-.5.8-.8 1.9-1.6 2.3-4.9 2.7-9.9 5.2-14.9 7.8z"/><path class="st10" d="M91.7 77.2c-.1.3-.1.6-.2.8-2.2 0-4.4.1-6.5.1 1.5-2.9 1.6-6.9 5.6-8.1.6 1.3-2.5 3.5 1 4-.3.7-.7 1.3-1 2-.6.1-1.3.2-1.9.2l.3.6c.5-.3 1.1-.6 1.6-.8.3.5.7.8 1.1 1.2z"/><path class="st15" d="M105.6 66.1c2.7 0 5.5-.6 7 2.9.7 1.6 1.1 3.9.2 4.3-1.6.7-1.7-1.8-1.8-2.6-.5-3.4-6.4.1-5.4-4.6zM105.6 66.1c-2.5-.2-1.9-2.7-3-4l.1-.1c2.4.3 3.8 1.4 2.9 4.1z"/><path class="st2" d="M96.4 195.2c6.5-2.6 10.8-.4 13.1 6.2-1.3-.3-2.6-.6-4-1-2.9-1-5.8-1.9-8.7-2.9-.1-.8-.2-1.6-.4-2.3z"/><path class="st5" d="M96.8 197.5c2.9 1 5.8 1.9 8.7 2.9-.4 1.7 3 2.9 1.1 4.1-1.1.7-3.7-.5-5.3-1.4-2.2-1.2-3.9-3-4.5-5.6z"/><path class="st15" d="M167.7 133.1v2c-.5 0-1 .1-1.5.1-.2-.7-.4-1.3-.6-2 .6 0 1.3 0 2.1-.1z"/><path class="st14" d="M166.2 135.3c.5 0 1-.1 1.5-.1 1.9.4 2.6 1.8 1.4 3.1-1.2 1.2-1.6-.9-2.6-1.3-.1-.6-.2-1.2-.3-1.7z"/><path class="st1" d="M59.7 111.2c.4 5 4.1 8.6 5.8 13-4.5-1.8-8.5-4-8.1-9.9 0-.4-.2-1.1-.5-1.3-10.4-7.9 2.6-2.4 2.5-4.4.2.9.3 1.8.3 2.6z"/><path class="st5" d="M51.6 125.1c.2-.9.4-1.8.7-2.7 2.8-.4 5.7-.6 7.8 1.4 1.1 1-.6 1.8-1.5 2.5-2.3-.4-4.7-.8-7-1.2z"/><path class="st1" d="M65.5 124.1c.5.5.9 1 1.4 1.4-.4.2-.8.3-1.1.5-.1-.6-.2-1.2-.3-1.9z"/><path class="st6" d="M37.8 127.1c-.4.5-.8 1.1-1.2.1.4-.1.8-.1 1.2-.1z"/><path class="st5" d="M66.4 106c.2 1.5 0 2.8-1.7 3.3-.2-1.4-.3-2.9 1.7-3.3z"/><path class="st4" d="M57.6 95.1c.7-.3 1.4-.7 2-1-.4 1.2-.4 2.8-2.2 2.8.1-.6.1-1.2.2-1.8zM51.6 97.1c.9-1.1 1.9-1.2 3-.3l-3 .3zM24 78c3.5 3.7 3 8.5 3.6 13-.3 0-.7.1-1 .1-.9-4.4-1.7-8.7-2.6-13.1z"/><path class="st9" d="M182.2 53.1c-3.1-.1-3.8-2.1-3.7-4.5 0-2.6 1.6-4.1 4.1-4 2.6 0 4 1.7 3.9 4.2 0 2.8-1.9 4.1-4.3 4.3zM212 60.4c3 .2 3.5 2.3 3.5 4.1 0 2.5-2 3.6-4.3 3.6-2.1 0-2.6-1.7-2.6-3.5 0-2.5 1.4-3.9 3.4-4.2z"/><path class="st14" d="M168.6 128c1.2-1.7 2.5-3.3 3.7-5 1.5.8 5.3-.8 4.5 1.5-1 2.9-4.8 3.7-8.2 3.5zM172 130.6c.5 1.1 1 1.8 1 2.5 0 .8-.5 1.7-.7 2.5-.4-.2-1.3-.6-1.3-.7.2-1.3.6-2.5 1-4.3z"/><path class="st9" d="M131.5 96c.7 1.7 4.2.8 3.4 3.4-.3.8-2.8 1.8-3.9 1.4-2.6-1 .4-3.1-.4-4.7.3-.1.6-.2.9-.1z"/><path class="st1" d="M49.6 83.1c-.1.8-.3 1.6-.4 2.5-2.3-.2-1.9-1.2-.8-2.5h1.2zM77.7 84.4c0-1.4-.1-2.9-.1-4.3 2.4-.2 3.2 1 3.1 3.2-1 .4-2 .8-3 1.1z"/><path class="st10" d="M92.4 68.8c-.6.4-1.2.8-1.9 1.3.7-.4 1.3-.9 1.9-1.3zM95 64.1c.2-.3.4-.6.5-.8-.1.3-.3.6-.5.8z"/><path class="st9" d="M79.8 160.9c-3.2-4.6-10-1.1-13.2-5.7.8-.4 1.5-.9 2.3-1.3 6.5-1.2 11 4.4 16.9 5.3-1.2 3.9-3.6 2.7-6 1.7z"/><path class="st3" d="M144.7 101.6c1.6-.1 3.3-.3 4.9-.4 1.5-.1 3.5 0 3.2 1.9-.2 1.7-2.1.5-3.3.8-1.6-.8-3.2-1.5-4.8-2.3z"/><path class="st9" d="M140.7 99.2c-.1.3-.1.6 0 .9-.9-.2-1.8-.5-2.7-.7 1-.1 1.8-.2 2.7-.2zM126.6 105.1c.2.3.5.7.7 1 0 0-.2.2-.3.2-.1-.4-.3-.8-.4-1.2-.1.1 0 0 0 0zM129.6 104.1l.2-.4.2.2M129.6 104.1l-.2.4-.2-.2M68.4 143.3c3.2 0 5.1 2.4 7 4.7-.5.3-1.1.9-1.4.8-3.1-1.4-6.5-2.5-8.9-4.8-.8-.7 2 .2 3.3-.7z"/><path class="st11" d="M46.3 149.2c-.2 0-.4-.1-.6-.3 0-.9-.1-1.8-.1-2.7V141c.1-.6.1-1.2.2-1.8 3.3 3.3 2.9-2.1 4.8-2.1.3.6.5 1.3.8 1.9 1.4 4.5 6.1 6.2 8.5 9.8.9 1.4 1.6 3 2.4 4.6-1.6.2-3.1.4-4.7.6-6.3 4.4-7.3-3.9-11.3-4.8z"/><path class="st8" d="M45.6 141v5.2c-3.2-1.7-3.2-3.5 0-5.2z"/><path class="st16" d="M90.6 76.1c-.5.3-1.1.6-1.6.8l-.3-.6c.6 0 1.3-.1 1.9-.2z"/></svg>
