<svg class="ground" xmlns="http://www.w3.org/2000/svg" viewBox="0 0 389.1 48.1"><defs><style>.st0 { fill: #7bb079; } .st1 { fill: #355249; }</style></defs><path class="st0" d="M278 5.9c2.6-3.4 6.3-1.6 9.5-1.8 8.7-.7 17.5-1 26.3-.8.5 1.6 1.7 2 3.1 1.8 10.9-2.2 22.2 4 33-1.8.5-.3 1.5.4 2.3.5 8.5 1.1 16.6-.9 24.8-2.8 4-.3 8.1-.6 12.1-.9 0 15-.1 30 .1 45 0 2.4-.4 3.1-3 3.1C258.4 48 130.7 48 3 48.1c-2.6 0-3.1-.7-3-3.1.1-10.3.1-20.6.1-31 4.7-3.6 10.1-1.5 15.2-1.7 8.6-.4 17.2.7 25.9.1 9.7-.7 19.3-3 29.1-.9 1.3 2.2 3.5 1.5 5.4 1.5 17.8 0 35.6.3 53.4-1 12.6-.9 25.2-1.7 37.8-1.9 16.3-.3 32.6.1 48.9-.1 8.4-.1 16.9.8 25.3-.9.8-.1 1.5-.2 2.3-.3.5-.5 1-.9 1.6-1.4.4 0 .8-.1 1.3-.1 1.6 3.3 4.5.8 6.7 1.1 8.3 1.4 16.7-.1 25-2.5zm-53.8 14.7c0-.1 0-.2.1-.4-2 .2-4 .4-5.9.7-1.3.2-2.9.6-2.8 2.2.1 1.3 1.5 1.5 2.6 1.9 4.7 1.9 9.7 1.9 14.7 2.1 10.6.3 21.1 2.3 31.6 3.5 3.2.4 4.3 4.3 7.2 3.9 5.8-.9 11.5-.7 17.3.3 2.7.5 5.3-1.3 5.9-3.6.6-2.5-2.2-3.4-4.2-4.1-1.6-.6-3-1.3-4.2-2.5-1.2-1.1-2.5-2.1-4.5-1.3-6.4 2.6-13 1.5-19.6.8-12.8-1.3-25.5-2.3-38.2-3.5z"/><path class="st1" d="M241 9c-8.4 1.7-16.9.8-25.3.9-16.3.2-32.6-.2-48.9.1-12.6.2-25.2 1-37.8 1.9-17.8 1.3-35.6 1-53.4 1-1.9 0-4.1.7-5.4-1.5 12.8-.3 25.6-1.3 38.3-.5 7.3.5 14.3-.9 21.3-1.3 11-.6 21.9-.1 32.8-.8 16.4-1 32.7-1.1 49.1-.8 7.9.2 15.9-.3 23.9-.4 1.9.1 4-.4 5.4 1.4zM377 .9c-8.2 1.9-16.3 3.9-24.8 2.8-.8-.1-1.8-.8-2.3-.5-10.7 5.8-22.1-.4-33 1.8-1.4.3-2.6-.2-3.1-1.8 8.7-.5 17.4.2 26-.4 10.3-.7 20.8.1 31-2.2 2-.5 4.1-.8 6.2.3zM278 5.9c-8.2 2.4-16.6 3.9-25.1 2.5-2.2-.4-5 2.2-6.7-1.1 8.7-.2 17.4-.1 26-1.8 1.9-.4 3.9-.6 5.8.4zM244.9 7.4c-.5.5-1 .9-1.6 1.4.1-1 .5-1.6 1.6-1.4zM224.2 20.6c12.7 1.2 25.4 2.2 38.1 3.5 6.6.7 13.2 1.9 19.6-.8 1.9-.8 3.2.2 4.5 1.3 1.2 1.2 2.6 1.9 4.2 2.5 2 .7 4.8 1.6 4.2 4.1-.6 2.4-3.2 4.1-5.9 3.6-5.8-1-11.5-1.2-17.3-.3-2.9.4-4-3.5-7.2-3.9-10.5-1.3-21-3.2-31.6-3.5-5-.1-9.9-.2-14.7-2.1-1.1-.4-2.5-.6-2.6-1.9-.1-1.7 1.5-2 2.8-2.2 2-.3 3.9-.5 5.9-.7v.4z"/></svg>
