<svg xmlns="http://www.w3.org/2000/svg" viewBox="0 0 148.7 88.3"><defs><style>.st0 { fill: #2a322c; } .st1 { fill: #444f45; } .st2 { fill: #384236; } .st3 { fill: #a4a95a; } .st4 { fill: #8a9261; } .st5 { fill: #617082; } .st6 { fill: #555863; } .st7 { fill: #69765a; } .st8 { fill: #b4b098; } .st9 { fill: #8f926c; }</style></defs><path class="st0" d="M85.3 52l2.7-3c.9-.6 1.7-1.2 2.6-1.8-1.5-.3-3-.5-4.6-.8l.2-.3-.2.3c.2-.8.3-1.6.5-2.4 2.5.4 4.6 0 5.3-2.9.1-.3.1-.6.2-.9-.2-.7-.4-1.5-.6-2.2-.3-.6-.6-1.2-1-1.8-.6-3.1-1.6-6.6-5.1-6.4-6.3.3-8.8 6.7-13.1 10.2-.6-.4-1.2-.7-1.9-1.1 3.8-4.6-6.9-8.1-.9-12.9 4.3-5.8-1.6-4.6-3.9-5.8 6-2.1 11.9-4.1 17.9-6.2.6-.2 1.3-.4 1.9-.6l2.1-.3c-.8 1.3-1.5 2.7-2.3 4 1.8 4.4 4.4 6.1 9.7 6.3 5.7.2 12.8-.5 16.2 6.4-.6.1-1.3.1-1.9.2-3.5-1.3-7-2.6-10.5-4-1.4-.4-2.8-.7-4.3-1.1-.1.4-.3.8-.4 1.2 1.5.6 2.9 1.2 4.4 1.7 3.1 2.1 5.1 6.2 9.9 4.8.4.3.7.5 1.1.8-1.7 1.1-3.4 2.2-5.7 3.7 2.1.4 3.4.6 4.6.9 1.5 1.9 3.1 3.7 4.6 5.6-1.1.4-2.2.8-3.3 1.1-.1.3-.2.5-.4.8-.9 1.7-1.8 3.4-2.8 5.2-2.5 3.9-5.7 1.8-8.7 1-3.6-4.1-6.4-1.2-9.2 1-1.1 0-2.1-.3-3.1-.7zm7.1-20c-.1-.1-.3-.1-.4-.2.1.1.2.2.4.2.3 2.4.7 4.7 1 7l2.7 1.2c-.3.6-.6 1.1-.9 1.7.3 4.5 3.6 1.3 5.4 2.1 3.6-2 1.2-4.5.7-6.9-1.3-.7-2.6-1.3-3.9-2l1.8-3.6c-1.3.2-2.5.4-3.8.6-1-.1-2-.1-3-.1zm-7.7-9.3c.1-.6.3-1.2.4-1.7-2.3-.5-4.6-1.1-6.9-1.6-.2 0-.6.9-1 1.3 2.5.7 5 1.4 7.5 2zM75 33.5c.4-.4.8-.7 1.3-1.1-1.4-1.7-2.8-3.3-4.2-5-.4.5-1.2 1.3-1.2 1.4 1.3 1.6 2.7 3.1 4.1 4.7zM142.7 82c-1.3 6.5-8 7.1-11.1 5.6-16-7.6-32.1.7-47.9-1.6-5.5-.8-11.1-1.3-16.6-4.4 7.3-.9 14.5-1.7 25.6-3-6-.4-8.1-.6-10.3-.7 11.8-3.9 23.6-1.7 35.4-.3 5.6.6 11.1 1.6 16.6 2.4 1.9-2.7 3.8-5.4 1.8-8.9.1-.5.1-1 .2-1.4.7 1.5 1.3 3.1 2.2 4.6 1.4 2.5-6.3 9.9 4.1 7.7z"/><path class="st1" d="M10.4 60c-4 .5-10.6.4-10.4-2.9.4-6.7 6.2-11.6 11.8-15.3C35.9 25.7 61.7 13 89.6 5c1.7.9 4.5-1.8 5.3 1.8-12.7 4-25.8 6.9-37.3 14.1-17.3 6.7-34.3 13.9-47.3 27.8-1.1 1.4-2.1 2.7-3.2 4.1-1.1 1-2.1 2-3.2 3 1.5.5 3 .9 4.5 1.4.7.2 1.3.4 2 .7 1.7.2 3.3.4 5 .6-1.7.5-3.3 1-5 1.5z"/><path class="st2" d="M134.4 80c-5.5-.8-11.1-1.8-16.6-2.4-11.8-1.3-23.6-3.6-35.4.3-2.1-.2-4.1-.5-6.2-.7 0-.6 0-1.3.1-1.9 13.3 0 26.7-.2 40 .1 4.7.1 9.3 3.8 14.2.5-4.6-3-9.1-6.3-13.9-8.9-4-2.2-8.6-3.4-9.3-8.9h2c1.1.6 2.2 1.2 3.4 1.8.6-.3 1.3-.6 1.9-1 1.8 3.9 3.8 7.5 9.2 6.1.9-1.3 1.8-2.7 2.7-4-1.6-.6-3.2-1.3-4.8-1.9 0-.3-.1-.7-.1-1 5.9-3.1 9.7 1.8 14.3 3.7-3.1 2.9-.3 5.3.7 7.9-.1.5-.1 1-.2 1.4-1.4-.8-2.8-1.7-4.2-2.5.6 4 1.4 7.7 2.2 11.4z"/><path class="st3" d="M57.6 20.8c11.5-7.1 24.6-10 37.3-14.1 3 .6 4.8.1 3.6-3.6 6.3-1.4 12.4-5.6 19.1-1.4.1.6.3 1.3.4 1.9-.1.2-.1.3-.1.5-.3.3-.5.6-.8.8-1.2 1.3-2.5 2.6-3.7 4l-2.1.9c-.4-.1-.8-.3-1.3-.4h-.1l-.4.2c-3.4.5-6.7 1-10.1 1.5h-2c-2.2-1.4-4.4-2.3-6.1.8-1.3.4-2.6.9-4 1.3l-2.1.3c-.6.2-1.3.4-1.9.6-6 2.1-11.9 4.1-17.9 6.2-1.6.3-3.2.7-4.8 1-1-.2-2-.3-3-.5z"/><path class="st2" d="M97.5 52c3 .8 6.2 2.9 8.7-1 0 .7 0 1.4-.1 2-.1.1-.3.2-.3.3.1.2.2.5.3.7v1c-.4.1-.9.1-1.3.2-8.4-.2-3.4 8.5-7.7 11.6-6.8 4.9-13 6.8-19.9.8 0-.5-.1-1.1-.1-1.6 2.7-6.8 3.5 6.5 6.1.6 6.1-3.7 11-8.4 14.3-14.6zM70.3 38.9c.6.4 1.2.7 1.9 1.1.1.3.1.7.2 1-1.3 1-2.5 2.1-3.8 3.1-.7.7-1.3 1.4-2 2-.4 1.2-.9 2.3-1.3 3.5 1.3-.1 2.7-.2 4-.3 3.8-2.8 7.7-5.6 11.5-8.5-.1-.5-.2-1.1-.4-1.6 2.6-.8 5.2-1.6 7.8-2.3l1.3 1.3c-1 1.9-2 3.8-2.9 5.7-.2.8-.3 1.6-.5 2.4-8.4-3.6-11 5.8-16.9 7.7-3.3 1.1-6.2 6.2-9.5 3.5-3.2-2.6 1.1-6 2.6-8.6 2-3.7 5.3-6.7 8-10z"/><path class="st4" d="M57.6 20.8c1 .1 2 .3 3 .4-4.4 2.5-8.7 5.1-13.1 7.6L43.6 30c-7 3.1-14 6.2-19.2 12.1V42c-.7.3-1.4.7-2.1 1h.1c-2.4 1.6-4.8 3.3-7.1 4.9v1l-1 1-.1-.1-2.7 1.2-1.2-2.4c13.1-13.8 30-21.1 47.3-27.8z"/><path class="st5" d="M111 30c-3.5-6.9-10.5-6.2-16.3-6.4-5.2-.2-7.9-2-9.7-6.3.7-.5 1.4-.9 2-1.4 4.9 9.2 15.2 4.3 22.2 8.5 3.8 2.3 7.4 3.8 3 8.5-.3-1-.8-1.9-1.2-2.9z"/><path class="st2" d="M111.3 9.8l2.1-.9c2.8 0 5.8.4 8.4-.3 2.2-.6 6.4 3.1 6.5-2.6 4.4.2 9.2-1.5 13 2.1-1.4-.1-2.9-.5-4.3-.3-4.5.5-2.3.9.1 1.2 1.6 5.3-4.3 4.2-5.8 6.9v-.1c-1.9.4-3.8.7-5.7 1.1-.4-.1-.8-.2-1.2-.4l7.5-5c-7.4-.5-14-1.1-20.6-1.7z"/><path class="st6" d="M141.3 8.2c-3.8-3.7-8.6-1.9-13-2.1-3.5-.6-7-1.3-10.5-1.9 0-.2.1-.3.1-.5 9.2.6 18.4.8 27.6 2 5.6.7 2.3 4 .9 6.4-.8-.1-1.5-.1-2.2-.2-.9-1.2-1.9-2.4-2.9-3.7zM136.4 69.7c-1.1-2.5-3.8-4.9-.7-7.9 4.5 6 7.8 12.4 7 20.2-10.3 2.2-2.6-5.2-4.1-7.7-.8-1.5-1.4-3.1-2.2-4.6zM135.7 61.8c-4.6-1.9-8.4-6.8-14.3-3.7-2.9-4.7-2.5-11.4-8.6-14.1-1.5-1.9-3.1-3.7-4.6-5.6 1 .3 2 .5 3 .8.4.5.8.9 1.1 1.4.3.2.5.4.8.6 5.4 9.2 14.3 14.5 22.6 20.6z"/><path class="st5" d="M111.3 9.8c6.6.6 13.3 1.2 20.7 1.9l-7.5 5c-6.1-11-15.3-2.2-22.9-3.4-1.7-.3-3.5-.2-5.2-.3.4-.6.7-1.2 1.1-1.9h2c3.4-.2 7.1 1.6 10.1-1.5l.4-.2h.1c.3.2.8.3 1.2.4z"/><path class="st2" d="M11.5 51.1l2.7-1.2c-.9 3 .2 4.3 3.3 4.1 4.3-.3 8.6-.5 13-.8.6 0 1.3-.1 1.9-.1 2.4 0 4.7 0 7.1.1.4 1 .7 2 1.1 3v.8c-.3.2-.6.2-.9.2-.8-.2-1.6-.6-2.3-.6-.8 0-3.2-2.2-2.1 1.2-3.6-.5-7.3-1-10.9-1.4-2.7 0-5.3 0-8-.1-2.1-1.4-6.7-.4-4.9-5.2z"/><path class="st1" d="M47.5 28.9c4.4-2.5 8.7-5.1 13.1-7.6 1.6-.3 3.2-.7 4.8-1 2.4 1.2 8.3.1 3.9 5.8-1.6-9-6.5-2-9.4-1.6-4.2.7-8.2 2.9-12.4 4.4z"/><path class="st5" d="M40.5 56.9v-.8c.5-.7 1.1-1.4 1.6-2l-2.7-.9c-2.4 0-4.7 0-7.1-.1 4.7-1 9.3-2.1 14-2.9.7-.1 2.4 1.2 2.3 1.2-1.5 3.4-3.7 6.2-8.1 5.5z"/><path class="st1" d="M24.4 42.1c5.2-5.9 12.2-9 19.2-12.1-4.9 6.4-12 9.3-19.2 12.1z"/><path class="st7" d="M144.5 13.2c-5.5-.4-7 8.9-13.7 5.8.2-1 .4-2 .5-3v.1l8.1-3c1-.4 2-.7 2.9-1.1.6.3 1.2.6 1.9 1l.3.2z"/><path class="st2" d="M10.4 60c1.7-.5 3.3-1 5-1.5.7 0 1.4-.1 2.1-.1h.9c1.4-.1 2.7-.3 4.1-.4l3.9.9c-5.4.3-10.7.7-16 1.1z"/><path class="st1" d="M17.5 54c-3.1.3-4.2-1.1-3.3-4.1l.1.1 1-1v-1c2.4-1.6 4.8-3.3 7.1-4.9 1.5 5-8.7 3.9-5.2 10l.3.9z"/><path class="st6" d="M83.4 66.6c-2.6 5.9-3.4-7.4-6.1-.6.9-2.4 1.9-4.9 2.8-7.3.8.6-1.4 3.7 1.8 2.1l.3.2c.5 1.9.9 3.7 1.2 5.6z"/><path class="st7" d="M26.3 58.8l-3.9-.9c.6-.5 1.2-1.1 1.8-1.6 3.6.5 7.3 1 10.9 1.4.4.1.7.2 1.1.3-3.3.3-6.6.6-9.9.8z"/><path class="st6" d="M85.3 52c1 .3 2 .7 3 1-2 2.7-4 5.3-5.9 8l-.3-.2c-.2-1.2-.4-2.5-.6-3.7 1.2-1.7 2.5-3.4 3.8-5.1z"/><path class="st8" d="M98.5 3.2c1.2 3.6-.6 4.2-3.6 3.6-.8-3.5-3.6-.9-5.3-1.8 3-.6 5.9-1.2 8.9-1.8z"/><path class="st1" d="M87.1 15.9c-.7.5-1.4.9-2 1.4.8-1.3 1.5-2.7 2.3-4 1.3-.4 2.6-.9 4-1.3 1.4.4 2.8.7 4.2 1.1-2.9.9-5.7 1.8-8.5 2.8z"/><path class="st5" d="M111.2 39.1c-1-.3-2-.5-3-.8-1.3-.2-2.5-.5-4.6-.9 2.3-1.5 4-2.6 5.7-3.7.4.1.8.2 1.1.3-3.5 2.3 1.6 3.3.8 5.1zM17.5 54c-.1-.3-.2-.6-.2-.9 4.4 0 8.8.1 13.1.1-4.3.2-8.6.5-12.9.8z"/><path class="st4" d="M95.5 13c-1.4-.4-2.8-.7-4.2-1.1 1.7-3 3.8-2.1 6.1-.8-.4.6-.7 1.2-1.1 1.9l-.4.1-.4-.1zM131.4 16c-.2 1-.4 2-.5 3-1.7-.6-3.5-1.3-5.2-1.9 1.8-.4 3.7-.8 5.7-1.1z"/><path class="st2" d="M86.1 46.4c1.5.3 3 .5 4.6.8-.9.6-1.7 1.2-2.6 1.8-.7-.9-1.4-1.8-2-2.6zM110.4 34c-.4-.1-.8-.2-1.1-.3-.4-.3-.7-.5-1.1-.8l.9-2.7c.6-.1 1.3-.1 1.9-.2.4 1 .9 1.9 1.3 2.9-.6.4-1.3.7-1.9 1.1z"/><path class="st1" d="M105 55.2c.4-.1.9-.1 1.3-.2 1 1 1.9 2 2.9 3h-2c-.7-.9-1.5-1.8-2.2-2.8zM36.2 58.1c-.4-.1-.7-.2-1.1-.3-1.1-3.4 1.3-1.2 2.1-1.2s1.6.4 2.3.6c-1 .3-2.2.6-3.3.9z"/><path class="st2" d="M81.4 57.1c.2 1.2.4 2.5.6 3.7-3.2 1.6-1.1-1.5-1.8-2.1.4-.5.8-1.1 1.2-1.6z"/><path class="st7" d="M144.3 11.9c.7.1 1.5.1 2.2.2-.7.4-1.3.8-2 1.1l-.2-.3c.1-.3.1-.6.1-.9l-.1-.1z"/><path class="st6" d="M77.3 66c0 .5.1 1.1.1 1.6 0-.5 0-1-.1-1.6z"/><path class="st1" d="M22.4 43.1c.7-.3 1.4-.7 2.1-1-.7.3-1.4.7-2.1 1z"/><path class="st6" d="M117.6 1.8z"/><path class="st5" d="M113.1 41.2c-.3-.2-.5-.4-.8-.6.3.1.6.3.8.6z"/><path class="st8" d="M82.4 61c2-2.7 4-5.3 5.9-8 2.9-2.3 5.7-5.1 9.2-1-3.3 6.2-8.2 10.9-14.1 14.6-.3-1.9-.7-3.7-1-5.6zM88.2 37c-2.6.8-5.2 1.6-7.8 2.3-2.7.6-5.4 1.1-8.1 1.7h.1c-.1-.3-.1-.7-.2-1 4.3-3.6 6.8-9.9 13.2-10.3 3.4-.2 4.5 3.3 5.1 6.4-.8.3-1.5.6-2.3.9zM114.5 58.9c-.6.3-1.3.6-1.9 1-3-4.2-4.9-8.7-3.5-14 .2-.2.3-.5.4-.8 6.5.9 4.5 7.8 7.8 11-1 .9-1.9 1.9-2.8 2.8z"/><path class="st2" d="M117.2 56.1c-3.3-3.2-1.2-10.1-7.8-11 1.1-.4 2.2-.8 3.3-1.1 6.1 2.7 5.7 9.4 8.6 14.1-1.3-.7-2.7-1.3-4.1-2z"/><path class="st8" d="M109.1 30.2l-.9 2.7c-4.7 1.3-6.8-2.8-9.9-4.8.1-.6.2-1.2.3-1.9 3.5 1.3 7 2.7 10.5 4zM101.3 37.1c.5 2.4 2.9 5-.7 6.9l-5.4-2.1c.3-.6.6-1.1.9-1.7 1.7-1 3.5-2.1 5.2-3.1z"/><path class="st5" d="M109 45.9c-1.4 5.3.5 9.8 3.5 14l-3.3-1.8c-1-1-1.9-2-2.9-3v-1c0-.3-.1-.7-.1-1 0-.7 0-1.4.1-2 .9-1.8 1.8-3.5 2.7-5.2z"/><path class="st9" d="M86.6 43.9c1-1.9 2-3.8 2.9-5.7.7-.1 1.3-.2 2-.3.2.7.4 1.5.6 2.2-.2.3-.3.6-.1.9-.8 2.9-3 3.3-5.4 2.9z"/><path class="st1" d="M101.3 37.1c-1.7 1.1-3.5 2.1-5.2 3.2l-2.7-1.2c1-.9 1.9-1.7 2.9-2.6.4-.5.7-.9 1.1-1.4 1.3.6 2.6 1.3 3.9 2z"/><path class="st7" d="M84.7 22.7c-2.5-.7-5-1.3-7.5-2 .3-.5.7-1.4 1-1.3 2.3.4 4.6 1 6.9 1.6-.1.6-.3 1.1-.4 1.7zM96.3 36.5c-1 .9-1.9 1.7-2.9 2.6-.4-2.3-.7-4.7-1.1-7h3c.2 1 .4 2 .5 3.1.2.4.4.8.5 1.3z"/><path class="st6" d="M75 33.5c-1.4-1.6-2.8-3.1-4.1-4.7-.1-.1.8-.9 1.2-1.4 1.4 1.7 2.8 3.3 4.2 5-.5.3-.9.7-1.3 1.1z"/><path class="st1" d="M95.9 35.1c-.2-1-.4-2-.5-3.1 1.3-.2 2.5-.4 3.8-.6L97.4 35c-.5.1-1 .1-1.5.1z"/><path class="st6" d="M95.2 41.9l5.4 2.1c-1.8-.7-5.1 2.5-5.4-2.1z"/><path class="st1" d="M98.6 26.2c-.1.6-.2 1.2-.3 1.9-1.5-.6-2.9-1.2-4.4-1.7.1-.4.3-.8.4-1.2 1.5.3 2.9.7 4.3 1zM91.5 37.9c-.7.1-1.3.2-2 .3l-1.3-1.3c.8-.3 1.5-.6 2.3-.9.3.7.6 1.3 1 1.9zM83.4 14c.6-.2 1.3-.4 1.9-.6-.6.2-1.3.4-1.9.6zM92.3 32c-.1-.1-.2-.1-.4-.2.2.1.3.2.4.2.1 0 0 0 0 0zM91.9 41.1c-.1-.3-.1-.7.1-.9 0 .2 0 .6-.1.9zM134.4 80c-.8-3.7-1.6-7.4-2.4-11.3 1.4.8 2.8 1.7 4.2 2.5 2 3.4.1 6.1-1.8 8.8z"/><path class="st3" d="M11.5 51.1c-1.8 4.8 2.8 3.8 4.8 5.2-2 .5-3.9 1-5.9 1.6-.7-.2-1.3-.4-2-.7-.4-1.5-.9-3-1.3-4.4 1.1-1.4 2.1-2.7 3.2-4.1.4.7.8 1.6 1.2 2.4z"/><path class="st4" d="M10.4 57.8c2-.5 3.9-1 5.9-1.6 2.7 0 5.3 0 8 .1-.6.5-1.2 1.1-1.8 1.6-1.4.1-2.7.3-4.1.4-.3-.1-.6-.1-.9 0-.7 0-1.4.1-2.1.1-1.7-.1-3.3-.4-5-.6z"/><path class="st9" d="M7.1 52.7c.4 1.5.9 3 1.3 4.4-1.5-.5-3-.9-4.5-1.4 1.1-.9 2.1-2 3.2-3z"/><path class="st6" d="M117.2 56.1c1.4.7 2.8 1.3 4.2 2 0 .3.1.7.1 1-5 4.1.7 4.2 2.2 5.9-5.4 1.4-7.4-2.2-9.2-6.1.9-.9 1.8-1.9 2.7-2.8z"/><path class="st8" d="M123.6 65c-1.5-1.7-7.2-1.9-2.2-5.9 1.6.6 3.2 1.3 4.8 1.9-.8 1.3-1.7 2.7-2.6 4z"/><path class="st4" d="M128.3 6.1c-.1 5.7-4.3 2-6.5 2.6-2.6.7-5.6.3-8.4.3 1.2-1.3 2.5-2.6 3.7-4 3.8.4 7.5.7 11.2 1.1.1 0 0 0 0 0zM109.5 9.6c-3 3.1-6.7 1.3-10.1 1.5 3.4-.5 6.8-1 10.1-1.5z"/><path class="st2" d="M128.4 6.1c-3.8-.4-7.5-.7-11.3-1.1.3-.3.5-.6.8-.8 3.5.6 7 1.3 10.5 1.9z"/><path class="st4" d="M110 9.4s-.1 0 0 0z"/><path class="st1" d="M106.2 53.1c0 .3.1.7.1 1-.1-.2-.3-.4-.3-.7-.1-.1.1-.2.2-.3z"/><path class="st8" d="M80.8 40.9c-3.8 2.8-7.7 5.6-11.5 8.5-.9-1.1-1.8-2.1-2.7-3.2.7-.7 1.3-1.4 2-2 1.3-1 2.5-2.1 3.8-3.1h-.1c3 6.7 5.6-3.2 8.5-.2z"/><path class="st1" d="M80.8 40.9c-2.9-3-5.6 6.9-8.5.1 2.7-.6 5.4-1.1 8.1-1.7.2.5.3 1.1.4 1.6z"/><path class="st6" d="M66.6 46.2c.9 1.1 1.8 2.1 2.7 3.2-1.3.1-2.7.2-4 .3.4-1.2.8-2.4 1.3-3.5zM68.6 44.1c-.7.7-1.3 1.4-2 2l2-2z"/><path class="st2" d="M15.3 49l-1 1c.4-.3.7-.7 1-1zM15.3 48v0z"/><path class="st9" d="M142.4 12c-1 .4-2 .7-2.9 1.1l-2.4-3.9c-2.3-.3-4.6-.7-.1-1.2 1.4-.2 2.9.2 4.3.3 1 1.2 1.9 2.4 2.9 3.7l.1.1c-.6-.1-1.3-.1-1.9-.1z"/><path class="st4" d="M137.1 9.1l2.4 3.9-8.1 3c1.4-2.6 7.3-1.6 5.7-6.9z"/><path class="st1" d="M39.4 53.1l2.7.9c-.5.7-1.1 1.4-1.6 2-.4-.9-.7-1.9-1.1-2.9z"/><path class="st6" d="M142.4 12c.6 0 1.3 0 1.9.1 0 .3 0 .6-.1.9-.6-.4-1.2-.7-1.8-1z"/><path class="st1" d="M17.5 58.3c.3-.1.6-.1.9 0h-.9z"/><path class="st0" d="M95.9 35.1c.5 0 1 0 1.5-.1-.4.5-.7.9-1.1 1.4-.1-.4-.3-.8-.4-1.3z"/></svg>
