<svg class="text" xmlns="http://www.w3.org/2000/svg" viewBox="0 0 316.2 521.2"><defs><style>.st0 { fill: none; } .st1 { fill: #ffffff; }</style></defs><path class="st0" d="M167.1.1c48.5 0 97 0 145.5-.1 2.8 0 3.6.4 3.6 3.5-.1 171.3-.1 342.6 0 513.8 0 3.2-.8 3.8-3.9 3.8-102.8-.1-205.6-.1-308.4 0-3.8 0-3.9-1.2-3.9-4.3.1-160.5.1-321.1.1-481.7 1.3-.7 2.1.1 2.9 1 6.9 7.3 15.6 11.5 25.4 13.4 2.8.6 3.7 2.1 4.4 4.6 2.2 7.8 4.7 15.6 9.4 22.3 1.1 1.5 1.9 4.1 4.4 3.1 2.3-1 1.9-3.2 1.7-5.5-.3-5.3-1.5-10.6-1.3-16 .2-3.6 1.6-5.6 5.8-5.6 10.2 0 20.2 2 30.4 1.1 12.3-1.2 24.8-1 37-4.1 8.5-2.2 15.1-7.8 22.1-12.5C154 29 162.1 18 164.9 3.7c.3-1.6 1.3-2.5 2.2-3.6z"/><path d="M167.1.1c-1.1 12.3-6.4 22.6-15.3 31.1-14 13.3-30.1 22.4-50.1 22.6-16 .2-31.9.4-47.9.2-4.1 0-5.2 1.2-4.7 5 .9 7.6 1.5 15.2 2.5 22.8.5 3.6-1.3 4.1-3.4 2.5-3-2.2-6.4-4.7-8-7.9-3.5-6.9-6.2-14.3-8.8-21.6-.9-2.5-2.1-3.1-4.5-4.1-8.1-3.3-15.9-7.3-23.7-11.3-1.4-.7-2-2.9-3-4.4 0-10.5.1-21-.1-31.5C-.1.6.6 0 3.6 0c54.5.1 109 .1 163.5.1z"/><path class="st1" d="M82.9 2.1c25 0 50 .1 75-.1 4.8 0 6 1.9 5.2 5.9-1.4 8-5.6 14.5-11.1 20.2-13.3 13.6-29.7 21.6-48.6 22.8-16.9 1.1-33.9.4-50.8.3-5.9 0-7.2.6-7.2 6.6 0 4.8.6 9.6.9 14.4.1 1.4-.2 2.9-.3 4.3-1.2-1-2.8-1.8-3.4-3.1-3.1-6.4-6.3-12.8-8.8-19.4-1.3-3.5-2.6-5.4-6.5-6.2-8.8-1.6-16.9-5.1-22.6-12.5-1.2-1.6-2.1-3.8-2.2-5.7-.2-7.5.2-15-.1-22.5C2.3 3.2 3.5 2 7.5 2c25.1.1 50.3.1 75.4.1z"/><path d="M133.2 17c-6.8 7.1-11.3 7.5-18.7 2.1-.8-.6-3-.6-3.2-.2-2.3 4.8-5.9 1.2-8.8 1.3-1.1.1-2.7-1.2-3.2-.8-3.9 3.3-8.7 1-12.9 2.5-3.4 1.2-6-1-8.9-2.7-1.6-.9-5.4 3.3-8.3 3.4-4.4.2-6.9-5.7-4.3-9.9 1.4-2.3 3.7-4.1 6-5.6.8-.5 2.7.9 4.1 1.4-.9.8-1.7 1.6-2.6 2.3-.8.7-1.8 1.3-2.7 1.9 1.1.2 2.4.8 3.4.6 3-.6 7.3 1 7.9-4.2.1-.5 1.5-.8 2.3-1.3.4.8 1.1 1.7 1.1 2.4-.1 1.5-1 2.9-1.1 4.3 0 1.2.7 2.5 1.1 3.7 1.1-.8 2.5-1.4 3.2-2.5.8-1.4.8-3.2 1.5-4.7.5-1.2 1.6-2.1 2.4-3.1.5 1.1 1.4 2.3 1.5 3.6.2 1.2-.3 2.6-.8 5.1 2.1-3.1 3.6-5.2 5-7.4 2.1-3.1 3.8-2.7 5.4.4 1.2 2.2 2.6 4.3 3.9 6.5.6-2.3.9-4.7 1.8-6.9.5-1.1 2.2-2.6 3.1-2.5 3 .5 5.9 1.5 8.6 2.8.5.2.1 2.6-.1 3.9-.1.7-1.3 1.5-1.2 2.1.2 1 1 1.9 1.5 2.8.7-.6 1.6-1 1.9-1.8.4-1.1-.1-2.4.4-3.4.9-2 1.8-4.9 3.4-5.6 3-1.3 5.8.2 7.2 3.5.3.8.6 1.5 1 2.3.1.2.3.4.4.5.3 1.2.1 2.2-.8 3-.1 0-.3.1-.5.2zM64.1 36c2.6-3.4 5.3-6.7 7.9-10.1 2.2-2.9 3.8-2.9 5.2.6 1 2.7 2.2 5.5 3.3 8.2 1-2.7 1.9-5.5 3-8.2.9-2.4 6.6-3.7 9.7-2 2.9 1.6 4.4 3.6 1.3 6.6-.5.5-.5 2-.2 2.9.2.5 1.7 1.2 1.9 1 .7-.5 1.2-1.5 1.5-2.3.3-.9.1-2 .5-2.9.7-1.9 1.4-5 2.5-5.2 2.7-.5 6.2-.5 8.3.9 2.4 1.6 3.4 1.9 5.6 0 1.1-1 3.4-.8 5.1-1.1-.3 1.2-.8 2.4-.7 3.6.2 1.1 1 2.1 1.7 3.1 1.7 2.8 1.1 5.7-1.7 6.7s-6.2.4-9.3.3c-.1 0-.5-1.6-.3-1.7.9-.5 2-.8 3-1.2 1.3-.4 2.6-.8 3.9-1.1-1.2-1.1-2.2-2.5-3.6-3-.7-.3-2.4.8-3 1.7-4.5 7-13.9 8.6-19.9 3.1-2.1-1.9-3.6-3-4.8.7-1.7 5.1-6 1.7-7.8 1.1-3.7-1.2-6.4-1.3-9.6.9-3.5 2.4-3.2-.8-3.4-2.9l-.1.3z"/><path d="M64.3 35.9c-3.4 1.2-8.9 4.4-9.9 3.3-4.3-4.6-6.6-1.8-10.3.4-2.2 1.3-6.7.8-9-.7-3.2-2.1-2.5-6.3-.2-8.9 2.3-2.5 5.7-3.9 8.7-5.6.3-.2 1.5 1.3 2.4 2-.8.6-1.8 1-2.5 1.7-2 1.9-3.9 3.8-5.6 6-.2.3 1 1.8 1.6 2.5.2.3.9.1 1.4.1-.3-.7-1-1.4-.9-2.1.1-.9.5-2.2 1.2-2.5 1.1-.6 2.6-.7 3.9-.7 4 0 8.1.4 8.1-5.5 0-.5 1.4-1.5 1.8-1.3.8.3 1.8 1.3 1.7 2-.1 1.8-.8 3.6-.9 5.4 0 1.2.7 2.5 1.1 3.8 1.1-.8 2.8-1.4 3.3-2.5 1-1.9 1.2-4.1 2-6.1.4-.8 1.5-1.3 2.3-2 .5.8 1.5 1.8 1.4 2.6-.4 2.8-1.2 5.5-1.8 8.2l.2-.1zM49.8 12.8c-.5 2.4-.8 4.9-1.5 7.2-.2.8-1.3 1.6-2.1 1.8-.6.1-1.6-.9-1.9-1.6-1.7-4.2-5-3-6.2-.8-2.5 4.4-7.9 2.5-8.6 1.8-3.1-3-5.3-1.3-8-.1-1.1.5-2.4.4-3.6.6.1-1.2-.1-2.6.5-3.6 1.9-3.5 4.1-6.8 6.3-10.2 1.9-3 3.6-1.9 4.7.4 1 2.2 1.5 4.7 2.3 7.1.2.7.7 1.4 1.1 2 .5-.6 1.1-1.2 1.3-1.8.5-1.9.6-4 1.3-5.8.4-1.2 1.6-2.2 2.4-3.3.6 1.2 1.1 2.4 1.7 3.6.6 1.3 1.1 2.6 1.6 3.9 1.6-1.1 3.4-1.9 4.8-3.2 1-1 1.5-2.5 2.2-3.7.5 1.6.9 3.1 1.4 4.7.1.3-.1.7-.1 1 .2-.1.3 0 .4 0zM134.2 13.1c2-2.1 3.6-4.8 6-6.1 2.1-1.2 4.3-.4 3 3.1-.4 1 .8 2.5.7 3.8-.1 2 0 4.8-1.2 5.7-1.8 1.4-4.7 1.9-7.1 1.8-.9 0-1.7-2.9-2.5-4.5l-.2.2c1.3-1.1 2-2.4 1-4.2.2.1.3.2.3.2zM12.3 19.4c-.9-2.8-1.9-5.6-2.6-8.4-.2-1 .5-2.2.7-3.4 1 .4 2.4.6 2.8 1.3 1.8 3.6 2.6 1.4 3.9-.3.5-.7 1.8-.8 2.8-1.2.3.7 1 1.6.8 2.1-1.9 4-4 8-6.2 11.8-.4.6-1.7.7-2.6 1.1-.3-.8-.7-1.7-1-2.5.5-.2.9-.4 1.4-.5zM149.4 22.4c-1.1-2.1-2-3-1.8-3.7 1-4.1 2.1-8.2 3.4-12.2.3-.9 1.7-1.5 2.6-2.2.2 1 .6 2 .5 3-.3 2.9-.4 5.9-1.2 8.7-.4 1.9-1.8 3.6-3.5 6.4zM128 35c.1-3.5.2-7 .4-10.5 0-.5 1.3-1.2 1.9-1.1.5 0 1.5 1.1 1.4 1.5-.7 3.5.6 7.9-3.9 9.9l.2.2zM58.7 7.5c-1 2.5-1.5 5-2.9 6.9-1.1 1.4-2.5-.7-1.7-3.7.3-1 .4-2 .8-2.9.6-1.1 1.4-2.1 2.1-3.2.6.9 1.1 1.8 1.7 2.9zM127.8 34.9c-.2 1.3-.5 2.7-.7 4-.8-.4-1.6-.7-2.4-1.1 1.1-.9 2.2-1.8 3.3-2.8l-.2-.1zM54.1 16.1c.7 1 1.6 1.9 1.5 2.1-.5.7-1.3 1.3-2 1.7-.2.1-1.3-.9-1.2-1.2.3-.8.9-1.4 1.7-2.6z"/><path class="st1" d="M134.1 13c.1.1.3.2.4.3 1.7 1.2 3.4 2.5 5.1 3.7-2.2.1-4.4.1-6.6.2.4-1.4.7-2.8 1.1-4.2zM129.4 13.3c-.6.8-1 1.4-1.5 2-.3-.4-.9-.9-.8-1.3.1-.7.6-1.3.9-2 .4.3.8.7 1.4 1.3zM107.9 31.3c-1.6.8-3.1 1.6-4.7 2.3-.1 0-1.3-1.5-1.1-2 .4-1.3 1.3-2.6 2.2-3.7.1-.1 1.6.8 2.4 1.3.3.7.7 1.4 1.2 2.1z"/></svg>
