<svg xmlns="http://www.w3.org/2000/svg" viewBox="0 0 388.9 245.9"><defs><style>.st0 { fill: none; }</style></defs><path class="st0" d="M0 245.9V0h388.9v245.9H0zm218.7-18.2c6.2.4 11.7.8 17.2 1 5.7.2 11.5.3 17.2.3 1.9 0 4 .2 5.8-.2 4.8-1.1 21.7.5 27.2 3.3-4.6-.4-8.2-.9-11.8-1-3.6 0-7.3.4-10.9.7-3.4.3-6.8.7-10.3 1.1 0 .4.1.8.1 1.1h64.4c-4.2-6.7-92.6-12.3-98.9-6.3zM54.8 211.3v1.1c7.3.3 14.6.7 21.9 1 .1.7.2 1.3.3 2-3.2 1.2-6.3 2.7-9.6 3.5-2.7.6-5.7.2-8.4.7-15.5 2.4-30.8 6.1-46.7 5.7-.7 0-1.4.8-1.8 1.1h51.3v-1.3c-4.3-.2-8.7-.4-13-.6v-.4h27.6V223c-2.5-.4-5.1-.9-6.4-1.1 4.5-2.6 9.8-5.6 15.1-8.6-.2-.6-.3-1.3-.5-1.9-9.9-.1-19.9-.1-29.8-.1zm94.2 9.5v-2.1c13 .6 26 1.2 38.9 1.7 0-.6 0-1.2.1-1.8-20.4.2-40.4-6.3-61-1.3 1.8.3 3.7.6 5.7 1-1.8 2.5-3.3 4.5-5.4 7.3 7.1-.8 13.7-1.6 20.3-2.4 1.1 1.1 2.5 1.5 3.9 1.3 3.5-.5 7-1.2 10.6-1.9 1.7-.3 3.4-.6 5.2-.9 0-.3-.1-.7-.1-1-6.1.1-12.1.1-18.2.1zm-12.5 12.1c28.9-.2 57.7 4.6 87.8-.2-1.6-.6-2.1-.8-2.5-1-.1 0 0-.3-.1-.6 2.6-.2 5.2-.3 7.9-.5v-1h-27.4c1.6.5 2.4.7 3.3.9-1.8.2-3.6 0-5 .7-7.9 4-16.6 3.1-24.3 1.3-13.5-3.3-26.5-3.3-39.7.4zm22.1-18.7c8.7.6 16.1.9 23.5 1.8 7.1.8 14.2 2.2 21.3 3.3.1-.5.1-1 .2-1.6-14.1-4.7-28.6-5.5-45-3.5zm8.7-9.4c-10-2-19.8-8.8-30.7-2.2 10.5.8 20.6 1.5 30.7 2.2zM147.4 227c0-.6-.1-1.1-.1-1.7-15.2 1.6-30.4 3.2-45.7 4.9.1.4.1.9.2 1.3l45.6-4.5zm-31.3-8.1c-.1-.3-.1-.7-.2-1H93.8c0 .3 0 .7.1 1h22.2z"/><path d="M218.7 227.7c6.4-6 94.7-.3 99 6.4h-64.4c0-.4-.1-.8-.1-1.1 3.4-.4 6.8-.8 10.3-1.1 3.6-.3 7.3-.7 10.9-.7 3.6 0 7.2.6 11.8 1-5.5-2.8-22.4-4.5-27.2-3.3-1.9.4-3.9.2-5.8.2-5.7-.1-11.5-.1-17.2-.3-5.6-.3-11.1-.7-17.3-1.1zM54.8 211.3h29.9c.2.6.3 1.3.5 1.9-5.3 3-10.6 6-15.1 8.6 1.3.2 3.8.7 6.4 1.1v1.1H48.9v.4c4.3.2 8.7.4 13 .6v1.3H10.6c.5-.3 1.2-1.1 1.8-1.1 15.9.4 31.2-3.3 46.7-5.7 2.8-.4 5.7 0 8.4-.7 3.3-.8 6.4-2.3 9.6-3.5-.1-.7-.2-1.3-.3-2-7.3-.3-14.6-.7-21.9-1-.1-.2-.1-.6-.1-1zM149 220.8h18.1c0 .3.1.7.1 1-1.7.3-3.4.6-5.2.9-3.5.6-7 1.4-10.6 1.9-1.3.2-2.7-.3-3.9-1.3-6.6.8-13.2 1.5-20.3 2.4 2.1-2.8 3.6-4.9 5.4-7.3-2.1-.3-3.9-.6-5.7-1 20.6-4.9 40.7 1.5 61 1.3 0 .6 0 1.2-.1 1.8-13-.6-26-1.2-38.9-1.7.2.6.2 1.3.1 2z"/><path d="M136.5 232.9c13.2-3.7 26.2-3.7 39.6-.5 7.7 1.9 16.3 2.7 24.3-1.3 1.4-.7 3.2-.5 5-.7-.9-.3-1.7-.5-3.3-.9h27.4v1c-2.6.2-5.3.3-7.9.5 0 .3 0 .5.1.6l2.5 1c-30 4.9-58.8.1-87.7.3zM158.6 214.2c16.4-2 30.9-1.2 45.1 3.5-.1.5-.1 1-.2 1.6-7.1-1.1-14.2-2.5-21.3-3.3-7.5-.9-15-1.2-23.6-1.8zM167.3 204.8c-10.1-.7-20.2-1.4-30.7-2.2 10.9-6.6 20.7.2 30.7 2.2zM147.4 227l-45.6 4.5c-.1-.4-.1-.9-.2-1.3 15.2-1.6 30.4-3.2 45.7-4.9 0 .6.1 1.2.1 1.7zM116.1 218.9H93.9c0-.3 0-.7-.1-1h22.1c.1.3.1.7.2 1z"/></svg>
