<svg class="text" xmlns="http://www.w3.org/2000/svg" viewBox="0 0 734.3 226"><defs><style>.st0 { fill: none; } .st1 { fill: #1b1211; } .st2 { fill: #1d1d13; } .st3 { fill: #a62d2d; } .st4 { fill: #b5403b; } .st5 { fill: #cec93a; }</style></defs><path class="st0" d="M0 0h734.3v226H0z"/><path class="st0" d="M293 72.4c0 .1.1 0 0 0 .1 0 0 0 0 0zM8.7 16.8c-3.4 0-4.1.7-4.1 4.1.1 68.3.1 136.7 0 205h729.7V16.8c-241.9.1-483.7.1-725.6 0zm157.5 41.7c-1.3 4.2-2.6 8.5-4.3 12.6-.7 1.6-.3 2.9.2 4.3 1.5 4.2.2 7.5-3.7 9.7-3.8 2.2-7.7 2.3-10.8-1.1-1.3-1.4-1.6-1.3-3.1-.3-4.4 3.1-8.1.8-12.2-3.1.7 9.3-6 9.7-11.6 11-4.1 1-7.3-.5-8-5.1-.3-1.9-.8-3.3-3.1-2.4-4 1.7-6.7-.4-8.9-3-1.1-.4-.9.5-.9.8-.7 3.6-4 4.4-6.3 6.4-1.9 1.6 1.2 5.3-.9 8.2-3.5 4.8-11.3 6-15.7 1.9-1.8-1.7-3.2-3-3.4 1-.2 4.2-2.8 6.8-6.8 7.3-6.2.8-12.7 3.8-18.5-1.6-.3.4-.7.8-1 1.2 1.1 7.7-4.1 13.6-11.8 13.5-2.9-.1-5.1-1.5-5.7-4.6-1.9-10.3-2.9-20.7-2.9-31.2 0-5.4 5-10 10.4-10.2 1.9-.1 3.2-.1 4.5-2 4-5.8 8-6.3 14.1-2.2 1.1.8 1.4-.2 2-.4 2.2-1 4.4-2.2 6.7-3.2 8.8-4.1 14.2-2.9 19.9 4.9.7-4 1.4-7.6 2.1-11.3 1.2-6.8 7.4-7.1 12.2-8.3 4.2-1 7 2 8.7 5.8.8 1.8 1.7 3.5 2.8 5.9 1.1-3.9 2.8-6.5 6.6-7.4 3.5-.9 6.5-1.4 8.9 1.9 1.4 1.9 1.7-.2 2.4-.9 3.5-4 8.3-4.9 13-2.7 3.2 1.5 3.9 5.8 1.7 9.4-.8 1.3-3.3 2.4-2.1 4 1.7 2.3 4.1 4.4 6.5 6 1.1.7 1.9-.8 1.4-2.2-2.4-5.6-.3-11.1.3-16.6.5-4.6 7.1-7.1 13.1-5.6 4.5 1.4 5.8 4.4 4.2 9.6zm196.6 35.7c-1.7 1.3-3.6 2.3-5.4 3.5-3.2 2.1-6.3 3.7-6.5 8.7-.1 4.2-4.4 5.7-8.1 6.1-3.1.4-5.9-1-6.7-4.6-.4-1.9-1.4-2.2-3.2-2.1-4.9.5-8.1-1.6-8.4-7.3-2.9 2.9-5.8 4.2-9.8 3.5-3.5-.6-5.3-4.3-9.2-4.1-4.5.2-6.3-3-7-7.5-3.7 3.6-7.5 4.7-11.8 2-.8-.5-1.5-.6-2.4-.3-4 1.9-6.6-.1-9-3.1-1.4-1.7-2.4-3.4-4.5-.2-2.5 3.8-7.4 3.2-10.5 1.7-5.2-2.7-9.9-.7-14.8-.2-3.3.3-6.6.7-9.9.6-5.2-.2-8-3.8-6.7-8.7 1.9-7.2 4.2-14.3 6.2-21.5 1.1-3.7 3.7-5.5 7.3-5.7 7-.4 14 .2 19.8 4.7 1.3 1 1.6.2 2.3-.3 3.9-3.3 8.2-2.9 12.7-1.2 2 .8 4 1.7 6 2.3 5.1 1.5 9.1 3.9 9.6 11.1 0 .3 0 .6.1.9v.1c.3-.4.6-.7.9-1.1 4.7-5.3 9.2-7.9 15.2-5.2 6.5 3 4 9.8 5.5 14.9 2-.9 2-2.8 2.7-4.1 3.7-6.6 8.8-7.8 14-2.4 2 2.1 3.8 2.5 6.4 2.4 6.6-.1 9.5 3.1 8.5 8.8 1.1.4 1.3-.5 1.8-1.2 4.3-5.3 12.8-4.9 16.5.9 2.3 3.2 1.5 6.3-1.6 8.6zm242.6-22.4c-1.5 1.1.1 1.7.4 2.4 1.6 3.9.5 6.9-3.1 8.9-3.8 2.1-7.7 2.8-10.7-1.2-1.2-1.6-1.8-2.2-3.8-1.6-4.3 1.3-8.3.8-10.4-4-4.4 5.4-9.9 6.7-15.3 3.4-1.4-.9-1.7-.4-2.7.3-3.8 2.7-7.9 3.6-11.6-.1-1.2-1.2-1.4-.3-2.1.3-.7.7-1.6 1.2-2.4 1.8-7 5.2-12 5-18.1-.9-1.5-1.4-2.4-2.6-4.4-.8-.6.6-2.2 1.1-2.8.7-5-3.3-9.2.5-13.7 1.3-.8.2-1.6.3-2.4.3-2.6.1-4.3-2-6.5-2.8-.9 3.1-3.7 3.6-6.2 4.4-6.2 2.1-14.3-.3-18.5-5.4-4.8-5.7-5.6-13.5-2.2-20.1 3-5.7 10.3-9.5 17.1-9 2.7.2 4.3 1.5 4.6 4.2.2 1.9.2 3.9.4 5.8 3.8.3 7.4.4 8.8-4.4.4-1.5 2.1-2.2 3.6-2.4 7.4-1.1 15.1-4.3 21.1 3.2 1.2 1.6 2 0 2.9-.3 3-1.2 5.9-1.3 8.2 1.4 1.1 1.3 2 1.6 3 .1.1-.1.3-.2.4-.3 3.9-3.3 8.1 1.3 11.9-.5 4.2-2 8.2-2.8 11.9.8 1.4 1.4 1.7 0 2.6-.6 2.8-2.3 6-2.6 9.7-2.7 5.1-.2 10.1-2 15.3-1.7 4.5.3 8.8.7 13.1-2.2 2.5-1.7 6.6-.7 8.9 2.4 2.2 3 1.3 6-.4 8.8-2.1 3.7-3.1 8-6.6 10.5zm108 1.6c5.2 5.9 5.4 10.5 1.1 14.7-4.3 4.1-13.3 4.4-17.5.5-3.6-3.3-3.3-11 1.3-12.9 5.7-2.4 4.7-5.4 2.7-9.8-.6 5.1-3 8.1-8.2 8.3-2 .1-3.4 1.1-3.6 3.7-.1 2-.8 4.3-2.4 5.9-2.6 2.7-5.9 3-9.2 2.1-3.2-.9-4-3.6-4.1-6.6 0-1.1.6-2.2-.6-3.6-3 8.2-8.5 13-17.2 13.5-1.6.1-3.7.5-4.9-.3-8.2-5.2-15.8.1-23.6 1.1-2 .2-4 .6-5.8 1.3-3 1.1-5.7.9-7.6-1.8-1.8-2.6-1.7-5.5.1-8 1.9-2.6 2.1-4.5.4-7.7-3.2-6 1.1-13.9 7.7-15.4 3.5-.8 7.1-1.6 10.7-2.2 1.5-.2 3.6-.7 4.4 0 4.5 4.1 7.9.4 11.9-1 6.2-2.2 12.4-2.3 18.1 1.7.7.5 1.3 1.9 2.4 1 6.6-5.7 14.9-3.4 22.3-5h.5c7.5-.9 8.8 0 9.9 7.4 2.7-1.7 3.2-5.8 6.7-6.1 3.1-.3 6.3-.4 9.5-.4 3.5-.1 5.7 1.7 6.2 5.1.8 5.4-5.2 13.4-11.2 14.5z"/><path class="st1" d="M166.2 58.5c1.6-5.2.3-8.2-4.1-9.3-6-1.6-12.6 1-13.1 5.6-.6 5.5-2.7 11.1-.3 16.6.6 1.4-.2 2.9-1.4 2.2-2.5-1.6-4.8-3.6-6.5-6-1.2-1.7 1.3-2.7 2.1-4 2.1-3.7 1.4-7.9-1.7-9.4-4.8-2.2-9.5-1.3-13 2.7-.6.7-1 2.8-2.4.9-2.5-3.3-5.5-2.8-8.9-1.9-3.8.9-5.5 3.5-6.6 7.4-1.1-2.4-2-4.1-2.8-5.9-1.7-3.8-4.5-6.8-8.7-5.8-4.8 1.2-11 1.4-12.2 8.3-.7 3.7-1.3 7.3-2.1 11.3-5.7-7.8-11.1-9.1-19.9-4.9-2.2 1-4.4 2.2-6.7 3.2-.6.3-.9 1.2-2 .4-6-4.1-10-3.5-14.1 2.2-1.3 1.9-2.6 1.9-4.5 2-5.4.2-10.4 4.8-10.4 10.2 0 10.5.9 20.9 2.9 31.2.6 3 2.8 4.5 5.7 4.6 7.7.2 12.9-5.8 11.8-13.5-.1-.6-.6-1.4-.4-1.7.6-.8.9.2 1.4.5 5.7 5.4 12.2 2.4 18.5 1.6 4.1-.5 6.6-3.1 6.8-7.3.2-4 1.5-2.7 3.4-1 4.3 4 12.1 2.8 15.7-1.9 2.1-2.8-1-6.6.9-8.2 2.3-2 5.6-2.8 6.3-6.4.1-.3-.2-1.1.9-.8 2.3 2.6 4.9 4.7 8.9 3 2.3-1 2.8.5 3.1 2.4.8 4.6 4 6.1 8 5.1 5.6-1.3 12.3-1.7 11.6-11 4.1 3.9 7.8 6.2 12.2 3.1 1.5-1 1.8-1.1 3.1.3 3.2 3.4 7 3.2 10.8 1.1 3.9-2.2 5.1-5.5 3.7-9.7-.5-1.4-.8-2.6-.2-4.3 1.6-4.4 2.9-8.6 4.2-12.9zM56.8 101.1c-1.5 1.9-2.8 1.9-4.4.2-.9-1-2.1-1.6-3.2-2.4-1.7-1.3-3.7-3.4-5.6-2-2.2 1.7-3.4 4.5-2.6 7.6.3 1.3.6 2.6 1 3.8 1.6 4.5-2.4 4.6-4.6 5.4-3.3 1.1-2.5-2-2.8-3.7-1.5-7.8-2-15.8-2.1-23.7 0-3.4.8-5.8 4.9-7 .4 1.6.8 3 1.1 4.5.2 1.2-.4 3 1.5 3.1 1.6.2 2.2-1.5 2.7-2.5.8-1.6 1.1-3.4 1.5-5.2.8-3.5 2.9-5.8 6.6-7.4-.2 4.3-2 7.6-3.3 11-1.1 2.9-1 5 1.5 6.9 2.6 2 4.9 4.5 7.5 6.5 2.4 1.7 1.8 3.1.3 4.9zm30.6-7.5c-1.3 1.4-3.6 3.5-6.1 1.2-2.5-2.3-5.7-4-7.8-6.9-1 0-2-.2-3-.1-5.1.7-5.7 1.7-3.8 6.4 1.4 3.5 1.9 6.4-2.7 7.8-1.3.4-2.4.6-2.3-1.2.3-7-3.4-13.3-4-20.2-.1-1.1-.7-2.4-.4-3.4 1-3.6 14.3-9.3 17.8-7.7 4.5 2 4.4 5.6-.2 11.5-.4 2.9 2.2 3.4 3.9 4.5 2.1 1.6 4.5 2.9 6.5 4.6 1 1 4 1.6 2.1 3.5zM110 78.5c-2.3 1.3-4.4.6-5.5-2.3-1.1-3.1-3.3-3.5-6.4-2.4-2.3.8-3.3 2-3.3 4.2 0 .8 0 1.7-.2 2.5-.5 2.5-2.9 3-4.7 3-2.2 0-.7-2.4-1.1-3.2.7-6 1.4-11.6 2-17.2.5-4.5 4-5.3 7.4-6.1 3.6-.8 3.8 2.4 4.9 4.4 2.1 4 4.2 7.9 6.1 11.9.9 1.6 4.1 3.4.8 5.2zm31.8.5c-2 2.3-3-.7-4.4-1.4-1-.5-1.7-1.5-2.7-2.2-1.7-1.3-3.3-3.1-5.7-1.6-2.4 1.5-3.7 3.7-3.1 6.7.3 1.3 1.8 3.1 0 4-2.2 1-4.7 1.4-7.2 1.8-.8.1-.8-.9-.9-1.5-.1-6.3-1.1-12.5-2-18.7.2-1.2.3-2.3.6-3.5.4-1.9 2.2-1.9 3.6-2.1 1.8-.4 1.5 1.3 1.8 2.3.2.5.2 1 .4 1.4 1 2-.9 5.7 2 6 2.7.3 3.7-3.3 5.4-5.2 1.9-2.3 2.2-6.2 6.3-6.2 1.8 0 3.5 0 1.7 2.8-4.5 7.1-4.4 7.4 2.2 12.8 1.6 1.2 4.1 2.2 2 4.6zm12.4 2c-1.4 0-2.5-.1-2.5-1.8 0-2.3 1.4-3.4 3.2-3.7 1.6-.3 2.2 1.3 2.3 2.6.2 2.2-1.6 2.5-3 2.9zm6.7-23.5c-1 3.2-1.8 6.3-2.7 9.5-.5 1.8-1.9 2.1-3.5 1.9-1.7-.2-1.8-1.2-.8-3.8 0-1.3.1-3.9 0-6.6-.1-2.7 1.2-3.7 3.8-4.1 2.6-.4 4.2-.2 3.2 3.1zM612.4 52.7c-2.3-3.2-6.4-4.1-8.9-2.4-4.3 2.9-8.6 2.5-13.1 2.2-5.2-.3-10.3 1.4-15.3 1.7-3.7.1-6.8.5-9.7 2.7-.8.7-1.1 2-2.6.6-3.7-3.6-7.7-2.9-11.9-.8-3.8 1.8-8.1-2.8-11.9.5-.1.1-.3.2-.4.3-1.1 1.5-2 1.2-3-.1-2.3-2.7-5.1-2.6-8.2-1.4-.9.3-1.7 1.9-2.9.3-6-7.6-13.8-4.3-21.1-3.2-1.5.2-3.2 1-3.6 2.4-1.4 4.8-5 4.7-8.8 4.4-.1-1.9-.2-3.9-.4-5.8-.3-2.7-1.9-4-4.6-4.2-6.8-.5-14.1 3.3-17.1 9-3.4 6.5-2.6 14.4 2.2 20.1 4.2 5.1 12.3 7.5 18.5 5.4 2.4-.8 5.3-1.3 6.2-4.4 2.2.9 3.9 2.9 6.5 2.8.8 0 1.6-.2 2.4-.3 4.5-.8 8.7-4.6 13.7-1.3.6.4 2.1-.1 2.8-.7 2-1.8 2.9-.6 4.4.8 6.2 5.9 11.2 6 18.1.9l2.4-1.8c.7-.6.8-1.5 2.1-.3 3.7 3.7 7.8 2.8 11.6.1 1-.7 1.3-1.1 2.7-.3 5.4 3.3 10.9 2 15.3-3.4 2.2 4.8 6.2 5.3 10.4 4 2.1-.6 2.6-.1 3.8 1.6 2.9 3.9 6.9 3.2 10.7 1.2 3.6-2 4.7-4.9 3.1-8.9-.3-.7-1.9-1.3-.4-2.4 3.5-2.6 4.5-6.8 6.6-10.3 1.7-3 2.6-6 .4-9zM494.3 68.8c-3.3.5-3.9 2.7-3.5 5.4.7 4.8-2.4 5.4-5.5 5.6-6.7-.1-12.2-5.1-12.8-11-.7-6.6 3.1-11.7 9.5-13.1 1.1-.2 2.3-1.3 3.2-.1.9 1.1.4 2.5.1 3.8-.6 1.9-2.5 2.6-3.7 3.9-1.8 1.8-3 4.1-1.1 6.2 2 2.2 4.4 1.1 5.9-.9 1.7-2.3 4.2-2.4 6.6-3.1.9-.3 2.1-.8 2.5.5.3 1 .3 2.5-1.2 2.8zm25.5 5.9c-1.9 2.6-4.1-.4-5.7-1.8-4.4-3.8-5.3-3.7-6.7 1.8-.6 2.2-2 2.3-3.7 2.4-2.4 0-1.9-1.8-1.9-2.8.7-5 1.4-9.5 2-14.1.2-1.8 1.5-2 2.7-2.4 3.1-1.1 6.2-.7 9.4-.7 2.3 0 4 1.3 4.3 3.4.3 1.8-.8 3.5-2.6 4.4-.4.2-.8.5-1.3.7-4.6 1.7-3.4 3.1 0 5.1 1.4.8 5.3 1.5 3.5 4zm25.8-8.6c-.1 8-4 13-11 14-7.5-2.6-10.6-12-6-18.2.7-.9 1.5-1.4 2.5-1.2 1.4.2 1.1 1.4.8 2.4-.7 2.7-.3 5.2.9 7.7 4.7 1.2 7.3-.6 7.9-5.4.2-2.2.9-4.2 3.5-3.8 2.6.4 1.5 2.9 1.4 4.5zm27.1.8c.3 1.8 0 3.7-.1 5.5-.1 2.4-1 3.9-3.6 3.6-2 .2-3.7-.2-4.6-2.2-.6-1.5-1.6-2.5-2.9-3.3-2.8-1.7-5.1-2.4-4.9 2.3 0 1-.3 2-.6 2.9-.5 1.3-1.7 1.5-2.9 1.2-1.4-.3-1.9-1.2-1.6-2.6.8-3.7 1.4-7.5 2.4-11.2 1-3.6 3.3-4.1 5.7-1.5 1.8 1.9 3.1 4.3 4.7 6.4.7.9 1.2 2.2 2.7 1.8 1.5-.4 1.8-1.8 1.9-3.1.3-2.9-1.2-7.8 3.4-7 3.4.5-.1 4.6.4 7.2zm16.1-1.9c-1.5 2.3-1.2 4.7-.6 7.1.4 1.5 0 2.6-1.5 3.2-1.1.5-2.3.8-3.2-.1-1.1-1.1.1-2.2.5-3.2 1.3-3.8 3.3-7.6-2.9-9-.4-.1-1.1-1.3-.3-2.1-.3-2.1.4-3.1 2.6-3 1.6.1 3.4-.3 4.9.1 1.8.5 5-2 5.3 2.1.2 3.3-1.7 4.7-4.8 4.9zm13.9 1.7c-.2.3-1.3.3-1.8 0-1-.4-.7-1.3-.4-2.1.9-2.7 1.7-5.4 2.6-8 .5-1.5 1.9-1.7 3.3-1.6 1.1.1 1.6.8 2.3 1.6-2.1 3.6-4 6.9-6 10.1z"/><path class="st2" d="M293.4 70.8c-.1.2-.3.5-.4.7 0 .3 0 .6.1.9.3-.4.6-.7.9-1.1-.2-.1-.4-.3-.6-.5zm71.2 14.7c-3.7-5.8-12.2-6.1-16.5-.9-.5.6-.7 1.5-1.8 1.2 1-5.7-1.9-8.9-8.5-8.8-2.6 0-4.3-.3-6.4-2.4-5.2-5.4-10.3-4.2-14 2.4-.8 1.4-.8 3.3-2.7 4.1-1.6-5.1.9-11.9-5.5-14.9-5.9-2.7-10.5-.2-15.2 5.2l.1.1c-.2.4-.5.8-.8 1.2l-.3-.3v-.1c-.2-.1-.3-.3-.2-.4 0-.2.1-.3.2-.5-.5-7.2-4.5-9.6-9.6-11.1-2.1-.6-4-1.5-6-2.3-4.4-1.7-8.7-2.1-12.7 1.2-.7.6-1 1.3-2.3.3-5.9-4.5-12.8-5-19.8-4.7-3.6.2-6.3 2-7.3 5.7-2.1 7.2-4.3 14.3-6.2 21.5-1.3 5 1.5 8.6 6.7 8.7 3.3.1 6.6-.3 9.9-.6 4.9-.4 9.6-2.5 14.8.2 3.1 1.6 7.9 2.2 10.5-1.7 2.2-3.2 3.2-1.6 4.5.2 2.4 2.9 5 4.9 9 3.1.8-.4 1.6-.2 2.4.3 4.3 2.7 8.1 1.6 11.8-2 .7 4.5 2.5 7.7 7 7.5 3.9-.2 5.7 3.5 9.2 4.1 4 .7 6.9-.5 9.8-3.5.4 5.8 3.5 7.8 8.4 7.3 1.8-.2 2.8.2 3.2 2.1.7 3.6 3.5 5 6.7 4.6 3.7-.4 7.9-1.9 8.1-6.1.1-4.9 3.3-6.6 6.5-8.7 1.8-1.2 3.7-2.2 5.4-3.5 2.9-2.1 3.7-5.2 1.6-8.5zM257 74.4c2.9 2.6 1.4 6.9-3.1 8.7-5.5 2.2-11.4 1.8-18.4 2.3-.2 0-2.3-.1-1.3-2.3 2.9-6.4 3.6-13.4 5.8-20.1.8-2.3 2.1-3.1 4.4-3.1 4 .1 7.9 1 11.7 2 3.3.9 2.5 2.1.7 4-1.8 2-6 1.7-5.9 4.5.3 2.6 4.2 2.4 6.1 4zm28.2-.6c-1.9 1.8-6.4 1-6 4.6.3 2.7 3.4 4.3 5.5 6.1.2.2.4.5.7.9-2.4 2.3-4.6 3-6.4-.8-.3-.7-1.2-1.1-1.8-1.7-5.8-6.4-5.7-6.3-9.9 1.4-2 3.6-4.9 0-7.5.7 2.2-7.5 6.4-13.6 8.3-20.8.8-2.9 3.4-2.4 5.4-1.8 3.6 1.1 7.2 2.4 10.7 3.9 4.3 1.8 4.4 4.5 1 7.5zm21.7 19c-2.4 0-2.4-1.4-2.6-3.3-.3-5.5-2.6-7.8-6.5-6.5-1.9.6-2.6 2.5-3.9 3.7-.9.9-1.7 2.3-3.3 1.3-1.7-1.1.1-2.1.4-2.9 2.1-5.7 6.7-9.7 10.8-13.8 2.7-2.6 6.4-.2 6.6 3.8.1 1.3.1 2.7.2 4v3.5h.1c0 2.3.1 4.7 0 7 .1 1.3.8 3.2-1.8 3.2zm27.1 4.9c.3 1.7.9 2.8-1.4 3.1-2.3.3-2.5-.9-2.2-2.7.2-1.1.1-2.3 0-3.5-.3-2-.5-4.3-3-4.5-2.3-.2-4.6.2-6 2.5-.7 1.1-1.3 2.3-2.1 3.3-1.4 1.6-3.1.8-4.6.1-2.1-.9-.7-2.3-.1-3.3 2.7-4.9 5.6-9.7 8.4-14.5 1.2-2 2.5-1.5 4.2-.5 1.8 1 1.7 2.2.6 3.6-.9 1.2-2 2.5-.4 3.9 1.5 1.4 2.9 0 4.1-.5 3.2-1.4 6.2-4.3 10.3-1-.6.5-.9.9-1.3 1.1-8.1 3.9-8.2 4-6.5 12.9zm4.9-2.4c-.1-1.5-1.7-3.6 1-4.6 1.5-.5 2.9-1.3 4.7-2.1-.4 2.1-.8 3.7-.9 5.2-.1 1.5.5 3-1.9 3-1.3.2-2.8.4-2.9-1.5zm7.4 8.7c-.2 1.5-2 3.1-3.3 3-1.8 0-2-1.3-2-2.4 0-2.1 1.3-2.8 3.3-2.7 1.3.1 2.2.5 2 2.1zm6.2-9.2c-.8.5-1.6 1.4-2.6.5-1.1-1-.7-1.9-.2-3.1 3.6-6.9 4.2-7.1 11.2-3.3-3.1 2.1-5.8 4-8.4 5.9zM724.6 58.8c-.5-3.4-2.7-5.2-6.2-5.1-3.2.1-6.3.2-9.5.4-3.5.3-4 4.4-6.7 6.1-1-7.3-2.4-8.3-9.9-7.4h-.5c-7.4 1.6-15.8-.7-22.3 5-1 .9-1.7-.5-2.4-1-5.7-4.1-11.9-3.9-18.1-1.7-4 1.4-7.4 5.1-11.9 1-.8-.7-2.9-.3-4.4 0-3.6.6-7.2 1.3-10.7 2.2-6.6 1.6-10.8 9.5-7.7 15.4 1.7 3.1 1.5 5-.4 7.7-1.8 2.5-2 5.4-.1 8 1.9 2.6 4.6 2.9 7.6 1.8 1.9-.7 3.9-1 5.8-1.3 7.8-1 15.4-6.3 23.6-1.1 1.2.8 3.2.4 4.9.3 8.7-.5 14.2-5.2 17.2-13.5 1.2 1.4.6 2.6.6 3.6 0 3.1.9 5.8 4.1 6.6 3.3.9 6.6.6 9.2-2.1 1.6-1.6 2.2-3.9 2.4-5.9.1-2.6 1.5-3.7 3.6-3.7 5.2-.2 7.5-3.2 8.2-8.3 2 4.4 2.9 7.4-2.7 9.8-4.6 1.9-4.9 9.6-1.3 12.9 4.2 3.9 13.2 3.6 17.5-.5 4.3-4.2 4.1-8.8-1.1-14.7 6-1 12-9 11.2-14.5zm-85 20.9c-.1 1.7-1.1 2.5-2.4 2.7-6.1 1.3-12.2 2.5-19 3.9 1.5-4.5 4.3-7.5 6.2-11.1.9-1.8 2-3.5-1.5-3.5-1.4 0-4 1.2-3.9-1.4.1-2.6 0-5.9 3.7-6.7 4.5-1 9-1.9 15-3.2-3 4.7-5.1 8.2-7.3 11.7-.4.7-1 1.5-.4 2.2.6.7 1.5.5 2.3.1 2.5-1.2 5.1-2.1 8.1-2.3-.2 2.8-.6 5.2-.8 7.6zm12.5 4c-4.9-1-7.8-5.2-6.8-10.3.4-2.3 1.1-4.4-.2-6.7-.8-1.3 0-2.5 1-3.6 2.9-3.3 10.6-5.2 14.8-3.6 4.9 1.8 7.1 5.4 7.1 11.3-.1 8.6-7.5 14.6-15.9 12.9zm44.4-21.6c-.6 4.1-1.5 7.7-6.9 7.6-3.7-.1-5.2 2.2-5.2 5.8 0 1.5-.5 3-1.1 4.3-.5 1.3-1.9 1.2-3.1 1-1.9-.3-1.2-1.6-.9-2.7.3-1.3.6-2.6 1.1-3.8 1-2.8.6-4.7-2.9-4.4-2.4.2-4.2-.2-3.5-3.1.6-2.5-1.3-6.4 3.4-7.1 1.6-.2 3.3-.5 4.9-.7 3.6-.4 7.3-.8 11.7-1.3 3.2-.9 2.9 1.7 2.5 4.4zm15.6 19.2c-.3 4.1-3.7 4.7-7 4.6-2.4-.1-5.2-.7-4.8-3.8.5-3.7 3.8-4.1 6-4.4 3.3.1 6 .5 5.8 3.6zm-2.3-13.1c-2.8 0-2.9-1-2.3-3.3 1.7-6.1 2.7-6.7 11.6-5.5-2.6 8.6-3 8.8-9.3 8.8z"/><path class="st3" d="M37.5 79.2c.4 1.6.8 3 1.1 4.5.2 1.2-.4 2.9 1.5 3.1 1.6.2 2.2-1.5 2.7-2.5.8-1.6 1.1-3.4 1.5-5.2.8-3.5 2.9-5.8 6.6-7.4-.1 4.3-2 7.6-3.3 11-1.1 2.9-1 5 1.6 6.9 2.6 2 4.9 4.5 7.6 6.5 2.3 1.7 1.6 3.1.2 4.9-1.5 1.9-2.8 1.8-4.4.2-.9-.9-2.1-1.6-3.2-2.4-1.7-1.3-3.7-3.4-5.6-2-2.2 1.7-3.4 4.5-2.6 7.6.3 1.3.6 2.6 1 3.8 1.6 4.5-2.4 4.6-4.6 5.4-3.3 1.1-2.5-2-2.8-3.7-1.4-7.8-2-15.8-2.1-23.7-.2-3.4.7-5.8 4.8-7z"/><path class="st4" d="M115.8 66.1c.2-1.2.3-2.3.6-3.5.4-1.9 2.2-1.8 3.6-2.1 1.8-.4 1.5 1.3 1.8 2.3.2.5.2 1 .4 1.4 1 2-.9 5.6 2 6 2.7.3 3.7-3.3 5.4-5.2 1.9-2.3 2.2-6.2 6.3-6.2 1.8 0 3.5 0 1.7 2.8-4.5 7.1-4.4 7.4 2.2 12.8 1.5 1.2 4 2.2 1.9 4.6-2 2.3-3-.7-4.5-1.4-1-.5-1.7-1.5-2.6-2.2-1.7-1.3-3.3-3.1-5.7-1.6-2.4 1.5-3.7 3.7-3.1 6.7.3 1.3 1.8 3.1 0 4-2.2 1.1-4.7 1.4-7.1 1.8-.8.2-.9-.8-.9-1.5 0-6.3-1.1-12.5-2-18.7z"/><path class="st3" d="M75.2 69.7c-3.5-1.6-16.8 4.1-17.8 7.7-.3 1 .3 2.2.4 3.4.5 6.9 4.3 13.1 4 20.2-.1 1.9 1 1.6 2.3 1.2 4.6-1.3 4.2-4.3 2.7-7.8-1.9-4.8-1.3-5.8 3.8-6.4 1-.1 2 0 3 .1 1.7-2.2-1.3-4.9.6-7.1.1-.1.3 0 .4 0 .1.1.2.2.4.3 4.6-6.1 4.6-9.6.2-11.6zm-8.9 14.1c-3.1.7-4.1-2.7-3.9-4.6.2-3.5 4-3.2 6.5-4 1.6-.5 2.8.5 3.1 2.6-.8 2.9-2.8 5.4-5.7 6z"/><path class="st4" d="M109.3 73.3c-1.9-4-4-8-6.1-11.9-1.1-2-1.3-5.3-4.9-4.4-3.4.8-6.9 1.6-7.4 6.1-.6 5.6-1.3 11.2-2 17.2.3.8-1.1 3.2 1.1 3.2 1.7 0 4.1-.5 4.7-3 .2-.8.1-1.7.2-2.5.1-2.3 1.1-3.4 3.3-4.2 3.1-1.1 5.2-.7 6.4 2.4 1.1 2.9 3.2 3.6 5.5 2.3 3.2-1.8 0-3.6-.8-5.2zm-12.2-3.5c-3 .6-2.7-1.5-2.5-3 .2-2.4-.4-5.5 2.6-5.2 2.5.3 4.8 3 4.9 5.5.2 2.6-3 2.3-5 2.7zM73.6 88c1.7-2.3-1.3-4.9.6-7.1.1-.1.3 0 .4 0 .1.1.3.2.4.3-.4 2.9 2.2 3.3 3.9 4.5 2.1 1.6 4.5 2.9 6.5 4.6 1 .8 4 1.4 2.1 3.3-1.3 1.4-3.7 3.5-6.1 1.3-2.6-2.4-5.8-4-7.8-6.9zM153.8 65.1c0-1.3.1-3.9 0-6.6-.1-2.7 1.2-3.7 3.8-4.1 2.7-.4 4.3-.3 3.3 3.1-1 3.1-1.8 6.3-2.7 9.5-.5 1.8-1.9 2.1-3.5 1.9-1.7-.1-1.9-1.1-.9-3.8zM154.2 81c-1.4 0-2.5-.1-2.5-1.8 0-2.3 1.4-3.4 3.2-3.7 1.6-.3 2.2 1.3 2.3 2.6.2 2.2-1.6 2.5-3 2.9z"/><path class="st0" d="M47.3 106.3c-.1-.6-.6-1.4-.4-1.7.6-.8.9.2 1.4.5-.4.4-.7.8-1 1.2z"/><path class="st4" d="M485.3 79.8c-6.7-.1-12.2-5.1-12.8-11-.6-6.6 3.1-11.7 9.5-13.1 1.1-.2 2.3-1.3 3.2-.1.9 1.1.4 2.5.1 3.8-.6 1.9-2.5 2.6-3.7 3.9-1.8 1.8-3 4.1-1.1 6.2 2 2.2 4.5 1.1 6-.9 1.7-2.3 4.2-2.4 6.5-3.1.9-.3 2.1-.8 2.5.5.4 1.1.3 2.6-1.2 2.8-3.3.5-3.8 2.7-3.5 5.4.7 4.8-2.4 5.5-5.5 5.6zM569 75.9c-2 .2-3.7-.2-4.6-2.2-.6-1.4-1.6-2.5-2.9-3.3-2.8-1.7-5.1-2.4-4.9 2.3 0 1-.3 2-.6 2.9-.5 1.3-1.7 1.5-2.9 1.2-1.4-.3-1.9-1.2-1.6-2.6.8-3.7 1.4-7.5 2.4-11.2 1-3.6 3.3-4.1 5.7-1.5 1.8 1.9 3.1 4.3 4.7 6.4.7.9 1.2 2.2 2.7 1.8 1.5-.4 1.8-1.8 1.9-3.2.3-2.9-1.3-7.8 3.4-7 3.5.5 0 4.7.4 7.3.3 1.8 0 3.6-.1 5.5-.1 2.4-1 3.9-3.6 3.6zM516.2 70.6c-3.4-2-4.5-3.4 0-5.1.5-.2.9-.5 1.3-.7 1.8-.9 3-2.5 2.6-4.4-.4-2.1-2.1-3.4-4.3-3.4-3.1 0-6.3-.4-9.4.7-1.2.4-2.5.6-2.7 2.4-.6 4.6-1.3 9.2-2 14.1.1 1-.5 2.8 1.9 2.8 1.7 0 3.2-.2 3.7-2.4 1.4-5.4 2.3-5.6 6.7-1.8 1.6 1.4 3.8 4.4 5.7 1.8 1.9-2.4-2-3.1-3.5-4zm-6.6-4.6c-1.5.6-1.9-.6-2-2-.2-2.9 1.7-3.6 4-4 1.5.1 3.7.3 3.6 1.8-.3 2.9-3.5 3.2-5.6 4.2zM532.8 70.7c4.7 1.2 7.3-.6 7.9-5.4.3-2.2.9-4.2 3.5-3.8 2.6.5 1.5 3 1.5 4.6-.1 8-4 13-11 14 1.3-2.5 1.9-4.9-1.6-5.9-3.8-1.1-.2-2.3-.3-3.5z"/><path class="st3" d="M532.8 70.7c.2 1.1-3.4 2.4.2 3.5 3.5 1 2.9 3.4 1.6 5.9-7.5-2.6-10.6-12-6-18.2.7-.9 1.5-1.4 2.5-1.3 1.4.2 1.1 1.4.8 2.4-.7 2.7-.3 5.3.9 7.7z"/><path class="st4" d="M580.7 61c-.3-2.1.4-3.1 2.6-3 1.6.1 3.4-.3 4.9.1 1.8.5 5-2 5.3 2.1.2 3.3-1.7 4.7-4.8 4.9-2.3-2-5.8-1.7-8-4.1zM608.7 56.7c-2.1 3.5-4 6.8-6 10-.2.3-1.3.3-1.8.1-1-.4-.7-1.3-.4-2.1.9-2.7 1.7-5.4 2.6-8 .5-1.5 1.9-1.7 3.3-1.6 1.1.1 1.6.8 2.3 1.6z"/><path class="st3" d="M580.7 61c2.1 2.5 5.6 2.1 8.1 4-1.5 2.3-1.2 4.7-.6 7.1.4 1.5 0 2.6-1.5 3.2-1.1.4-2.3.8-3.3-.1-1.1-1.1.1-2.2.5-3.2 1.3-3.8 3.3-7.6-2.9-9-.4 0-1-1.2-.3-2z"/><path class="st5" d="M251.1 70.5c-.1-2.8 4.1-2.5 5.9-4.5 1.7-2 2.5-3.2-.7-4-3.9-1-7.7-2-11.7-2-2.3 0-3.6.8-4.4 3.1-2.2 6.6-2.9 13.7-5.8 20.1-1 2.2 1 2.3 1.3 2.3 6.9-.5 12.8-.1 18.4-2.3 4.4-1.8 6-6.1 3.1-8.7-2.1-1.7-6-1.5-6.1-4zm-4.8 7.9c-1.8.6-3.9 2.4-5.6 1.2-2.2-1.5-.1-3.7.6-5.2 1.2-2.5 3.8-1.3 5.8-1.2 1.1 0 1.9.6 1.8 1.9-.2 1.5-1.1 2.8-2.6 3.3zm4-13.7c-.6 2.7-2.6 4.1-5.4 4.4-1.4-.2-3.1-.4-2.7-2.5.5-2.8 2.2-4.4 5.1-4.3 1.5 0 3.5.3 3 2.4zM285.2 73.8c3.3-3 3.3-5.7-.9-7.5-3.5-1.5-7.1-2.8-10.7-3.9-2-.6-4.7-1.1-5.4 1.8-1.9 7.2-6.1 13.3-8.3 20.8 2.6-.7 5.5 3 7.5-.7 4.2-7.7 4.1-7.8 9.9-1.4.5.6 1.4 1 1.8 1.7 1.8 3.8 3.9 3 6.4.8-.3-.4-.4-.7-.7-.9-2.1-1.8-5.2-3.4-5.5-6.1-.5-3.7 4-2.9 5.9-4.6zm-12.4.6c-1.2.6-3.5-.5-2.8-2.2 1-2.3.9-6.1 4.6-6.1 2.3 0 4.9.8 5.7 3.7-.9 4.1-4.9 3.2-7.5 4.6zM341.6 83.7c-.6.5-.9.9-1.3 1.1-7.9 3.9-8 4-6.3 12.9.3 1.7.9 2.8-1.4 3.1-2.3.3-2.5-.9-2.2-2.7.2-1.1.1-2.3 0-3.5-.3-2-.5-4.3-3-4.5-2.3-.2-4.6.2-6 2.5-.7 1.1-1.3 2.3-2.1 3.3-1.4 1.6-3.1.8-4.6.1-2.1-.9-.7-2.3-.1-3.3 2.7-4.9 5.6-9.7 8.4-14.5 1.2-2 2.5-1.5 4.2-.5 1.8 1 1.7 2.2.6 3.6-1 1.2-2 2.5-.5 3.9s2.9 0 4.1-.5c3.2-1.4 6.1-4.3 10.2-1zM308.8 89.6c.1-2.3 0-4.7 0-7h-.1v-3.5c0-1.3-.1-2.7-.2-4-.2-4-3.9-6.4-6.6-3.8-4.2 4-8.7 8.1-10.8 13.8-.3.8-2.1 1.8-.4 2.9 1.6 1.1 2.4-.3 3.3-1.3 1.3-1.3 2-3.1 3.9-3.7 3.9-1.2 6.2 1 6.5 6.5.1 1.9.1 3.3 2.6 3.3s1.8-1.9 1.8-3.2zM307.1 77c-.1 2.1-.7 4.2-3.1 4.2-1.7 0-4.5-.5-4.2-3 .3-2.3 2.8-3.3 4.3-4.2 2.5.2 3.1 1.3 3 3zM360.9 88.8c-3.1 2.2-5.7 4.1-8.4 6-.8.5-1.6 1.4-2.6.5-1.1-1-.7-1.9-.1-3.1 3.5-6.9 4.1-7.2 11.1-3.4z"/><path class="st0" d="M344.7 88.7c-.4 2.1-.8 3.7-.9 5.3-.1 1.5.5 3-1.9 3-1.4 0-2.9.2-3-1.6-.1-1.5-1.7-3.6 1-4.6 1.5-.6 2.9-1.3 4.8-2.1z"/><path class="st5" d="M343 107c-1.8 0-2-1.3-2-2.4 0-2.1 1.3-2.8 3.3-2.7 1.3.1 2.2.5 2.1 2.1-.2 1.5-2.1 3.1-3.4 3z"/><path class="st0" d="M294.1 71.4c-.3.4-.5.8-.8 1.2-.2-.2-.6-.5-.5-.7.1-.4.4-.8.6-1.2.2.3.4.5.7.7z"/><path class="st5" d="M660.8 59.5c-4.3-1.6-11.9.3-14.8 3.6-.9 1.1-1.7 2.3-1 3.6 1.4 2.3.7 4.4.2 6.7-1 5.1 1.9 9.3 6.8 10.3 8.4 1.7 15.8-4.3 15.8-12.9.1-5.9-2.1-9.5-7-11.3zm-9 16c-2.5-.1-4.4-1.6-4.1-4.2.4-3.6 2.9-6 6.6-6.2 2.5-.2 4.5 1 4.7 4 .1 3-3.4 6.3-7.2 6.4zM637.8 60.5c-3 4.7-5.1 8.2-7.3 11.7-.4.7-1 1.5-.4 2.2.6.7 1.5.5 2.3.1 2.5-1.2 5.1-2.1 8.1-2.3-.3 2.6-.7 5-.9 7.5-.1 1.7-1.1 2.4-2.4 2.7-6.1 1.3-12.2 2.5-19 3.9 1.5-4.5 4.3-7.5 6.2-11.1.9-1.8 2-3.5-1.5-3.5-1.4 0-3.9 1.2-3.9-1.4.1-2.6 0-5.9 3.7-6.7 4.5-.9 9-1.8 15.1-3.1zM693.9 57.8c3.3-.9 3 1.6 2.6 4.3-.6 4.1-1.5 7.7-6.9 7.6-3.7-.1-5.2 2.2-5.2 5.8 0 1.4-.5 3-1.1 4.3-.5 1.3-1.9 1.2-3.1 1-1.9-.3-1.2-1.6-.9-2.7.3-1.3.7-2.6 1.1-3.8 1-2.8.6-4.7-2.9-4.4-2.4.2-4.2-.2-3.5-3.1.6-2.5-1.3-6.4 3.4-7.1 1.6-.2 3.3-.5 4.9-.7 3.5-.3 7.2-.7 11.6-1.2zM719.2 59.4c-2.7 8.6-3.1 8.9-9.4 8.8-2.8 0-2.9-1-2.3-3.3 1.8-6.2 2.8-6.7 11.7-5.5zM706.3 77.7c3.2.1 6 .5 5.8 3.6-.3 4.1-3.7 4.7-7 4.6-2.4-.1-5.2-.7-4.8-3.8.5-3.7 3.8-4.1 6-4.4z"/><path class="st1" d="M71.9 77.8c-.8 2.9-2.7 5.4-5.6 6-3.1.7-4-2.7-3.9-4.6.2-3.5 4-3.2 6.5-4 1.5-.4 2.8.5 3 2.6zM94.6 66.8c.2-2.4-.4-5.5 2.6-5.2 2.5.3 4.8 3 4.9 5.5.1 2.7-3 2.4-5 2.7-2.9.5-2.6-1.5-2.5-3zM511.6 60c1.5.2 3.7.3 3.6 1.8-.3 2.9-3.4 3.2-5.6 4.1-1.5.6-1.9-.6-2-2-.2-2.8 1.7-3.5 4-3.9z"/><path class="st2" d="M249 75c-.3 1.6-1.1 2.9-2.6 3.4-1.8.6-3.9 2.4-5.6 1.2-2.2-1.5-.1-3.7.6-5.2 1.2-2.5 3.8-1.3 5.8-1.2 1.1 0 1.9.5 1.8 1.8zM245 69.1c-1.5-.2-3.1-.4-2.7-2.5.5-2.8 2.2-4.4 5.1-4.3 1.4 0 3.4.3 2.9 2.4-.6 2.7-2.5 4.1-5.3 4.4zM280.4 69.8c-.9 4.1-5 3.2-7.5 4.6-1.2.6-3.5-.5-2.8-2.2 1-2.3.9-6.1 4.7-6.1 2.2 0 4.8.7 5.6 3.7zM304.1 74c2.5.2 3.1 1.3 3 3-.1 2.1-.7 4.2-3.1 4.2-1.7 0-4.5-.5-4.2-3 .2-2.3 2.8-3.3 4.3-4.2zM651.8 75.5c-2.5-.1-4.4-1.6-4.1-4.2.4-3.6 2.9-6 6.6-6.2 2.5-.2 4.5 1 4.7 4 .1 3-3.5 6.3-7.2 6.4z"/></svg>
