<svg xmlns="http://www.w3.org/2000/svg" viewBox="0 0 390.5 247.2"><defs><style>.st0 { fill: none; } .st1 { fill: #402e21; } .st2 { fill: #b9413a; } .st3 { fill: #c1443f; } .st4 { fill: #42433a; } .st5 { fill: #d0a544; } .st6 { fill: #cb8f3f; } .st7 { fill: #d0883a; } .st8 { fill: #cc7b3f; } .st9 { fill: #c29e3e; } .st10 { fill: #be6838; } .st11 { fill: #c03f36; } .st12 { fill: #cc7a39; } .st13 { fill: #9e8651; } .st14 { fill: #d87b3b; } .st15 { fill: #d7843a; }</style></defs><path class="st0" d="M358.1 247.1c-117.8 0-235.7 0-353.5.1-3.8 0-4.6-.8-4.6-4.6.1-79.5.1-159 0-238.5C0 .7.7 0 4.1 0c127.3.1 254.7.1 382 0 2.7 0 4.1-.1 4.1 3.5-.1 80-.1 160-.2 240 0 1 1.6 3-.9 3.5 0-36.9 0-73.7-.1-110.6 0-1.5 1-3.4-1-4.4-.1-.6-.1-1.1-.2-1.7 1.7-2.6 2.3-4.6-2.1-4.3-4.6.4-9.5 1-13.7.2-8.5-1.5-18.1 6.6-25.4-3.1-.1-.1-.3-.1-.5-.1-5.8.7-4-3.4-3.8-6.3.1-2.1.5-4.1.8-6.6-8 2.7-14.7 7.4-23.7 9.3 2.1-2.7 3.6-4.3 4.7-6.1 2.8-4.6 7.8-7.7 8.9-13.3.4-.5.8-1 1.2-1.4 2 0 2.6-1.5 3.5-3.5-17.4 0-34.5-.1-51.6.1-2.5 0-4.2 1.4-3.8 4.6.7 4.8 1.1 9.7 1.4 14.6.2 2.8.9 3.1 3.6 2.3 6.4-2.1 12.8-4.1 20.5-5-3.2 3.9-6 7-8.4 10.4-2.7 4-6 5.4-10.9 5.1-7.2-.4-14.5-.1-21.8-.1-.8-.4-1.7-.8-2.6-1.2-.4-.6-.8-1.1-1.1-1.7 3.4-5-3-4.1-4.1-6.6-1.8-4-5.7-5.1-9.9-2.5-3.4 2.1-6 1.6-7.3-2.5-.5-1.5-1.2-2.6-2.8-1.7-5 3-11.7 4.5-10.9 12.5.2 1.9 1.1 4 .6 5.8-1.7 6.1-3.1 11.9-2.8 18.7.2 6.5.9 7.2 6.8 4-.9 3-1.5 5-2.5 8.5 7-6.9 8-3.3 7.3 2.4 3.5-.9 2-6.8 6.8-5.6.4 1.4.9 2.8 1.9 6v-8.1c.1-.7.1-1.4.2-2.1 1.6 1.1 3.3 2 4.8 3.3 10.8 9.7 22.2 18.8 34.4 26.7l22.8 16.2c.7.9 1.3 1.7 2 2.6-.6 1.4-1.2 2.8-1.9 4.2v.1c-.3.6-.6 1.3-1 1.9-1.3 2.9-2.6 5.7-4.2 9.2 8.1-.4 15.2-1.1 22.3-1 3.7 0 8.3 1.8 7.5 6.1-.8 4.4.7 3.7 3.4 3.1 1.2-.3 2.4-.5 2.2 1.9-5.1-1.1-9.2 1-13.2 3.8-4.7 3.2-5 7-.2 10.3 6.5 4.4 17.1 3.1 21.5-3.5 2.4-3.7 4.1-3.2 6.7-.9 1.3 1.1 2.6 2.1 3.9 3.2-.1 2.4-1.1 4.8.8 6.9z"/><path class="st1" d="M388 132c2 1.1 1 3 1 4.4.1 36.9.1 73.7.1 110.6h-2c-.6-2 1.2-4.4-1-6.2h-.8c-.1-2.3-.2-4.5-.2-6.8.8-3.3-.9-4.3-3.9-4-.9-.8-1.9-1-3-.7h-2.1c-10.7-.5-14.3 3.9-15 17.7h-3c-1.9-2-.9-4.5-1.1-6.8.7-1.6 1.4-3.1 2.1-4.7 1-1.5 2.1-3 3.1-4.5 3-3.3 7.8-2.3 11.1-4.8.6-.1 1.1-.1 1.7-.2 12.3.3 12.3.3 12.1-8.9 0-3.3.1-6.6.1-9.9v-20.6-11.7c-.1-9.3-.1-18.7-.2-28 .1-.5.1-.9.2-1.4 1.4-2.7.8-5.5.5-8.4.2-1.6.3-3.3.3-5.1z"/><path class="st2" d="M361.1 247.1c.7-13.8 4.3-18.2 15-17.7-.4 1.9-2 2.5-3.6 2.6-2.8.3-2 1.7-1.3 3.3-2.1 2.7-.9 3.1 1.7 2.4.9-.3 2-1.1 2.6 0 .8 1.4-.7 2-1.6 2.6-2.4 1.7-5.4 3-2.8 6.8h-10zm3.9-6.3c1.2 1.5-1.4 5 2 5.1 3 .1 2.2-3.1 2.2-5.1 0-2 1-5.1-2.1-5.2-3.7-.1-1.1 3.3-2.1 5.2z"/><path class="st1" d="M371.1 247.1c-2.6-3.8.4-5.1 2.8-6.8.8-.6 2.4-1.2 1.6-2.6-.6-1.1-1.7-.3-2.6 0-2.6.8-3.8.3-1.7-2.4 3.1-1.4 6.1-2.6 8.7.9.2 3-2 4.6-4.3 6.5 2.2 1 7-.7 4.4 4.4h-8.9z"/><path class="st2" d="M380.1 247.1c2.5-5-2.3-3.4-4.4-4.4 2.2-1.9 4.5-3.4 4.3-6.5 1.4-1.5 3-2.5 5.2-2.1.1 2.3.2 4.5.2 6.8-2.1 1.7-.9 4.1-1.2 6.2h-4.1z"/><path class="st3" d="M384.1 247.1c.3-2.1-.8-4.4 1.2-6.2h.8v6.2h-2z"/><path class="st2" d="M386.1 247.1v-6.2c2.2 1.7.4 4.2 1 6.2h-1z"/><path class="st1" d="M266.7 127.1c7.3 0 14.6-.4 21.8.1 4.9.3 8.2-1.1 10.9-5.1 2.3-3.4 5.2-6.4 8.4-10.4-7.7.9-14.1 2.9-20.5 5-2.7.9-3.4.6-3.6-2.3-.3-4.9-.7-9.8-1.4-14.6-.4-3.2 1.3-4.6 3.8-4.6 17.1-.1 34.2-.1 51.6-.1-.9 1.9-1.5 3.4-3.5 3.5-.8-2.2-2.7-1.2-4.2-1.5-4.4-.9-8.6 1.7-13 .4-6.7-.1-13.3-.4-19.9-.1-10.5.5-11.1 1.3-10.8 11.9v1c-.3 3.1.7 4.2 4.1 3.2 6.2-1.8 12.6-3.1 18.8-4.7 3.1-.8 3.6.5 2.8 3.1-7.7 10.5-17.6 19.1-27.4 30.5 7.1-1.7 12.3-2.9 17.5-4.2 8.2-1.7 17.9 0 21.8-10.8.6-1.7 4.4-3.9 5.9-3.4 9.5 3.5 6.7-4.2 8.9-8.7-9.6 3.3-17.4 8.2-26.4 9.6-.2-4.2 3.5-5.7 5.6-8.2 4.8-5.7 8.9-12.1 15.1-16.6-1.1 5.7-6.1 8.8-8.9 13.3-1.1 1.8-2.6 3.4-4.7 6.1 9-1.8 15.7-6.6 23.7-9.3-.3 2.5-.6 4.5-.8 6.6-.2 2.9-2 7 3.8 6.3.2 0 .4 0 .5.1 7.3 9.7 17 1.6 25.4 3.1 4.2.7 9.1.1 13.7-.2 4.4-.4 3.8 1.7 2.1 4.3-3.5-1.8-7.2-.4-10.7 0-9.4 1-19-.7-28.3 1.8-2 7.8.2 15.4 1.6 23 .9 4.8.4 10.5 4.4 13.9 4.6 4 6 8.5 4.4 14.1-3.9 6.1-11.1 7.5-18.1 11.9 6.5 0 11.3-.2 16.1.1 2.4.2 5.5-1.5 7 2-.3.2-.4.4-.4.7-2.7 2.2-4.3 5.2-5.9 8.2-.3.3-.6.7-.8 1l-.1.1c-.2.3-.4.5-.5.8-.2.3-.3.7-.5 1-2.7 2.7-4.6 5.8-6 9.3-2.2.9-1.5 3.6-3.1 4.8-1.3 1.4-2.7 2.7.3 3.8l-.1-.1c1.1 2 1.8 4.4 4.8 4.2.1 2 1.2 3 3.2 2.8l.1-.1c-.3 1.4-.8 2.6-2.2 3.2-2.6-2.3-4.3-2.7-6.7.9-4.4 6.6-15 8-21.5 3.5-4.8-3.2-4.5-7 .2-10.3 4.1-2.8 8.2-4.9 13.2-3.8.2-2.4-1.1-2.2-2.2-1.9-2.6.6-4.1 1.3-3.4-3.1.7-4.3-3.8-6.1-7.5-6.1-7.1-.1-14.2.6-22.3 1 1.6-3.5 2.9-6.3 4.2-9.2.3-.6.6-1.3 1-1.9v-.1c1.8-.9 2.1-2.4 1.9-4.2-.7-.9-1.3-1.7-2-2.6.1-1.6 1.2-2.2 2.5-2.6.4.1.7.1 1.1.2.6.1 1.2.1 1.8.2-1.1 3.6-1.7 7.5-3.3 10.9-3.1 6.3-.3 6.6 4.9 6 12-1.3 12.1-1.2 12-13.4 0-4.3 1.2-6.7 5.8-7.4 7.1-1.1 13.8-3.4 19.6-8 2.3-1.1 3.3-2.9 3.5-5.4.7-8.4-5.9-7.6-10.9-8.8-5.7.4-11.4.8-17.1 1.3-3.1.3-4.7 2.2-5.8 5.2-2.2 5.7-2.9 12.2-7.7 16.8-.5-.1-1.1-.2-1.6-.3.3-.9.5-1.9.8-2.8.5-1.4 1-2.7 1.5-4.1 2.9-4.7 4.1-10 5.9-15.2 2.5-.9 4.9-2 7.4-2.6 4-.8 3.2-4.1 2.9-6.3-.4-3.3-3.2-1.2-4.8-1.1-5.2.5-4.6 5.7-6.8 8.8-5.5 1.3-11.5-1.4-16.9 1.6-.4.1-.7.1-1.1.2-.8-.4-1.6-.5-2.2.3-1.2-.6-2.3-1.3-3.5-1.9-.2-1.2.1-2.2 1-3.2 6.5-6.7 11.8-14.3 15.9-22.7 1.4-1.6 2.7-3.2 2.8-5.5 0-.2-1.1-.7-1.6-.6-4.2 1.1-8.9.3-12.7 2.9-4-.5-7.7.9-11.4 2.1-1.3.4-2.7.7-4 1.1-1.1-.1-2.3-.2-3.1.9-1.7-1.1-5 3.7-5.7-1.5 1.1-.8 1-2 .9-3.1 2.5-1.2 5.1-2.4 6.9-4.7l3-2.7c1.4-1 3.1-2.2 0-3-3.3-.9-6.7-1.4-10.2-.7-1.3 0-2.6.1-3.9.1-.3-.2-.6-.2-.9-.1-2.2-.1-5.6 1.3-6.2-2.9zm78.1 15c-.2-4.1-.1-8.2-.6-12.2-.3-2.7-1.9-4.6-5.1-3-1 .1-2 .1-2.9.2-4.3.4-9.1-.5-11.6 4.5-1.8 3.5-3.7 6.9-5.5 10.4-5.4 8.6-10.8 17.2-16.5 26.3h10.1c2.2 0 5 .7 5.8-2.4 1.5-5.6 6-6.4 10.8-6.8 1.8-.3 3.7-.5 5.5-.8.1.8.3 1.6.2 2.4-.3 2.5-1.8 6.5 1 6.9 4.2.7 9.1 2.4 13-1.5-2.6-7.1-2.3-14.7-3.9-22-.2-.7-.3-1.3-.3-2zm-7.3 66.8c.2-3.1.4-6.3.5-9.4 0-1.4.6-3.2-1.8-3.4-2.2-.2-5.2-.3-5.6 2.1-.8 5.2-1.3 10.7 2.3 15.5.2 1.2.6 2.5 1.8 2.6 1.4.1 1.6-1.5 1.9-2.5.6-1.6.7-3.3.9-4.9zm21.9-10.7c-5.1 0-9 .1-12.9 0-4.1-.2-5.5 1.6-5.4 5.6.1 4.8-.9 9.5-2.4 14.1-.4 1.3-2.9 3-.3 4.1 1.8.8 4.3 1 5.9-1.1 5.2-7.1 7.8-15.9 15.1-22.7zM334.9 242c3.7-.8 8.6-1.5 8.9-6.5.3-4.3-3.8-5.5-7.5-5.4-4.3.1-9.5.6-9.8 6.2-.1 4.5 4.2 5.3 8.4 5.7z"/><path class="st4" d="M244.1 157.2c-4.8-1.1-3.3 4.7-6.8 5.6.7-5.8-.3-9.4-7.3-2.4 1-3.5 1.7-5.5 2.5-8.5-5.9 3.2-6.6 2.6-6.8-4-.3-6.8 1.1-12.5 2.8-18.7.5-1.7-.4-3.8-.6-5.8-.8-8 5.9-9.5 10.9-12.5 1.6-1 2.4.2 2.8 1.7 1.3 4.1 3.9 4.6 7.3 2.5 4.2-2.6 8.1-1.4 9.9 2.5 1.1 2.5 7.5 1.6 4.1 6.6-2-.1-3-1.8-4.4-2.8-1.7-1.1-2.8-3.7-5.5-2.6-3.6 1.5-7.2.7-10.8 0-1.4-.6-2.9-1.9-4.3 0l-.3.1c-2.8.5-1.6 2.5-1.6 4.1-.1.9-.2 1.9-.3 2.8-.3.4-.6.7-1 1.1h-.1c-1.5 1.7-.7 3.7-1 5.6-.2 0-.3.1-.4.3-.5-.5-1-1-1.2.3l.3 2.1c-.4.8-.4 1.5.5 2-.1.3-.1.6.1.9 1.2 1.9-4.3 3.2-.5 5.3-.1.3 0 .5.2.6.1.6.2 1.3.4 1.9 1.5 5 5.8 4.6 9.7 4.9 1 .7 2.1 1.5 3.1 2.2-.1.7-.1 1.4-.2 2.1-.3.7-.9 1.4-1.5 2.1z"/><path class="st5" d="M348.9 132.1c9.3-2.5 18.9-.9 28.3-1.8 3.5-.4 7.1-1.8 10.7 0 .1.6.1 1.1.2 1.7-.1 1.7-.1 3.5-.2 5.2-1.3 2.7-.5 5.6-.5 8.4-.1.5-.1.9-.2 1.4-3 .2-6-3.7-9 .1h-2c-7-1.2-13.7-4.2-21-2-.7-.7-1.3-1.4-2-2 .1-1.6-.3-3.1 1.8-4.2 1.8-.9 5.6 0 5.2-2.4-.4-2.5-4.4-1.1-6.6-2.2-.9-.5-2.3-.1-3.5-.1l-1.2-2.1z"/><path class="st2" d="M302.1 138.2c-5.2 1.2-10.4 2.5-17.5 4.2 9.8-11.4 19.6-20 27.4-30.5.3 1.2.6 2.4.8 3.7.5-.3 1.3-.6 1.4-.9.9-5.7 5.6-10.7 2.9-17 4.4 1.3 8.6-1.3 13-.4 1.5.3 3.4-.7 4.2 1.5-.4.5-.8 1-1.2 1.4-6.2 4.5-10.3 10.9-15.1 16.6-2.1 2.5-5.9 4.1-5.6 8.2-.5 6.3-8.5 1.9-10 7.1-.2.9-3.5-1-3.6 1.9-.3 2.2 1.8 3 3.3 4.2z"/><path class="st6" d="M233.9 132.5c.4-1.9-.5-3.9 1-5.6 1.1 4.9 3.6 4.4 6 1.2.9-1.3 1.5-1.7 2.5-.8 6.4 5.2 14 3.1 21.2 4.3-.2-2.1-.3-3.9-.4-5.6.9.4 1.7.8 2.6 1.2.6 4.2 4 2.8 6.5 3.2.3 0 .6.1.9.1 1.3 0 2.6-.1 3.9-.1.1.6.2 1.1.3 1.7-1.9 2.4-5.2-.1-7.1 2.1-3 .5-6.2-1-9 1-4.8.7-9.4-.2-13.7-2.2-2.2-1-3.7.2-4.8 1.5-1.4 1.6-3 2.8-5.3 3.5 7 4.7 14.6 7 21.8 10.3 1.9 1.8 5.3 1.7 6 5-12.4-4.8-26.3-6.7-32.4-20.8z"/><path class="st5" d="M264.2 126c.1 1.8.3 3.5.4 5.6-7.1-1.1-14.8.9-21.2-4.3-1-.9-1.6-.4-2.5.8-2.4 3.2-4.9 3.7-6-1.2h.1c.3-.4.6-.7 1-1.1.1-.9.2-1.9.3-2.8 1.7-.9 2.2-2.3 1.6-4.1l.3-.1h4.3c3.6.7 7.1 1.5 10.8 0 2.7-1.1 3.8 1.5 5.5 2.6 1.4 1 2.4 2.7 4.4 2.8.2.7.6 1.2 1 1.8z"/><path class="st1" d="M246.1 153.1c-1-.7-2.1-1.5-3.1-2.2.4-.4.7-.8 1.1-1.2l.5.1.4-.2c1 .1 2 .3 3 .4 2.5 1.7 4.7 4 8 4.2.3 1.2.8 2 2.1 1.1.6.3 1.2.7 1.8 1 .3.3.6.5 1 .8l.2.1c.1 1.7 1.3 2.1 2.8 2l.1.1c.3 1.7 1.2 2.7 3 2.9.9.7 1.8 1.4 2.7 2.2.4 1.3.5 2.8 2.5 2.6l.1.1c1.6 3.5 5.6 4.4 7.8 7.2l2.1 1.8 1.2.9c1.2.2 2.5.2 2.8 1.8-.8 1.3 2.3 3.5-1 4.3-12.2-8-23.5-17-34.4-26.7-1.3-1.3-3.1-2.2-4.7-3.3z"/><path class="st4" d="M285.2 183.1c3.3-.7.2-2.9 1-4.3 1.6.7 3.3 1.4 4.9 2.2 3.8 2.1 6.4 6.2 11.1 7 .6.4 1.2.9 1.8 1.3.3.3.6.5.9.8-.3 4.1 4.5 3.7 5.7 6.5-1.4.3-2.5 1-2.5 2.6-7.7-5.3-15.3-10.7-22.9-16.1zM353.1 237.1c1.4-.6 1.9-1.8 2.2-3.2 1.3.6 2.5 1.1 3.8 1.7-.7 1.6-1.4 3.1-2.1 4.7-1.3-1.1-2.6-2.2-3.9-3.2z"/><path class="st1" d="M244.1 157.2c.6-.7 1.3-1.4 1.9-2v8.1c-1.1-3.4-1.5-4.7-1.9-6.1z"/><path class="st4" d="M310 201.9c.2 1.8-.1 3.3-1.9 4.2.7-1.4 1.3-2.8 1.9-4.2zM308.1 206.2c-.3.6-.6 1.3-1 1.9.4-.6.7-1.3 1-1.9z"/><path class="st7" d="M350.1 218.4c1.4-3.5 3.3-6.6 6-9.3.6 1.5 1.7 3 1.9 4.5.5 4 4.4 1.4 6.1 3.3.5.5 1.8-.4 1.9-1.6.2-2.6-1.9-3.2-3.7-4-.7-.3-1.7-.3-1.6-1.5 1.5-.6 2.9-1.1 4.4-1.7 3.2-1.6 5.9 1.9 9 1l2 2c-1.2 2.3-1.5 4.1 2 4-1 3.7 2 8.5-3 11.1-.6.1-1.1.1-1.7.2-5.4-.1-10.7-2.3-16.2-1.4-1.9-2.7-3.3-6-7.1-6.6zM378.1 147.1c3-3.8 6 .1 9-.1.1 9.3.1 18.7.2 28-.7 1-1.4 2-2.2 3.1-.3-.9-.8-1.8-1-2.7-.4-2.1 1.1-5.1-2.1-6-2.8-.8-1.8 3.3-4 3.7-.2-2.1-1.9-2.1-3.4-2-3.3.3-5.3-1.2-6.6-4 2.1-3.1 4.8-4.8 8.6-3 3.3 1.6 5 .5 5.4-3.1-1.3-2.4 3.2-4.5.6-6.7-2.3-1.9-3-4.7-4.5-7.2z"/><path class="st8" d="M376.1 211.1l-2-2c3.5.4 6.1-3.9 10-2 1 3.4 2.1 6.7 3.1 10.1.2 9.2.2 9.2-12.1 8.9 5-2.6 2.1-7.4 3-11.1.1-.5.2-1.1.5-1.3 1.2-1.2 4.6-1.3 2.9-3.8-1.5-2.2-2.7 1.6-4.5 1.2-.3-.1-.6 0-.9 0z"/><path class="st9" d="M350.1 218.4c3.8.7 5.2 3.9 7.1 6.6 1 2.6 4.8 3 5.1 6.2-1 1.5-2.1 3-3.1 4.5-1.3-.6-2.5-1.1-3.8-1.7l-.1.1c-.2-1.9-1.5-2.6-3.2-2.8-1.2-1.9-2.1-4.1-4.8-4.2l.1.1c-.1-1.3-.2-2.5-.3-3.8 1.5-1.4.9-4.1 3-5z"/><path class="st3" d="M385.1 234.1c-2.2-.4-3.8.6-5.2 2.1-2.6-3.5-5.6-2.4-8.7-.9-.8-1.5-1.6-3 1.3-3.3 1.6-.2 3.2-.7 3.6-2.6h2.1c1 .2 2 .5 3 .7 3-.3 4.7.7 3.9 4z"/><path class="st5" d="M387.3 186.7v20.6c-2.5-1.3-1.5-4.4-3.3-6.1 0-2.4.1-4.7.1-7.1 3.7-1.4.9-5.5 3.2-7.4z"/><path class="st10" d="M362.3 231.1c-.3-3.2-4-3.6-5.1-6.2 5.5-.9 10.8 1.3 16.2 1.4-3.3 2.5-8.2 1.5-11.1 4.8z"/><path class="st6" d="M387.3 186.7c-2.3 1.9.5 6.1-3.1 7.4v-9c4.2-1.8.8-4.7 1-7 .7-1 1.4-2 2.2-3.1-.1 3.9-.1 7.8-.1 11.7zM384.1 201.2c1.7 1.7.7 4.8 3.3 6.1 0 3.3-.1 6.6-.1 9.9-1-3.4-2.1-6.7-3.1-10.1 0-1.7-.1-3.4-.1-5-.1-.3-.1-.6 0-.9z"/><path class="st7" d="M387.3 145.6c0-2.8-.8-5.7.5-8.4.3 2.9.9 5.7-.5 8.4z"/><path class="st2" d="M381.2 230c-1-.2-2-.5-3-.7 1.1-.2 2.1-.1 3 .7z"/><path class="st1" d="M365 240.8c1-1.8-1.6-5.2 2-5.2 3 0 2 3.2 2.1 5.2 0 2 .8 5.2-2.2 5.1-3.4-.2-.8-3.6-1.9-5.1z"/><path class="st2" d="M314.5 194.3c4.7-4.6 5.4-11 7.7-16.8 1.1-3 2.7-4.9 5.8-5.2 5.7-.5 11.4-.9 17.1-1.3 2.5 2.4 0 3.1-1.6 3.9 2.3 2.7 5.7 1.5 9 3.1-3.6 1.2-6.3 2.1-9.1 3-1.2-6.5-6-4.8-10.2-4.4-2 .2-4.6.1-4.8 3.2-.1 2.1-1.1 4.5.6 6.2 1.9 1.9 4-.1 6-.6 1.8-.4 3.5-1.1 5.2-1.6 1.3 2 3.1 2 5.2 1.3 2.3-.8 4.8-1.1 7.2 0-5.8 4.5-12.5 6.9-19.6 8-4.6.7-5.9 3-5.8 7.4.1 12.2 0 12-12 13.4-5.2.6-8 .3-4.9-6 1.7-3.3 2.2-7.2 3.3-10.9.2-.8.5-1.8.9-2.7z"/><path class="st8" d="M313.1 145.1c-4.1 8.4-9.3 16-15.9 22.7-.9.9-1.2 1.9-1 3.2-1.7 4.3-4.7 3.6-7.2 1.3-2.2-2.1-3.8-2.1-5.7-.2-.7-.4-1.4-.7-2.1-1.1-1.2-2.7-4.5-4.2-4.1-7.8.2-3.4 5.4 1.2 5.1-3.2 1.1 0 2.3.2 3-1 8.2.7 3.7-4.8 4-8 1.7-.3 2.2 2.6 4.7 1.3-2.5-2.3-.6-6.2-3.7-8.3 3.7-1.1 7.4-2.6 11.5-2.1 4-.1 7 4.1 11.4 3.2zM299 159.5c-.3-2.3 1-4.3-.4-6.1 0-.1-1 .3-1.1.6-.7 1.9-.6 3.7 1.5 5.5z"/><path class="st11" d="M334.6 158.2c-1.8.3-3.7.5-5.5.8-1.2-3.8-4.4 1-6.1-1.6 2-1.7 4-3.6 6.1-5.4 1.3-.3 2.5-.7 3.8-.8 2.4-.2 2.5-1.9 2.2-3.6-.4-2.9.1-6.4-2.6-8.1-1.9-1.2-2.1 1.9-3.3 2.8-.2-1.3-.6-1.9-2.2-1.7-3.8.3-2.2 4.1-3.4 5.7-2.8-.6-1.9-4.3-4.7-4.4 1.9-3.5 3.7-6.9 5.5-10.4 2.6-5 7.3-4.1 11.6-4.5-.4 1.4 4.1 1.6.8 3.9-3.1 2.2-2.3-1.4-3.4-2-2.4 5.5.5 8.6 7.7 8.1-.3 1.7.8 3.8-1.4 4.9-1.3.6-1.9 1.5-1.4 2.7.1.3 1.8.1 2.8 0 1.3-.1 2.5-.3 3.8-.5 1.6 7.3 1.4 14.9 3.9 22-1.4.3-2.9.8-4.3.9-1.7 0-4 1.1-4.9-.9-.8-2 2.7-1.4 2.9-4-3.8 1.1-5.7-1.7-7.9-3.9zM317.1 97.5c2.7 6.3-2 11.3-2.9 17-.1.4-.9.6-1.4.9-.3-1.2-.6-2.4-.8-3.7.8-2.6.4-3.9-2.8-3.1-6.3 1.6-12.6 2.9-18.8 4.7-3.3 1-4.3-.1-4.1-3.2v-1c-.2-10.5.3-11.3 10.8-11.9 6.7-.1 13.3.3 20 .3z"/><path class="st3" d="M318.9 142c2.8.1 1.9 3.7 4.7 4.4 1.2-1.6-.5-5.4 3.4-5.7 1.6-.1 2 .4 2.2 1.7-.8 3.5-2.5 6.5-5.4 9.7h5.3c-2 1.8-4.1 3.6-6.1 5.4 1.6 2.5 4.8-2.2 6.1 1.6-4.7.4-9.2 1.2-10.8 6.8-.8 3.1-3.6 2.4-5.8 2.4h-10.1c5.7-9.2 11.1-17.7 16.5-26.3z"/><path class="st12" d="M282.1 160.1c.3 4.3-4.8-.2-5.1 3.2-3 .1-3-2-3-4.1 0-5.5-4-5.7-7.9-6-.7-3.3-4.1-3.2-6-5-3.3-4.9 1.5-8.7 2-13 2.8-2 6-.5 9-1-.9 1.8-1.3 2.8 1.7 2.5 2.8-.3 6 .5 5.4 4.8.1 1.1.2 2.3-.9 3.1-1.9-1.7-2.8-2.9-3.6 1.2-1.3 6.7 3.3 8.1 7.4 10.4.3 1.2.7 2.6 1 3.9z"/><path class="st3" d="M302.1 138.2c-1.5-1.2-3.6-2-3.5-4.3.1-2.9 3.4-1 3.6-1.9 1.5-5.2 9.5-.8 10-7.1 9.1-1.4 16.9-6.3 26.4-9.6-2.2 4.5.7 12.2-8.9 8.7-1.4-.5-5.3 1.7-5.9 3.4-3.8 10.8-13.5 9.1-21.7 10.8z"/><path class="st2" d="M359.4 198.2c-7.3 6.8-9.9 15.6-15.2 22.7-1.6 2.1-4.1 1.8-5.9 1.1-2.5-1.1-.1-2.8.3-4.1 1.5-4.6 2.5-9.3 2.4-14.1-.1-4 1.3-5.8 5.4-5.6 4 .1 7.9 0 13 0z"/><path class="st8" d="M321 172c-1.8 5.1-3.1 10.5-5.9 15.2-1.2.5-2 0-3.2-.5-3.7-1.4-5.5-7.9-11-4.5-1.2-.4-2.5-.7-3.7-1.1 1.8-2.4-.4-6.1 2.5-8.2.6-.8 1.4-.7 2.2-.3.3.2.6.4.8.6.1-.3.1-.5.2-.8 5.4-2.9 11.3-.2 16.9-1.6l1.2 1.2z"/><path class="st12" d="M364.4 197.1c-1.5-3.5-4.7-1.8-7-2-4.8-.3-9.6-.1-16.1-.1 7-4.4 14.2-5.8 18.1-11.9 2.4-.4 1.7-2.9 2.9-4.1h4c2.4 3.6 3.7 7.6 3 12-5.2-.6-2.3 4.9-4.9 6.1zm-2.4-9.4c-.1-.3-.2-.6-.3-.8-.1.1-.3.2-.3.3 0 .3.1.6.1.9.1-.1.3-.2.5-.4z"/><path class="st10" d="M362.1 179.1c-1.1 1.3-.5 3.7-2.9 4.1 1.7-5.7.3-10.1-4.4-14.1-4-3.5-3.5-9.2-4.4-13.9-1.4-7.5-3.6-15.2-1.6-23 .4.7.8 1.3 1.2 2 .3 3-.8 6.2.9 9.1.5 2.5 2.5 1.8 4.1 1.9.2 2.6 1.9 3.1 4 2.9-1.1 2.8 2.4 6.4-.7 8.6-5.2 3.7-4.3 7.5-.7 11.4 3 3.2 5.2 6.4 4.5 11z"/><path class="st2" d="M334.9 242c-4.2-.3-8.5-1.1-8.3-5.7.3-5.6 5.4-6 9.8-6.2 3.6-.1 7.8 1.1 7.5 5.4-.4 5-5.3 5.7-9 6.5z"/><path class="st10" d="M282.1 160.1c-.3-1.3-.7-2.6-1-4l1-1c2-.3 2.3-1.5 1.6-3.1-.1-.3-.9-.7-1.1-.6-1.9 1 .1 2.5-.5 3.7l-1 1c-4.1-2.2-8.7-3.7-7.4-10.4.8-4.2 1.7-3 3.6-1.2.7 5.1 3.9.4 5.7 1.5-.6 2.2.4 1.9 1.9 1.4 3.2-1 4.5.5 4.2 3.7-1.3.1-3.7.6-3.1 1.3 2.6 2.9-1.1 4.5-.9 6.7-.7 1.1-1.9 1-3 1z"/><path class="st11" d="M352.5 185.3c-2.4-1.1-4.8-.8-7.2 0-2.1.7-3.9.7-5.2-1.3 1.1-.9 2.1-1.9 3.2-2.8 2.8-.9 5.6-1.8 9.1-3-3.3-1.6-6.7-.5-9-3.1 1.6-.8 4.1-1.6 1.6-3.9 5 1.3 11.7.4 10.9 8.8-.1 2.3-1.1 4.2-3.4 5.3z"/><path class="st10" d="M333 213.7c-3.5-4.7-3-10.2-2.3-15.5.3-2.4 3.3-2.2 5.6-2.1 2.4.2 1.8 2 1.8 3.4-.1 3.1-.3 6.3-.5 9.4-1-.1.4-1.8-1.7-1.8-6.7.1-1.9 4.5-2.9 6.6zM321 172c-.4-.4-.8-.7-1.3-1.1 2.2-3 1.6-8.3 6.8-8.8 1.6-.2 4.4-2.3 4.8 1.1.3 2.2 1.1 5.4-2.9 6.3-2.5.4-4.9 1.6-7.4 2.5z"/><path class="st6" d="M299.7 172.9c-2.9 2.1-.7 5.8-2.5 8.2-4.7-3-9.3-6-14-9 2-1.9 3.5-1.9 5.7.2 2.5 2.4 5.5 3 7.2-1.3 1.2.6 2.4 1.3 3.6 1.9z"/><path class="st7" d="M364.4 197.1c2.6-1.2-.3-6.7 4.7-6.1 2.3 1-.7 3.4 1.1 4.4 1.9.9 1.9-3.2 3.5-1.3 1.1 1.3.6 3.5-.2 5.2-.7 1.6-1.6 3-3.7 2.4-1.9-.5-3.7-1.1-5.6-1.7 0-.7-.1-1.5-.1-2.2-.1-.3 0-.5.3-.7zM278.2 141.4c.6-4.3-2.6-5.1-5.4-4.8-3 .3-2.6-.7-1.7-2.5 1.9-2.2 5.2.3 7.1-2.1.6 0 1.3.1 1.9.1 0 3.4 5.7.5 5.1 4.6-1.9 2.3-4.5 3.4-7 4.7z"/><path class="st6" d="M365.1 208.1c-1.5.6-2.9 1.1-4.4 1.7-.1 1.2.9 1.2 1.6 1.5 1.8.8 3.9 1.4 3.7 4-.1 1.2-1.4 2.2-1.9 1.6-1.7-1.9-5.6.7-6.1-3.3-.2-1.6-1.2-3-1.9-4.5.2-.3.3-.7.5-1 .3-.2.4-.5.5-.8l.1-.1c.3-.3.6-.7.8-1 1.3-.3 2.7-.7 4-1-.1 2.1.9 3.1 3.1 2.9z"/><path class="st3" d="M341.1 137.1c-7.2.5-10.1-2.6-7.7-8.1 1.2.6.3 4.2 3.4 2 3.3-2.3-1.1-2.5-.8-3.9 1-.1 2-.1 2.9-.2 3.7 2.8 3.6 6.4 2.2 10.2z"/><path class="st6" d="M300.9 182.2c5.5-3.4 7.3 3.1 11 4.5 1.2.4 2 1 3.2.5-.5 1.4-1 2.7-1.5 4.1-4.2-.3-6.7-5.1-11.3-4.1-.5-1.7-.9-3.4-1.4-5z"/><path class="st2" d="M334.6 158.2c2.2 2.2 4.1 5 8 3.9-.2 2.6-3.7 2-2.9 4 .9 2 3.2.9 4.9.9 1.4 0 2.9-.6 4.3-.9-3.9 3.8-8.9 2.2-13 1.5-2.8-.5-1.3-4.4-1-6.9 0-.9-.2-1.7-.3-2.5z"/><path class="st7" d="M313.1 145.1c-4.4.8-7.4-3.3-11.5-3.1 3.9-2.6 8.5-1.9 12.7-2.9.5-.1 1.6.4 1.6.6-.1 2.2-1.4 3.9-2.8 5.4z"/><path class="st11" d="M341.1 137.1c1.4-3.8 1.5-7.4-2.1-10.2 3.2-1.6 4.8.3 5.1 3 .5 4 .4 8.1.6 12.2-2.7-.5-1.9-3.7-3.6-5z"/><path class="st9" d="M333 213.7c1-2.1-3.9-6.4 2.8-6.6 2.2 0 .8 1.7 1.7 1.8-.2 1.6-.4 3.3-.8 4.8-.3 1-.5 2.6-1.9 2.5-1.1 0-1.6-1.3-1.8-2.5z"/><path class="st12" d="M289.1 151.1c.3-3.2-.9-4.7-4.2-3.7-1.6.5-2.6.8-1.9-1.4 1.1.1 2.3.3 3.1-.9 1.3-.4 2.7-.7 4-1.1 3.1 2.1 1.2 6 3.7 8.3-2.5 1.4-3-1.5-4.7-1.2z"/><path class="st5" d="M302.3 187.1c4.6-1.1 7.2 3.8 11.3 4.1-.3.9-.5 1.9-.8 2.8-.2 0-.4.1-.6.2-3.3.2-4.3-3.6-7.3-4-.3-.3-.6-.5-.9-.8-.2-1-.9-1.3-1.8-1.3 0-.4 0-.7.1-1z"/><path class="st3" d="M341.1 137.1c1.7 1.3.9 4.5 3.7 5 .1.7.1 1.3.2 2-1.3.2-2.5.4-3.8.5-1 .1-2.6.4-2.8 0-.5-1.2.2-2.1 1.4-2.7 2.2-1 1-3.1 1.3-4.8z"/><path class="st13" d="M280.1 132.1c-.6 0-1.3-.1-1.9-.1-.1-.6-.2-1.1-.3-1.7 3.4-.6 6.8-.2 10.2.7 3.1.9 1.5 2 0 3-2-3.3-5.3-1.6-8-1.9z"/><path class="st12" d="M362.1 205.1c-1.3.3-2.7.7-4 1 1.6-3 3.2-6 5.9-8.2 0 .7.1 1.5.1 2.2-.7 1.7-1.3 3.3-2 5z"/><path class="st6" d="M280.1 132.1c2.8.3 6-1.4 8 1.9l-3 2.7c.6-4.1-5-1.2-5-4.6z"/><path class="st13" d="M304.9 190.2c2.9.4 4 4.2 7.3 4-.2.9-.3 1.9-.5 2.8-.4-.1-.7-.1-1.1-.2-1.2-2.9-6-2.5-5.7-6.6z"/><path class="st4" d="M347.2 226.9c2.8.1 3.7 2.3 4.8 4.2-3 .2-3.7-2.2-4.8-4.2zM352.1 231.1c1.7.2 3 .9 3.2 2.8-2.1.2-3.1-.8-3.2-2.8zM311.7 196.9c.2-.9.3-1.9.5-2.8.2-.1.4-.2.6-.2.5.1 1.1.2 1.6.3-.3 1-.7 1.9-1 2.9-.5 0-1.1-.1-1.7-.2z"/><path class="st4" d="M347 223.2c.1 1.3.2 2.5.3 3.8-3-1.1-1.6-2.4-.3-3.8z"/><path class="st10" d="M286.1 145.1c-.8 1.1-1.9 1-3.1.9.8-1.1 2-.9 3.1-.9z"/><path class="st12" d="M357.1 207.3c-.1.3-.3.6-.5.8.2-.3.4-.6.5-.8z"/><path class="st13" d="M274.1 130.4c-.3 0-.6-.1-.9-.1.3-.1.6-.1.9.1z"/><path class="st12" d="M358.1 206.1c-.3.3-.6.7-.8 1 .2-.3.5-.7.8-1z"/><path class="st6" d="M302.9 172.4c-.1.3-.1.5-.2.8-.3-.2-.6-.4-.8-.6.3-.1.7-.1 1-.2z"/><path class="st9" d="M274 159.1c0 2.1 0 4.2 3 4.1-.4 3.5 3 5.1 4.1 7.8-3.3-.7-4.9-4.9-8.9-4l-.1-.1c0-1.6-.4-2.9-2.5-2.6-.9-.7-1.8-1.4-2.7-2.2-.6-1.4-.9-3.1-3-2.9l-.1-.1c-.4-1.4-1.3-2.1-2.8-2l-.2-.1c-.3-.3-.7-.5-1-.8-.6-.3-1.2-.7-1.8-1-.4-.9-1.2-1.2-2.1-1.1-2.3-2.1-4-5.4-8-4.2-1-.1-2-.3-3-.4-.3 0-.6.1-.9.1-.4.4-.7.8-1.1 1.2-3.9-.3-8.2.1-9.7-4.9.9-.8.6-1.4-.4-1.9-.3-.1-.3-.3-.2-.6 1.8-1.6 1.9-3.4.5-5.3-.2-.3-.2-.6-.1-.9-.2-.7-.3-1.3-.5-2l-.3-2.1 1.2-.3c.1-.2.2-.3.4-.3 6.1 14.1 20.1 16 32.2 20.5 2.4 2.5 3.8 6.2 8 6.1z"/><path class="st6" d="M233.2 138.1c1.4 1.9 1.4 3.7-.5 5.3-3.8-2.1 1.7-3.4.5-5.3zM237.8 119c.6 1.8.1 3.2-1.6 4.1.1-1.6-1.1-3.6 1.6-4.1zM242.4 118.8h-4.3c1.4-1.8 2.8-.6 4.3 0zM232.9 144.1c.9.5 1.3 1.1.4 1.9-.1-.7-.3-1.3-.4-1.9zM232.6 135.2c.2.7.3 1.3.5 2-.9-.5-1-1.2-.5-2zM235.9 125.9c-.3.4-.6.7-1 1.1.4-.4.7-.7 1-1.1zM233.5 132.9l-1.2.3c.1-1.3.6-.9 1.2-.3z"/><path class="st14" d="M362.1 179.1c.7-4.5-1.6-7.8-4.5-10.9-3.6-3.9-4.5-7.7.7-11.4 3.1-2.3-.3-5.8.7-8.6 2.7-.7 5.4-1.5 8.1-.8 3 .8 5.9 1.6 8.9-.2h2c1.5 2.4 2.2 5.3 4.6 7.3 2.6 2.2-2 4.2-.6 6.7-3.4 1.8-6.5-2.8-9.8-.5-2.9 2.1-5.7.5-8.6.4-1.2 0-2.6-3.2-3.3-.2-.5 2.2-1.4 5.2 1.7 6.6 2 .9 4.1 1.3 6.1-.3 1.3 2.8 3.4 4.3 6.6 4 1.5-.1 3.1-.2 3.4 2-1.2.2-3.2-.2-2.4 2 4.1 10.9-3 5.1-6.6 4.5-1-.2-2-.3-2.9-.5-1.4-.1-2.7-.1-4.1-.1z"/><path class="st6" d="M351 143.2c-1.7-2.9-.6-6.1-.9-9.1 1.2 0 2.5-.3 3.5.1 2.2 1.1 6.1-.3 6.6 2.2.4 2.5-3.4 1.6-5.2 2.4-2.1 1-1.7 2.6-1.8 4.2-.8.1-1.5.2-2.2.2z"/><path class="st7" d="M376.1 147.1c-2.9 1.8-5.9 1-8.9.2-2.8-.7-5.5 0-8.1.8-2.1.1-3.8-.4-4-2.9 7.3-2.3 14 .7 21 1.9zM351 143.2c.7 0 1.4-.1 2.1-.1.7.7 1.3 1.4 2 2-1.6-.1-3.6.6-4.1-1.9zM262.1 135.1c-.5 4.4-5.3 8.1-2 13-7.2-3.3-14.8-5.6-21.8-10.3 2.2-.7 3.8-1.9 5.3-3.5 1.1-1.3 2.6-2.5 4.8-1.5 4.3 2.1 8.9 3 13.7 2.3z"/><path class="st13" d="M272.3 167c4-.9 5.6 3.3 8.9 4 .7.4 1.4.7 2.1 1.1 4.7 3 9.3 6 14 9 1.2.4 2.5.7 3.7 1.1.5 1.6.9 3.3 1.4 4.9 0 .3-.1.6-.1.9-4.7-.7-7.2-4.9-11.1-7-1.6-.8-3.2-1.5-4.9-2.2-.3-1.6-1.6-1.6-2.8-1.8l-1.2-.9c-.1-1.3-.8-1.9-2.1-1.8-2.3-3-6.3-3.9-7.9-7.3zM248.1 150c4-1.2 5.7 2.1 8 4.2-3.3-.3-5.5-2.6-8-4.2zM269.7 164.3c2.1-.4 2.4.9 2.5 2.6-2 .3-2.1-1.3-2.5-2.6zM264 159.3c2.1-.2 2.4 1.5 3 2.9-1.7-.2-2.7-1.2-3-2.9zM261.2 157.2c1.5-.1 2.4.6 2.8 2-1.5 0-2.7-.3-2.8-2zM256.1 154.2c1-.1 1.7.2 2.1 1.1-1.4.9-1.9.1-2.1-1.1z"/><path class="st4" d="M280 174.2c1.3-.1 2 .5 2.1 1.8l-2.1-1.8z"/><path class="st13" d="M260 156.3c.3.3.7.5 1 .8-.3-.3-.6-.6-1-.8zM244.1 149.6c.3 0 .6-.1.9-.1l-.4.2-.5-.1z"/><path class="st4" d="M282.1 176.1l1.2.9c-.3-.3-.7-.6-1.2-.9z"/><path class="st13" d="M302.2 188c.9 0 1.6.3 1.8 1.3-.6-.4-1.2-.8-1.8-1.3z"/><path class="st15" d="M366.1 179.1c1 .2 2 .3 2.9.5 3.6.6 10.7 6.4 6.6-4.5-.8-2.2 1.2-1.8 2.4-2 2.2-.4 1.1-4.5 4-3.7 3.1.9 1.6 3.9 2.1 6 .2.9.6 1.8 1 2.7-.2 2.4 3.2 5.2-1 7-1.2-3.1-2.2-1.6-2.9.2-1.2 3.3-1.5 6.9-2.6 10.3-.7 2 1.7 5.3 3.2 7.7.6.9 1.4-1 2.2-1.3 0 1.7.1 3.4.1 5-3.8-1.9-6.4 2.4-10 2-3.1 1-5.8-2.6-9-1-2.2.2-3.2-.8-3-3 .7-1.7 1.4-3.3 2-5 1.9.6 3.7 1.2 5.6 1.7 2.1.6 3-.8 3.7-2.4.8-1.7 1.4-3.9.2-5.2-1.7-2-1.7 2.2-3.5 1.3-1.8-1 1.2-3.4-1.1-4.4.8-4.3-.5-8.3-2.9-11.9zM376.1 211.1c.3 0 .7-.1 1 0 1.8.4 3-3.4 4.5-1.2 1.7 2.6-1.7 2.7-2.9 3.8-.3.3-.3.9-.5 1.3-3.6.2-3.3-1.6-2.1-3.9zM368.1 167.1c-1.9 1.7-4.1 1.2-6.1.3-3.1-1.4-2.2-4.4-1.7-6.6.7-3 2.1.2 3.3.2 2.9 0 5.7 1.6 8.6-.4 3.3-2.3 6.4 2.3 9.8.5-.4 3.5-2.1 4.6-5.4 3.1-3.7-1.9-6.4-.2-8.5 2.9z"/><path class="st14" d="M384 202.1c-.8.4-1.6 2.3-2.2 1.3-1.5-2.4-3.9-5.7-3.2-7.7 1.1-3.4 1.4-7 2.6-10.3.7-1.8 1.7-3.3 2.9-.2v9c0 2.4-.1 4.7-.1 7.1v.8z"/><path class="st1" d="M343.3 181.1c-1.1.9-2.1 1.9-3.2 2.8-1.7.5-3.4 1.2-5.2 1.6-2 .5-4.1 2.5-6 .6-1.7-1.7-.7-4.1-.6-6.2.2-3.1 2.8-3 4.8-3.2 4.1-.4 9-2.1 10.2 4.4zm-2.3-1.2c-4.3-.7-7-1.8-9.2.7-.3.4-.1 2 .2 2.1 2.8.7 5.1-.8 9-2.8z"/><path class="st12" d="M285.1 159.1c-.2-2.2 3.4-3.8.9-6.7-.6-.7 1.9-1.2 3.1-1.3-.3 3.2 4.2 8.8-4 8zM299 159.5c-2.1-1.8-2.2-3.6-1.5-5.6.1-.3 1.1-.6 1.1-.6 1.4 2 .1 3.9.4 6.2z"/><path class="st1" d="M329.1 152.1h-5.3c3-3.2 4.6-6.3 5.4-9.7 1.3-.8 1.4-4 3.3-2.8 2.7 1.7 2.2 5.2 2.6 8.1.2 1.7.2 3.4-2.2 3.6-1.3.1-2.5.5-3.8.8z"/><path class="st6" d="M274 159.1c-4.2.1-5.6-3.6-7.9-6 3.9.4 7.9.5 7.9 6z"/><path class="st10" d="M362 187.7c-.2.1-.4.2-.6.4 0-.3-.1-.6-.1-.9 0-.1.2-.2.3-.3.2.3.3.6.4.8z"/><path class="st12" d="M282.1 155.1c.7-1.2-1.4-2.8.5-3.7.2-.1 1 .3 1.1.6.7 1.6.4 2.8-1.6 3.1zM282.1 155.1l-1 1 1-1z"/><path class="st10" d="M341 179.9c-3.8 2-6.1 3.6-9 2.8-.3-.1-.5-1.7-.2-2.1 2.2-2.5 4.9-1.4 9.2-.7z"/></svg>
